<?xml version="1.0" encoding="UTF-8" standalone="no" ?>
<!DOCTYPE svg PUBLIC "-//W3C//DTD SVG 1.1//EN" "http://www.w3.org/Graphics/SVG/1.1/DTD/svg11.dtd">
<svg xmlns="http://www.w3.org/2000/svg" xmlns:xlink="http://www.w3.org/1999/xlink" version="1.1" width="1080" height="1080" viewBox="0 0 1080 1080" xml:space="preserve">
<desc>Created with Fabric.js 5.2.4</desc>
<defs>
</defs>
<rect x="0" y="0" width="100%" height="100%" fill="transparent"></rect>
<g transform="matrix(1 0 0 1 540 540)" id="337a57ea-c7e9-4063-9218-9ab05836ed5f"  >
<rect style="stroke: none; stroke-width: 1; stroke-dasharray: none; stroke-linecap: butt; stroke-dashoffset: 0; stroke-linejoin: miter; stroke-miterlimit: 4; fill: rgb(255,255,255); fill-rule: nonzero; opacity: 1; visibility: hidden;" vector-effect="non-scaling-stroke"  x="-540" y="-540" rx="0" ry="0" width="1080" height="1080" />
</g>
<g transform="matrix(1 0 0 1 540 540)" id="9d06f968-2f8f-4081-9aa6-66ebc22f6744"  >
</g>
<g transform="matrix(1.25 0 0 1.25 539.92 541.95)"  >
<g style="" vector-effect="non-scaling-stroke"   >
		<g transform="matrix(1 0 0 1 0 -0.03)" id="path18"  >
<ellipse style="stroke: rgb(57,69,255); stroke-width: 1.078; stroke-dasharray: none; stroke-linecap: round; stroke-dashoffset: 0; stroke-linejoin: bevel; stroke-miterlimit: 4; fill: rgb(73,86,255); fill-rule: nonzero; opacity: 1;" vector-effect="non-scaling-stroke"  cx="0" cy="0" rx="432.43307" ry="429.78827" />
</g>
		<g transform="matrix(1 0 0 1 -1.43 -9.63)" id="path17"  >
<path style="stroke: rgb(255,154,21); stroke-width: 0.994; stroke-dasharray: none; stroke-linecap: round; stroke-dashoffset: 0; stroke-linejoin: bevel; stroke-miterlimit: 4; fill: rgb(255,128,71); fill-rule: nonzero; opacity: 1;" vector-effect="non-scaling-stroke"  transform=" translate(-512.68, -489.32)" d="M 674.96097 478.83965 L 685.65004 457.30658 C 685.65004 457.30658 695.25472 443.98396 706.40854 442.27991 C 717.56236 440.57584999999995 730.1104 455.75744 730.1104 455.75744 C 730.1104 455.75744 749.93942 474.65697 736.15206 513.23059 C 722.3647 551.80421 700.67671 557.84587 700.67671 557.84587 C 700.67671 557.84587 689.36798 561.56381 682.39684 561.40889 C 675.42571 561.2539800000001 675.1478 561.2458 675.1478 561.2458 C 675.1478 561.2458 673.59078 560.7667200000001 672.1535299999999 565.55755 C 670.71628 570.34838 664.6796599999999 605.03224 640.0426799999999 630.70656 C 615.4057099999999 656.38089 607.3662699999999 660.53027 607.3662699999999 660.53027 C 607.3662699999999 660.53027 571.3184899999999 689.0572999999999 518.4138199999999 689.0572999999999 C 465.5091599999999 689.0572999999999 453.7373699999999 680.97961 453.7373699999999 680.97961 C 453.7373699999999 680.97961 417.9579799999999 669.3385 398.7169499999999 649.3848399999999 C 379.4759099999999 629.4311799999999 369.67723999999987 616.06935 369.67723999999987 616.06935 C 369.67723999999987 616.06935 355.4246199999999 591.66174 351.50514999999984 577.23097 C 347.58567999999985 562.8001899999999 347.6285599999998 562.76812 347.6285599999998 562.76812 C 347.6285599999998 562.76812 348.3050999999998 560.51299 341.65245999999985 560.8512599999999 C 334.99981999999983 561.1895299999999 324.7389699999998 560.9640199999999 312.7867699999998 552.9582999999999 C 300.8345699999998 544.9525799999999 292.2650699999998 529.6176899999999 292.2650699999998 529.6176899999999 C 292.2650699999998 529.6176899999999 283.4551899999998 508.7657299999999 284.4031999999998 487.5934899999999 C 285.3512099999998 466.42124999999993 293.5673099999998 456.3091399999999 293.5673099999998 456.3091399999999 C 293.5673099999998 456.3091399999999 303.1128799999998 442.4458099999999 316.0112999999998 443.0457399999999 C 328.90971999999977 443.6456599999999 333.8405899999998 452.19461999999993 333.8405899999998 452.19461999999993 C 333.8405899999998 452.19461999999993 338.2085799999998 460.59358999999995 339.1084699999998 468.5426099999999 C 340.0083599999998 476.4916399999999 340.4582999999998 481.1410699999999 340.4582999999998 481.1410699999999 C 340.4582999999998 481.1410699999999 341.49009999999976 483.9414399999999 345.1108699999998 481.9758799999999 C 348.7316299999998 480.0103199999999 350.7260299999998 474.4961499999999 350.7260299999998 474.4961499999999 L 353.47108999999983 458.8846999999999 L 357.5249299999998 427.0436599999999 L 364.3526599999998 398.1809699999999 C 364.3526599999998 398.1809699999999 369.2148299999998 379.3529799999999 369.3182799999998 374.5942599999999 C 369.4217299999998 369.8355399999999 369.6286399999998 368.6975799999999 369.6286399999998 368.6975799999999 C 369.6286399999998 368.6975799999999 369.11137999999977 367.9734299999999 372.2148999999998 368.5941299999999 C 375.31840999999974 369.2148299999999 411.2350899999998 370.6373099999999 426.13067999999976 369.4690299999999 C 441.0262699999998 368.30074999999994 465.5601799999998 363.6276199999999 465.5601799999998 363.6276199999999 C 465.5601799999998 363.6276199999999 495.2053299999998 354.8655099999999 507.3262499999998 350.6304899999999 C 519.4471699999998 346.3954699999999 542.5207299999997 335.2967999999999 542.5207299999997 335.2967999999999 C 542.5207299999997 335.2967999999999 564.1339399999997 321.2774199999999 570.9975899999997 315.5820399999999 C 577.8612499999997 309.88666999999987 595.5314999999997 289.5877799999999 595.5314999999997 289.5877799999999 C 595.5314999999997 289.5877799999999 598.1601399999997 309.5945999999999 601.6649799999997 317.6265399999999 C 605.1698299999997 325.6584699999999 613.2017599999997 337.6333599999999 613.2017599999997 337.6333599999999 L 633.5006499999997 359.83070999999995 L 646.0596799999997 371.95162999999997 C 646.0596799999997 371.95162999999997 649.8565899999998 375.16439999999994 651.3169499999997 379.10734999999994 C 652.7772999999996 383.05029999999994 654.6757599999996 389.3298199999999 654.6757599999996 389.3298199999999 L 660.9552699999996 416.4923599999999 L 666.7966799999996 446.5756099999999 L 671.4697999999996 480.74783999999994 C 671.4697999999996 480.74783999999994 672.9027899999996 482.7728599999999 674.9609699999996 478.83964999999995 z" stroke-linecap="round" />
</g>
		<g transform="matrix(1 0 0 1 -81.2 -22.48)" id="path2"  >
<ellipse style="stroke: none; stroke-width: 0.989832; stroke-dasharray: none; stroke-linecap: round; stroke-dashoffset: 0; stroke-linejoin: bevel; stroke-miterlimit: 4; fill: rgb(244,152,81); fill-rule: nonzero; opacity: 1;" vector-effect="non-scaling-stroke"  cx="0" cy="0" rx="19.641991" ry="28.490564" />
</g>
		<g transform="matrix(1 0 0 1 -81.01 -22.42)" id="path1"  >
<ellipse style="stroke: rgb(4,5,42); stroke-width: 0.988425; stroke-dasharray: none; stroke-linecap: round; stroke-dashoffset: 0; stroke-linejoin: bevel; stroke-miterlimit: 4; fill: rgb(26,27,49); fill-rule: nonzero; opacity: 1;" vector-effect="non-scaling-stroke"  cx="0" cy="0" rx="18.554447" ry="26.362442" />
</g>
		<g transform="matrix(1 0 0 1 -3.73 98)" id="path15"  >
<path style="stroke: none; stroke-width: 0.994; stroke-dasharray: none; stroke-linecap: round; stroke-dashoffset: 0; stroke-linejoin: bevel; stroke-miterlimit: 4; fill: rgb(245,147,74); fill-rule: nonzero; opacity: 1;" vector-effect="non-scaling-stroke"  transform=" translate(-510.39, -596.95)" d="M 455.54977 582.95748 C 455.54977 582.95748 466.51651000000004 596.9347 493.18074 600.91283 C 519.84497 604.89096 540.38073 596.71966 540.38073 596.71966 C 540.38073 596.71966 560.8089699999999 585.21534 565.86227 581.02217 C 570.91557 576.8290099999999 571.77571 576.07639 571.77571 576.07639 C 571.77571 576.07639 575.6463200000001 575.00122 578.0117 578.0116999999999 C 580.37707 581.02217 579.73197 585.6454099999999 579.73197 585.6454099999999 C 579.73197 585.6454099999999 575.10874 592.3114699999999 561.99166 600.5902799999999 C 548.8745700000001 608.8690899999999 535.54246 614.4599799999999 535.54246 614.4599799999999 C 535.54246 614.4599799999999 524.79075 617.9005299999999 506.40534 618.0080399999998 C 488.01992 618.1155599999998 469.41947000000005 610.3743299999999 469.41947000000005 610.3743299999999 C 469.41947000000005 610.3743299999999 451.7866700000001 602.0955199999999 445.87323000000004 595.1069099999999 C 439.95980000000003 588.1182999999999 441.03497000000004 586.5055399999999 441.03497000000004 586.5055399999999 C 441.03497000000004 586.5055399999999 441.78759 581.7747899999999 445.6582 580.5921099999999 C 449.52881 579.40942 455.54977 582.9574799999999 455.54977 582.9574799999999 z" stroke-linecap="round" />
</g>
		<g transform="matrix(1 0 0 1 68.64 -22.21)" id="path2-5"  >
<ellipse style="stroke: none; stroke-width: 0.989832; stroke-dasharray: none; stroke-linecap: round; stroke-dashoffset: 0; stroke-linejoin: bevel; stroke-miterlimit: 4; fill: rgb(244,152,81); fill-rule: nonzero; opacity: 1;" vector-effect="non-scaling-stroke"  cx="0" cy="0" rx="19.641991" ry="28.490564" />
</g>
		<g transform="matrix(1 0 0 1 68.83 -22.16)" id="path1-4"  >
<ellipse style="stroke: rgb(4,5,42); stroke-width: 0.988425; stroke-dasharray: none; stroke-linecap: round; stroke-dashoffset: 0; stroke-linejoin: bevel; stroke-miterlimit: 4; fill: rgb(26,27,49); fill-rule: nonzero; opacity: 1;" vector-effect="non-scaling-stroke"  cx="0" cy="0" rx="18.554447" ry="26.362442" />
</g>
		<g transform="matrix(1 0 0 1 186.41 -1.96)" id="path14"  >
<path style="stroke: none; stroke-width: 0.994; stroke-dasharray: none; stroke-linecap: round; stroke-dashoffset: 0; stroke-linejoin: bevel; stroke-miterlimit: 4; fill: rgb(254,146,79); fill-rule: nonzero; opacity: 1;" vector-effect="non-scaling-stroke"  transform=" translate(-700.52, -496.99)" d="M 693.90224 513.70993 C 693.90224 513.70993 701.45521 494.71961 705.4475 489.86411999999996 C 709.43978 485.00863999999996 714.51106 480.58475999999996 714.51106 480.58475999999996 C 714.51106 480.58475999999996 717.74805 477.23986999999994 713.4320700000001 473.46338999999995 C 709.11608 469.6868999999999 700.9157200000001 479.50575999999995 700.9157200000001 479.50575999999995 C 700.9157200000001 479.50575999999995 694.7654400000001 488.56933 690.8810500000001 498.06449 C 686.9966700000001 507.55965999999995 685.37818 518.78121 685.37818 518.78121 C 685.37818 518.78121 685.1623800000001 521.4787 687.32037 521.3708 C 689.4783600000001 521.2629000000001 690.8810500000001 520.07601 690.8810500000001 520.07601 z" stroke-linecap="round" />
</g>
		<g transform="matrix(1 0 0 1 -190.56 -2.18)" id="path12"  >
<path style="stroke: none; stroke-width: 0.994; stroke-dasharray: none; stroke-linecap: round; stroke-dashoffset: 0; stroke-linejoin: bevel; stroke-miterlimit: 4; fill: rgb(241,147,76); fill-rule: nonzero; opacity: 1;" vector-effect="non-scaling-stroke"  transform=" translate(-323.56, -496.78)" d="M 316.10456 473.10692 C 316.10456 473.10692 327.08826 481.02165 333.06469 496.68958 C 339.04112 512.35752 338.87959 517.84937 338.87959 517.84937 C 338.87959 517.84937 338.49434 520.09817 336.14601 520.9927700000001 C 333.79768 521.88737 332.12031 519.3153900000001 332.12031 519.3153900000001 C 332.12031 519.3153900000001 324.51621 499.1868900000001 322.83883000000003 497.0622100000001 C 321.16146000000003 494.9375400000001 315.79386000000005 486.4388400000001 315.79386000000005 486.4388400000001 L 309.19618 480.2884600000001 C 309.19618 480.2884600000001 306.51238 475.7036300000001 310.09078000000005 473.4671300000001 C 313.66918000000004 471.23063000000013 316.10456000000005 473.1069200000001 316.10456000000005 473.1069200000001 z" stroke-linecap="round" />
</g>
		<g transform="matrix(1 0 0 1 -91.37 -84.96)" id="path4"  >
<path style="stroke: none; stroke-width: 0.994; stroke-dasharray: none; stroke-linecap: round; stroke-dashoffset: 0; stroke-linejoin: bevel; stroke-miterlimit: 4; fill: rgb(253,158,72); fill-rule: nonzero; opacity: 1;" vector-effect="non-scaling-stroke"  transform=" translate(-422.74, -413.99)" d="M 404.94237 404.16363 C 404.94237 404.16363 386.05804 413.21643 384.01385999999997 421.87986 C 381.96968 430.54329 391.70386999999994 430.93266 393.94273 429.56987 C 396.1816 428.20709 412.24300999999997 415.35794999999996 424.31341 414.67656 C 436.38381 413.99517 442.71103 415.35795 442.71103 415.35795 L 451.86117 419.34897 C 451.86117 419.34897 457.40966000000003 421.68518 460.62195 415.94201 C 463.83423000000005 410.19883 459.16182000000003 405.52642 459.16182000000003 405.52642 C 459.16182000000003 405.52642 449.62231 398.12843999999996 434.72900000000004 397.83641 C 419.83568 397.54438 404.94237000000004 404.16363 404.94237000000004 404.16363 z" stroke-linecap="round" />
</g>
		<g transform="matrix(1 0 0 1 -91.31 -85.15)" id="path3"  >
<path style="stroke: rgb(25,17,50); stroke-width: 0.994; stroke-dasharray: none; stroke-linecap: round; stroke-dashoffset: 0; stroke-linejoin: bevel; stroke-miterlimit: 4; fill: rgb(26,27,50); fill-rule: nonzero; opacity: 1;" vector-effect="non-scaling-stroke"  transform=" translate(-422.8, -413.8)" d="M 396.63161 424.58287 C 396.63161 424.58287 413.5299 414.0613 423.20125 412.78595 C 432.87260000000003 411.51061000000004 442.65023 413.31735000000003 442.65023 413.31735000000003 C 442.65023 413.31735000000003 451.79019 416.82454 452.85297 417.35593000000006 C 453.91576000000003 417.88732000000005 459.44224 417.03710000000007 459.44224 413.10479000000004 C 459.44224 409.17248000000006 457.21039 406.40924 457.21039 406.40924 C 457.21039 406.40924 445.09464 398.65090000000004 428.19635 399.92625000000004 C 411.29805 401.20159 392.59303 413.84874 392.59303 413.84874 C 392.59303 413.84874 384.09074 418.73755 386.64143 425.11427000000003 C 389.19211 431.49098000000004 396.63161 424.58287 396.63161 424.58287 z" stroke-linecap="round" />
</g>
		<g transform="matrix(1 0 0 1 74.95 -86.09)" id="path6"  >
<path style="stroke: none; stroke-width: 0.994; stroke-dasharray: none; stroke-linecap: round; stroke-dashoffset: 0; stroke-linejoin: bevel; stroke-miterlimit: 4; fill: rgb(253,158,72); fill-rule: nonzero; opacity: 1;" vector-effect="non-scaling-stroke"  transform=" translate(-589.06, -412.86)" d="M 579.99233 397.90586 C 579.99233 397.90586 558.96864 399.92508000000004 552.1983 407.40808000000004 C 545.4279700000001 414.89109 554.4550800000001 419.87976000000003 554.4550800000001 419.87976000000003 C 554.4550800000001 419.87976000000003 558.7310900000001 420.71121000000005 562.0568700000001 419.04832000000005 C 565.3826500000001 417.38543000000004 580.1111000000001 412.39676000000003 590.5635600000002 414.41598000000005 C 601.0160100000002 416.43520000000007 610.7557900000002 422.25532000000004 610.7557900000002 422.25532000000004 L 616.9322400000002 426.53132000000005 C 616.9322400000002 426.53132000000005 622.8711400000002 431.40121000000005 627.0283600000002 424.51210000000003 C 631.1855900000003 417.62298000000004 624.8903600000002 412.75309000000004 624.8903600000002 412.75309000000004 C 624.8903600000002 412.75309000000004 615.5069100000002 404.43864 603.3915700000002 400.28141000000005 C 591.2762200000002 396.12419000000006 579.9923300000003 397.9058600000001 579.9923300000003 397.9058600000001 z" stroke-linecap="round" />
</g>
		<g transform="matrix(1 0 0 1 75.41 -86.19)" id="path5"  >
<path style="stroke: rgb(16,11,44); stroke-width: 0.994; stroke-dasharray: none; stroke-linecap: round; stroke-dashoffset: 0; stroke-linejoin: bevel; stroke-miterlimit: 4; fill: rgb(25,25,48); fill-rule: nonzero; opacity: 1;" vector-effect="non-scaling-stroke"  transform=" translate(-589.52, -412.76)" d="M 560.73085 416.88984 C 560.73085 416.88984 573.2884 410.04026999999996 588.54426 412.21968 C 603.80013 414.39909 610.54592 419.38059999999996 610.54592 419.38059999999996 L 617.60305 424.67344999999995 C 617.60305 424.67344999999995 623.3110300000001 427.47553999999997 625.49044 422.59781999999996 C 627.66985 417.72008999999997 624.2450600000001 414.81420999999995 624.2450600000001 414.81420999999995 C 624.2450600000001 414.81420999999995 610.2345700000001 401.63397999999995 588.0253500000001 400.18103999999994 C 565.8161400000001 398.7280999999999 553.8812800000001 409.21001999999993 553.8812800000001 409.21001999999993 C 553.8812800000001 409.21001999999993 550.9754 415.12555999999995 554.8153100000001 417.20118999999994 C 558.6552200000001 419.27680999999995 560.73085 416.88983999999994 560.73085 416.88983999999994 z" stroke-linecap="round" />
</g>
		<g transform="matrix(1 0 0 1 -8.74 18.95)" id="path7"  >
<path style="stroke: rgb(21,15,50); stroke-width: 0.994; stroke-dasharray: none; stroke-linecap: round; stroke-dashoffset: 0; stroke-linejoin: bevel; stroke-miterlimit: 4; fill: rgb(25,26,50); fill-rule: nonzero; opacity: 1;" vector-effect="non-scaling-stroke"  transform=" translate(-505.37, -517.9)" d="M 502.74694 508.51193 C 502.74694 508.51193 495.5904 529.78276 493.10549 533.85801 C 490.62057999999996 537.93327 495.09342 541.01455 495.09342 541.01455 C 495.09342 541.01455 500.06324 544.3940299999999 505.43064999999996 544.79162 C 510.79804999999993 545.1891999999999 520.14131 544.3940299999999 520.14131 544.3940299999999 C 520.14131 544.3940299999999 525.60811 543.59886 525.40932 547.8729099999999 C 525.21053 552.14695 520.93648 552.14695 520.93648 552.14695 C 520.93648 552.14695 502.44874999999996 551.6499699999999 498.3735 550.9541899999999 C 494.29825 550.2584199999999 484.7562 546.4813599999999 485.35258 539.2254199999999 C 485.94894999999997 531.9694799999999 491.21696 520.3400999999999 491.21696 520.3400999999999 L 503.24393 485.4519699999999 C 503.24393 485.4519699999999 504.33729 482.3706799999999 507.81615999999997 484.2592199999999 C 511.29502999999994 486.1477499999999 507.51797 494.7952299999999 507.51797 494.7952299999999 z" stroke-linecap="round" />
</g>
		<g transform="matrix(1 0 0 1 -3.5 98.46)" id="path8"  >
<path style="stroke: rgb(21,15,50); stroke-width: 0.994; stroke-dasharray: none; stroke-linecap: round; stroke-dashoffset: 0; stroke-linejoin: bevel; stroke-miterlimit: 4; fill: rgb(25,26,50); fill-rule: nonzero; opacity: 1;" vector-effect="non-scaling-stroke"  transform=" translate(-510.61, -597.41)" d="M 453.46939 584.06606 C 453.46939 584.06606 474.23897999999997 606.25176 510.27108 604.9929999999999 C 546.30317 603.7342299999999 568.17418 581.0764999999999 568.17418 581.0764999999999 C 568.17418 581.0764999999999 574.46799 575.7267499999999 577.45755 579.9750799999999 C 580.4471199999999 584.2234 574.7826799999999 589.2584599999999 574.7826799999999 589.2584599999999 C 574.7826799999999 589.2584599999999 545.5164399999999 615.8498299999999 509.9563799999999 616.4792099999999 C 474.3963299999999 617.1085899999998 448.4343399999999 595.2375799999999 448.4343399999999 595.2375799999999 C 448.4343399999999 595.2375799999999 442.4552199999999 591.3039499999999 442.9272499999999 586.8982799999999 C 443.3992899999999 582.4926099999999 449.6930999999999 581.7058799999999 449.6930999999999 581.7058799999999 C 449.6930999999999 581.7058799999999 451.5812499999999 582.8072999999998 453.4693899999999 584.0660599999999 z" stroke-linecap="round" />
</g>
		<g transform="matrix(1 0 0 1 -190.5 -1.78)" id="path9"  >
<path style="stroke: rgb(21,15,50); stroke-width: 0.994; stroke-dasharray: none; stroke-linecap: round; stroke-dashoffset: 0; stroke-linejoin: bevel; stroke-miterlimit: 4; fill: rgb(25,26,50); fill-rule: nonzero; opacity: 1;" vector-effect="non-scaling-stroke"  transform=" translate(-323.62, -497.17)" d="M 310.69311 479.09287 C 310.69311 479.09287 323.61267 490.14132 328.42409 504.21919 C 333.23551 518.29705 333.14641 519.63356 334.48292 519.63356 C 335.81942 519.63356 336.88863 518.02975 336.88863 518.02975 C 336.88863 518.02975 335.10661999999996 502.25898 327.97859 490.58683 C 320.85056 478.91467 315.95002999999997 475.70706 315.95002999999997 475.70706 C 315.95002999999997 475.70706 312.83151999999995 473.65775 311.22770999999995 475.43976000000004 C 309.62389999999994 477.22176 310.69310999999993 479.09287000000006 310.69310999999993 479.09287000000006 z" stroke-linecap="round" />
</g>
		<g transform="matrix(1 0 0 1 -4.63 195.89)" id="path10"  >
<path style="stroke: rgb(21,15,50); stroke-width: 0.994; stroke-dasharray: none; stroke-linecap: round; stroke-dashoffset: 0; stroke-linejoin: bevel; stroke-miterlimit: 4; fill: rgb(25,26,50); fill-rule: nonzero; opacity: 1;" vector-effect="non-scaling-stroke"  transform=" translate(-509.48, -694.85)" d="M 421.34126 666.9044 L 419.85839 686.35189 C 419.85839 686.35189 437.87477 704.20743 456.46979 712.16463 C 471.06399999999996 718.40981 485.98645999999997 722.1579399999999 485.98645999999997 722.1579399999999 C 485.98645999999997 722.1579399999999 509.64761 724.7962299999999 527.20235 719.25883 C 544.7571 713.7214299999999 562.88233 703.71501 562.88233 703.71501 C 562.88233 703.71501 584.45491 689.8972 591.40612 684.47761 C 598.3573299999999 679.05803 599.09998 677.33054 599.09998 677.33054 L 598.62871 667.4339 C 598.62871 667.4339 563.4141 687.73785 531.19308 689.44028 C 500.30607000000003 691.07222 473.415 687.18969 473.415 687.18969 C 473.415 687.18969 450.4703 684.24995 421.34126000000003 666.9044 z" stroke-linecap="round" />
</g>
		<g transform="matrix(1 0 0 1 -15.88 -172.94)" id="path11"  >
<path style="stroke: rgb(21,15,50); stroke-width: 0.994; stroke-dasharray: none; stroke-linecap: round; stroke-dashoffset: 0; stroke-linejoin: bevel; stroke-miterlimit: 4; fill: rgb(25,26,50); fill-rule: nonzero; opacity: 1;" vector-effect="non-scaling-stroke"  transform=" translate(-498.23, -326.01)" d="M 342.94349 481.59881 C 342.94349 481.59881 350.96757 481.19083 352.26691 465.45432 C 353.56626 449.7178 357.69371 422.14281 357.69371 422.14281 L 365.40474 390.0923 C 365.40474 390.0923 368.8864 375.92581 368.81423 371.22857000000005 C 368.74473 366.70346000000006 370.82263 367.53551000000004 370.82263 367.53551000000004 C 370.82263 367.53551000000004 418.83393 374.85321000000005 469.87517 361.71229000000005 C 533.0503100000001 345.44743000000005 555.88367 325.40871000000004 555.88367 325.40871000000004 C 555.88367 325.40871000000004 576.78452 312.05813000000006 584.41231 301.52675000000005 C 590.79349 292.71652000000006 596.10316 288.85731000000004 596.10316 288.85731000000004 C 596.10316 288.85731000000004 595.59518 317.27267000000006 617.87496 341.71854 C 640.15473 366.1644 647.16745 371.85359 647.16745 371.85359 C 647.16745 371.85359 650.8487 373.74639 654.89733 387.27736 C 658.94597 400.80832 668.58701 451.84906 668.58701 451.84906 L 672.0447499999999 480.36305 C 672.0447499999999 480.36305 672.7415799999999 481.47274 674.12664 479.1288 C 675.5116999999999 476.78485 684.51888 456.73372 687.71517 453.32434 C 690.9114699999999 449.91496 697.5420399999999 444.64348 700.02906 443.55116 L 702.38933 442.51451 C 702.38933 442.51451 719.18201 399.38986 718.6214699999999 357.34882 C 718.0609199999999 315.30778 712.4554499999999 299.61246 712.4554499999999 299.61246 C 712.4554499999999 299.61246 702.0853299999999 268.78237 682.74645 254.20814000000001 C 663.40757 239.63391000000001 648.2728 239.63391000000001 648.2728 239.63391000000001 L 641.23541 239.90449 C 641.23541 239.90449 643.382 212.02849 593.16472 184.98842000000002 C 542.94745 157.94835 465.6901 176.83348 465.6901 176.83348 C 465.6901 176.83348 409.03472 193.57257 366.11397 236.92252000000002 C 323.19322 280.27248000000003 303.36134 280.85766 303.36134 280.85766 C 303.36134 280.85766 286.79969 284.83262 282.47213 280.89846 C 278.14456 276.9643 277.83323 293.02809 277.83323 293.02809 C 277.83323 293.02809 279.45661 314.38867000000005 292.351 326.11085 C 305.24539 337.83302000000003 311.97105 341.16668000000004 311.97105 341.16668000000004 C 311.97105 341.16668000000004 315.74201999999997 340.57039000000003 315.15645 346.30902000000003 C 314.57087 352.04766 314.1291 388.60908000000006 316.38607 405.22858 C 318.64304000000004 421.84808000000004 322.63286 443.21113 322.63286 443.21113 C 322.63286 443.21113 334.61629999999997 445.96408 337.89553 460.06838000000005 C 340.83807 472.72457 341.42463000000004 480.89580000000007 341.42463000000004 480.89580000000007 C 341.42463000000004 480.89580000000007 342.07911 481.5764700000001 342.94349000000005 481.59880000000004 z" stroke-linecap="round" />
</g>
		<g transform="matrix(1 0 0 1 186.27 -1.91)" id="path13"  >
<path style="stroke: rgb(9,7,44); stroke-width: 0.994; stroke-dasharray: none; stroke-linecap: round; stroke-dashoffset: 0; stroke-linejoin: bevel; stroke-miterlimit: 4; fill: rgb(26,29,51); fill-rule: nonzero; opacity: 1;" vector-effect="non-scaling-stroke"  transform=" translate(-700.39, -497.05)" d="M 690.19037 517.43071 C 690.19037 517.43071 695.6568500000001 502.63351 699.04983 496.60152999999997 C 702.4428200000001 490.56955 706.96681 484.72607999999997 706.96681 484.72607999999997 L 711.96204 480.29634 C 711.96204 480.29634 714.50678 477.65735 712.62179 475.67811 C 710.73679 473.69886 707.81505 476.14935 707.81505 476.14935 C 707.81505 476.14935 701.97157 479.25959 695.84535 491.98330000000004 C 689.7191200000001 504.70701 687.64562 514.5089700000001 687.64562 514.5089700000001 C 687.64562 514.5089700000001 686.98588 519.78695 688.1168700000001 519.1272100000001 C 689.24787 518.4674600000001 690.19037 517.4307100000001 690.19037 517.4307100000001 z" stroke-linecap="round" />
</g>
		<g transform="matrix(1 0 0 1 -3.04 248.23)" id="path16"  >
<path style="stroke: rgb(255,154,21); stroke-width: 0.994; stroke-dasharray: none; stroke-linecap: round; stroke-dashoffset: 0; stroke-linejoin: bevel; stroke-miterlimit: 4; fill: rgb(255,128,71); fill-rule: nonzero; opacity: 1;" vector-effect="non-scaling-stroke"  transform=" translate(-511.08, -747.18)" d="M 380.75821 734.84767 C 380.75821 734.84767 392.06163000000004 772.9499 433.96968000000004 796.25706 C 475.87774 819.56421 508.49935000000005 815.7503800000001 508.49935000000005 815.7503800000001 C 508.49935000000005 815.7503800000001 559.6639100000001 818.956 600.4514300000001 787.8050900000001 C 641.23895 756.6541900000001 641.3949400000001 734.6235600000001 641.3949400000001 734.6235600000001 C 641.3949400000001 734.6235600000001 612.4851100000001 732.6065900000001 604.8654600000001 706.6101500000001 C 597.2458200000001 680.6137100000001 599.4868900000001 678.37264 599.4868900000001 678.37264 C 599.4868900000001 678.37264 575.6656800000002 698.9334200000001 556.3995200000002 708.03132 C 537.1333600000002 717.12923 525.0028200000002 720.69704 525.0028200000002 720.69704 C 525.0028200000002 720.69704 507.8773400000002 725.69197 486.11372000000017 722.48094 C 464.35010000000017 719.2699200000001 439.1970600000002 703.03639 439.1970600000002 703.03639 L 419.5741200000002 686.98126 C 419.5741200000002 686.98126 418.3253900000002 713.02625 407.97874000000024 722.30255 C 397.63210000000026 731.57885 380.75821000000025 734.84767 380.75821000000025 734.84767 z" stroke-linecap="round" />
</g>
		<g transform="matrix(1 0 0 1 -1.7 332.89)" id="path19"  >
<path style="stroke: rgb(254,196,6); stroke-width: 1.078; stroke-dasharray: none; stroke-linecap: round; stroke-dashoffset: 0; stroke-linejoin: bevel; stroke-miterlimit: 4; fill: rgb(255,187,14); fill-rule: nonzero; opacity: 1;" vector-effect="non-scaling-stroke"  transform=" translate(-512.41, -831.84)" d="M 379.8487 734.92282 C 379.8487 734.92282 388.09818 756.79719 401.87274 771.49005 C 415.64730000000003 786.18291 427.24265 793.26385 427.24265 793.26385 C 427.24265 793.26385 442.1274 803.4431800000001 466.72795 811.0919100000001 C 490.50266 818.4838700000001 508.62644 816.6806000000001 508.62644 816.6806000000001 C 508.62644 816.6806000000001 537.13854 816.2782100000002 556.60694 810.5382500000002 C 578.42325 804.1060400000001 595.06781 792.6516000000001 595.06781 792.6516000000001 C 595.06781 792.6516000000001 620.65864 774.1301800000001 630.30083 760.0112500000001 C 639.94302 745.8923300000001 642.35357 735.4466300000001 642.35357 735.4466300000001 C 642.35357 735.4466300000001 710.79345 753.9809000000001 750.74184 774.4949400000002 C 790.69023 795.0089800000002 813.21235 809.9228600000001 813.21235 809.9228600000001 C 813.21235 809.9228600000001 703.2907 937.1382400000001 496.34488 928.3271100000002 C 315.60104 920.6315700000001 211.60793999999999 806.1510900000002 211.60793999999999 806.1510900000002 C 211.60793999999999 806.1510900000002 310.35405 747.0929400000002 379.8487 734.9228200000002 z" stroke-linecap="round" />
</g>
</g>
</g>
</svg>