<?xml version="1.0" encoding="UTF-8" standalone="no"?>
<!-- Created with Inkscape (http://www.inkscape.org/) -->

<svg
   version="1.1"
   id="svg1"
   width="1007.5908"
   height="868.79456"
   viewBox="0 0 1007.5908 868.79456"
   sodipodi:docname="2eebe542-5bc3-4fa3-8ab5-5d1488e48a34.png"
   xmlns:inkscape="http://www.inkscape.org/namespaces/inkscape"
   xmlns:sodipodi="http://sodipodi.sourceforge.net/DTD/sodipodi-0.dtd"
   xmlns="http://www.w3.org/2000/svg"
   xmlns:svg="http://www.w3.org/2000/svg">
  <defs
     id="defs1" />
  <sodipodi:namedview
     id="namedview1"
     pagecolor="#ffffff"
     bordercolor="#000000"
     borderopacity="0.25"
     inkscape:showpageshadow="2"
     inkscape:pageopacity="0.0"
     inkscape:pagecheckerboard="0"
     inkscape:deskcolor="#d1d1d1">
    <inkscape:page
       x="0"
       y="0"
       width="1007.5908"
       height="868.79456"
       id="page2"
       margin="0"
       bleed="0" />
  </sodipodi:namedview>
  <g
     inkscape:groupmode="layer"
     inkscape:label="Image"
     id="g1"
     transform="translate(43.269208,-69.220665)">
    <path
       style="display:inline;fill:#a13711;fill-opacity:1;stroke:none;stroke-width:0.978;stroke-linecap:round;stroke-linejoin:bevel;stroke-dasharray:none"
       d="m 88.701871,779.71108 -131.971077,4.75962 c 0,0 6.490381,74.42303 102.115326,105.57686 95.62494,31.15383 181.73066,35.91344 181.73066,35.91344 0,0 128.04393,9.25874 249.81302,11.74382 121.76909,2.48508 229.45604,-10.76869 229.45604,-10.76869 0,0 141.61995,-17.84528 194.30254,-59.99135 52.6826,-42.14608 50.15383,-83.02777 50.15383,-83.02777 l -114.21586,-3.37169 -265.85255,-3.89919 -61.2221,-1.7492 -197.65994,-3.49841 -33.23486,-2.6238 z"
       id="path78" />
    <path
       style="fill:#7d2a1d;fill-opacity:1;stroke:none;stroke-width:0.978;stroke-linecap:round;stroke-linejoin:bevel;stroke-dasharray:none"
       d="m 77.629818,779.08061 -15.303369,1.11297 c 0,0 7.234319,12.24269 8.069049,16.41634 0.834729,4.17365 11.407966,10.57324 16.138098,11.96445 4.730132,1.39122 11.094466,3.5823 7.31629,4.33793 -3.778175,0.75564 9.764584,6.58397 9.764584,6.58397 l 155.98688,1.13033 c 0,0 32.02629,0.37678 35.04053,-2.26067 3.01423,-2.63746 7.30382,-3.52391 7.30382,-3.52391 0,0 8.39195,0.98729 9.37924,1.15184 0.98729,0.16454 18.92303,-1.64548 22.37854,-5.43009 3.45551,-3.7846 28.30226,-0.16455 28.30226,-0.16455 l 118.4007,11.4631 62.82982,6.28299 c 0,0 42.04764,-5.79968 46.8807,-8.69952 4.83307,-2.89983 27.30681,-3.14149 27.30681,-3.14149 0,0 15.70745,-3.86645 17.15737,-4.59141 1.44992,-0.72496 49.05559,-7.7329 59.20502,-5.31637 10.14943,2.41654 77.32901,-1.20826 77.32901,-1.20826 l 76.36239,-4.83306 c 0,0 23.42096,-3.58309 26.77457,-8.78697 3.35361,-5.20388 6.12901,-10.27723 6.12901,-10.27723 l -50.76981,-1.80652 -190.17254,-3.97533 -55.16367,1.3791 -79.06791,-4.59698 -166.41038,-0.45969 -34.47729,-3.21788 -111.70642,7.35515 z"
       id="path79"
       sodipodi:nodetypes="ccsssccscsscccscssccsccccccccc" />
    <path
       style="fill:#7d2a1d;fill-opacity:1;stroke:none;stroke-width:0.978;stroke-linecap:round;stroke-linejoin:bevel;stroke-dasharray:none"
       d="m 378.74157,846.017 h 38.59787 12.30307 c 0,0 9.8907,-0.72371 5.54844,-2.41236 -4.34226,-1.68866 -18.33398,-0.72371 -18.33398,-0.72371 l -38.59787,-0.24124 c 0,0 -6.27215,0.48247 -5.54844,2.17113 0.72371,1.68866 6.03091,1.20618 6.03091,1.20618 z"
       id="path80" />
    <path
       style="fill:#7d2a1d;fill-opacity:1;stroke:none;stroke-width:0.978;stroke-linecap:round;stroke-linejoin:bevel;stroke-dasharray:none"
       d="m 418.01458,889.9075 c 0,0 -12.6055,2.03315 -7.116,4.87955 5.48949,2.8464 47.57558,9.7591 47.57558,9.7591 0,0 16.67179,2.43977 28.0574,-2.23646 11.38561,-4.67624 39.64633,-16.46848 39.64633,-16.46848 0,0 7.31932,-4.47292 -2.23646,-5.89612 -9.55578,-1.4232 -105.92685,9.96241 -105.92685,9.96241 z"
       id="path81" />
    <path
       style="fill:#7d2a1d;fill-opacity:1;stroke:none;stroke-width:0.978;stroke-linecap:round;stroke-linejoin:bevel;stroke-dasharray:none"
       d="m 19.329493,873.49734 -8.808377,-6.11693 H 145.58289 c 0,0 13.9466,-0.73403 13.70192,1.22339 -0.24468,1.95741 -6.36161,3.1808 -6.36161,3.1808 z"
       id="path82" />
    <path
       style="fill:#7d2a1d;fill-opacity:1;stroke:none;stroke-width:0.978;stroke-linecap:round;stroke-linejoin:bevel;stroke-dasharray:none"
       d="m 153.90191,897.96505 155.61465,0.24468 32.54206,-0.24468 c 0,0 9.29773,-0.73403 8.31902,1.71274 -0.9787,2.44677 -12.72321,1.95742 -12.72321,1.95742 l -184.73123,1.71274 c 0,0 -12.23385,0.73403 -11.98918,-2.93613 0.24468,-3.67015 12.96789,-2.44677 12.96789,-2.44677 z"
       id="path83" />
    <path
       style="fill:#7d2a1d;fill-opacity:1;stroke:none;stroke-width:0.978;stroke-linecap:round;stroke-linejoin:bevel;stroke-dasharray:none"
       d="m 332.33833,916.45401 59.20747,-0.38825 c 0,0 5.62957,-0.19412 4.46483,-2.13535 -1.16474,-1.94123 -6.98842,-1.74711 -6.98842,-1.74711 l -58.81923,-0.19412 c 0,0 -10.67676,-1.55298 -10.28851,1.74711 0.38824,3.30009 12.42386,2.71772 12.42386,2.71772 z"
       id="path84" />
    <path
       style="fill:#7d2a1d;fill-opacity:1;stroke:none;stroke-width:0.978;stroke-linecap:round;stroke-linejoin:bevel;stroke-dasharray:none"
       d="m 584.30717,871.09873 -4.09527,1.59389 c 0,0 -12.25692,-0.30642 -9.03948,3.21744 3.21744,3.52387 26.96522,7.20094 26.96522,7.20094 0,0 23.44136,4.59635 37.3836,2.75781 13.94225,-1.83854 31.25514,-14.09546 31.25514,-14.09546 0,0 6.28168,-3.9835 -1.99174,-5.66882 -8.27342,-1.68533 -80.47747,4.9942 -80.47747,4.9942 z"
       id="path85" />
    <path
       style="fill:#7d2a1d;fill-opacity:1;stroke:none;stroke-width:0.978;stroke-linecap:round;stroke-linejoin:bevel;stroke-dasharray:none"
       d="m 683.92373,850.86366 -7.41955,3.1798 c 0,0 1.32492,-0.26498 7.68453,5.29968 6.35962,5.56467 23.3186,11.39432 23.3186,11.39432 0,0 2.91482,0 10.06939,0 7.15457,0 66.51099,-11.6593 66.51099,-11.6593 0,0 12.98421,-2.38486 5.56466,-11.39431 -7.41955,-9.00946 -24.37853,-8.21451 -24.37853,-8.21451 z"
       id="path86" />
    <path
       style="fill:#7d2a1d;fill-opacity:1;stroke:none;stroke-width:0.978;stroke-linecap:round;stroke-linejoin:bevel;stroke-dasharray:none"
       d="m 736.92053,885.57656 145.47622,-0.26498 7.94952,-4.50473 H 751.75964 c 0,0 -31.26812,0.79495 -28.08831,2.64984 3.17981,1.85489 13.2492,2.11987 13.2492,2.11987 z"
       id="path87" />
    <path
       style="fill:#7d2a1d;fill-opacity:1;stroke:none;stroke-width:0.978;stroke-linecap:round;stroke-linejoin:bevel;stroke-dasharray:none"
       d="m 575.28029,904.65541 125.60242,-0.52997 c 0,0 8.2145,1.32492 6.6246,-2.64984 -1.58991,-3.97476 -66.51099,-1.32492 -66.51099,-1.32492 h -96.1892 c 0,0 -9.53942,1.05994 -5.56466,3.70978 3.97476,2.64984 36.03783,0.79495 36.03783,0.79495 z"
       id="path88" />
    <path
       style="fill:#7d2a1d;fill-opacity:1;stroke:none;stroke-width:0.978;stroke-linecap:round;stroke-linejoin:bevel;stroke-dasharray:none"
       d="m 97.559654,849.07826 111.898396,0.84345 c 0,0 20.52407,-0.5623 18.27486,-2.81152 -2.24921,-2.24921 -30.64554,-2.24921 -30.64554,-2.24921 l -107.962268,0.28115 c 0,0 -8.434553,-1.40576 -5.904187,1.40576 2.530366,2.81152 14.338739,2.53037 14.338739,2.53037 z"
       id="path89" />
    <path
       style="fill:#7d2a1d;fill-opacity:1;stroke:none;stroke-width:0.978;stroke-linecap:round;stroke-linejoin:bevel;stroke-dasharray:none"
       d="m 274.68525,863.13584 -18.27486,3.93613 c 0,0 2.81151,2.24921 17.43141,4.49842 14.61989,2.24922 55.66804,6.74765 55.66804,6.74765 0,0 38.23664,-10.96492 39.36124,-14.90105 1.12461,-3.93612 -6.18534,-4.49842 -6.18534,-4.49842 z"
       id="path90" />
    <path
       style="fill:#7d2a1d;fill-opacity:1;stroke:none;stroke-width:0.978;stroke-linecap:round;stroke-linejoin:bevel;stroke-dasharray:none"
       d="M 104.01668,819.43532 -4.8631176,819.84058 -4.5929444,814.5722 96.451833,813.08625 Z"
       id="path91" />
    <path
       style="fill:#7d2a1d;fill-opacity:1;stroke:none;stroke-width:0.978;stroke-linecap:round;stroke-linejoin:bevel;stroke-dasharray:none"
       d="m 784.12641,826.84037 129.55624,-0.56575 -2.26299,-6.5061 -127.01038,1.69724 c 0,0 -11.8807,1.1315 -9.61771,3.67736 2.26299,2.54587 9.33484,1.69725 9.33484,1.69725 z"
       id="path92" />
    <path
       style="fill:#7d2a1d;fill-opacity:1;stroke:none;stroke-width:0.978;stroke-linecap:round;stroke-linejoin:bevel;stroke-dasharray:none"
       d="m 855.97638,839.00394 68.1726,1.1315 -1.13149,4.24311 -71.84997,-0.28288 c 0,0 -4.80886,-1.98011 -2.26299,-3.96023 2.54586,-1.98012 7.07185,-1.1315 7.07185,-1.1315 z"
       id="path93" />
    <path
       style="fill:#fc8400;fill-opacity:1;stroke:#eca060;stroke-width:0.978;stroke-linecap:round;stroke-linejoin:bevel;stroke-dasharray:none"
       d="m 117.10471,455.52417 c 0,0 10.17539,3.59648 11.92977,11.40346 1.75438,7.80698 -3.94735,14.12274 -3.94735,14.12274 0,0 -20.17534,15.17537 -23.77182,19.21044 -3.596471,4.03507 -13.420986,15.26308 -13.420986,15.26308 0,0 -7.456106,9.21049 -9.385921,20.8771 -1.929816,11.66661 -1.403502,14.56133 -1.403502,14.56133 l -1.052627,14.91221 -0.526313,18.42097 3.771912,3.85963 c 0,0 2.456129,8.85961 4.210506,17.1929 1.754378,8.3333 0.263157,25.0876 0.263157,25.0876 0,0 -1.403502,12.36837 -4.385944,22.63148 -2.982442,10.26311 -9.47364,30.26301 -9.47364,30.26301 0,0 -5.175414,14.73677 -6.491197,27.19286 -1.315784,12.45608 -0.263157,27.01741 -0.263157,27.01741 0,0 0.877189,4.29823 2.631566,7.80698 1.754378,3.50876 3.070161,4.38595 3.070161,4.38595 0,0 1.666659,1.4035 1.754378,-1.49122 0.08772,-2.89473 -2.456129,-16.14028 -0.08772,-33.4209 2.36841,-17.28062 7.192949,-31.5788 7.192949,-31.5788 l 9.298202,-25.43847 c 0,0 12.105206,-24.99989 14.912216,-29.91214 2.807,-4.91226 13.9473,-22.36832 13.9473,-22.36832 0,0 6.14032,-10.35083 11.22802,-16.31571 5.08769,-5.96489 14.12274,-17.1929 14.12274,-17.1929 l 11.66661,-13.42099 c 0,0 27.19285,-27.3683 28.24548,-28.24549 1.05263,-0.87718 3.50875,-2.98244 3.50875,-2.98244 0,0 -1.8257,-15.13777 0.44943,-24.56329 2.27512,-9.42552 3.90021,-14.13828 3.90021,-14.13828 0,0 -5.49994,-10.38646 -10.75884,-22.4068 -5.2589,-12.02033 -7.60662,-30.33256 -7.60662,-30.33256 0,0 -0.56345,-18.87569 -0.18782,-21.41123 0.37564,-2.53554 2.44163,-4.50762 2.44163,-4.50762 0,0 9.20307,-1.97209 20.94168,-0.84518 11.73861,1.1269 25.82494,7.23098 25.82494,7.23098 0,0 7.23099,3.1929 9.10916,4.31981 1.87818,1.12691 4.69545,4.41372 7.98226,3.47463 3.28681,-0.93909 16.34014,-7.3249 23.85285,-9.67262 7.51271,-2.34772 23.21076,-6.2124 26.23867,-6.56177 3.0279,-0.34938 2.92118,-2.26726 2.92118,-2.26726 0,0 6.79209,-8.16553 16.67255,-18.18133 9.88045,-10.01581 24.09207,-20.03162 24.09207,-20.03162 0,0 4.60186,-5.2786 9.20371,-5.54929 4.60186,-0.2707 5.14326,3.24837 5.14326,3.24837 0,0 3.78976,7.57952 5.14325,20.573 1.35348,12.99348 1.62418,38.30369 1.62418,38.30369 l 0.13535,9.33907 -0.0595,1.49001 c 0,0 16.98506,18.80958 21.13463,36.48367 4.14957,17.67409 4.65646,23.1605 4.65646,23.1605 0,0 6.0671,17.60265 -0.95034,37.01258 -7.01743,19.40993 -31.95172,40.01431 -31.95172,40.01431 0,0 -18.21547,12.5418 -23.29192,14.18418 -5.07644,1.64238 3.58338,10.89942 3.58338,10.89942 0,0 5.74938,40.98916 -7.57435,66.57073 -13.32373,25.58156 -1.62459,10.96773 -1.62459,10.96773 l -2.25173,22.74253 -2.81467,42.10747 -0.78811,29.38515 c 0,0 12.04679,3.82795 13.39783,12.94748 1.35104,9.11953 -1.57622,13.06007 -1.57622,13.06007 0,0 -5.0664,4.61606 -8.66918,5.9671 -3.60278,1.35105 -6.30486,1.68881 -6.30486,1.68881 0,0 -7.01902,0.15372 -11.23296,-1.27902 -4.21394,-1.43274 -9.01784,-3.37115 -9.01784,-3.37115 l -5.79833,-0.66741 c 0,0 1.07994,2.74894 -2.01262,5.89058 -3.09256,3.14165 -6.52873,3.43618 -6.52873,3.43618 0,0 -10.89758,1.96353 -13.40108,1.86535 -2.5035,-0.0982 -14.77556,1.27629 -22.23696,-5.98876 -7.46141,-7.26506 -9.32677,-14.72647 -9.32677,-14.72647 l -19.64325,7.23585 1.73112,6.18259 c 0,0 0.37096,0.98922 -1.23652,2.96765 -1.60747,1.97843 -4.69877,3.70956 -4.69877,3.70956 l -1.60747,1.85477 c 0,0 -1.97843,1.11287 -5.56434,2.47304 -3.5859,1.36017 -6.4299,1.97843 -6.4299,1.97843 0,0 -26.13275,-2.95007 -50.61467,-6.23115 -24.48191,-3.28108 -42.149273,-6.05738 -51.487735,-15.64823 -9.338463,-9.59086 -13.881498,-15.39585 -13.881498,-15.39585 0,0 -17.414971,-10.60041 -25.996261,-30.79168 -8.58129,-20.19127 -6.562163,-41.39211 -6.562163,-41.39211 0,0 2.271518,-31.04408 5.5526,-45.17797 3.281081,-14.13388 5.047817,-23.72474 -1.009564,-48.45904 -6.057381,-24.73431 -9.338462,-39.12059 -9.338462,-39.12059 0,0 -1.458677,-6.54689 -0.918653,-19.50749 0.540025,-12.96059 2.80813,-29.80937 2.80813,-29.80937 0,0 6.804314,-22.14102 13.176608,-33.37354 6.372294,-11.23252 20.412942,-28.1893 39.853839,-33.58955 19.440899,-5.40025 25.840499,0.39117 25.840499,0.39117 z"
       id="path52" />
    <path
       style="fill:#fd622b;fill-opacity:1;stroke:none;stroke-width:0.978;stroke-linecap:round;stroke-linejoin:bevel;stroke-dasharray:none"
       d="m 663.09249,788.96301 c 0,0 14.10458,8.32629 35.64286,8.606 21.53828,0.27972 27.5056,-5.68759 27.5056,-5.68759 l 31.3284,0.18648 c 0,0 53.26246,-0.38959 72.23356,-3.12581 18.97109,-2.73621 26.99732,-9.48554 26.99732,-9.48554 0,0 9.85038,-6.74934 9.85038,-26.08526 0,-19.33592 -2.37139,-30.09837 -2.37139,-30.09837 l -5.47243,-27.17974 -66.39883,-0.72965 -131.70316,21.16006 -48.88705,28.45664 -13.86349,12.40418 -5.83726,7.11416 -5.47243,11.4921 -0.54724,9.30313 2.73621,6.56692 11.12728,9.85038 15.50522,2.5538 18.78868,-1.82415 z"
       id="path36" />
    <path
       style="display:inline;fill:#fe7700;fill-opacity:1;stroke:none;stroke-width:0.978;stroke-linecap:round;stroke-linejoin:bevel;stroke-dasharray:none"
       d="m 532.5424,589.77605 c 0,0 0.31709,-5.07335 15.69565,-23.14713 15.37857,-18.07378 44.70883,-26.63505 44.70883,-26.63505 l 114.06441,-21.5349 36.00964,-2.06752 c 0,0 44.0983,8.8467 65.39459,27.40188 21.29628,18.55518 28.25448,38.16463 28.25448,38.16463 0,0 12.65126,27.41107 21.71799,62.20203 9.06674,34.79097 10.96443,48.07479 10.96443,48.07479 l -43.64685,0.84342 -45.96624,6.11477 5.48221,28.67619 -78.93514,19.67311 -21.68577,-2.6446 -21.50948,-11.10735 -30.14852,2.99722 -22.03839,7.58121 c 0,0 0.28356,-11.56819 -2.84044,-28.08075 -3.124,-16.51256 -8.92571,-47.97568 -8.92571,-47.97568 l -3.74541,-6.31136 -1.50762,3.74691 c 0,0 -21.79114,17.66482 -23.85059,18.96553 -2.05945,1.3007 -21.78683,-16.36722 -21.78683,-16.36722 l -6.61192,-39.67154 z"
       id="path34" />
    <path
       style="fill:#d23308;fill-opacity:1;stroke:none;stroke-width:0.978;stroke-linecap:round;stroke-linejoin:bevel;stroke-dasharray:none"
       d="m 777.90053,699.90274 -1.98299,25.96779 -72.04881,19.3578 9.3484,8.21527 32.6722,-9.15955 52.21886,-13.50325 c 0,0 12.6534,-3.21056 11.61469,-4.53256 -1.03871,-1.322 -10.19826,-1.322 -10.19826,-1.322 l -7.55427,0.661 -6.13784,-27.19536 z"
       id="path35" />
    <path
       style="display:inline;fill:#fb6127;fill-opacity:1;stroke:#e4784c;stroke-width:0.978;stroke-linecap:round;stroke-linejoin:bevel;stroke-dasharray:none"
       d="m 642.30952,552.09834 c 0,0 3.18955,1.53453 7.66796,1.77023 4.4784,0.23571 8.83895,-0.3732 8.83895,-0.3732 0,0 1.96421,-0.45177 3.59451,-1.21781 1.6303,-0.76604 4.53733,-2.53383 4.53733,-2.53383 l 4.06592,-2.63205 5.51944,-4.12484 3.81057,-3.16239 3.55522,-3.2213 3.10346,-3.16239 c 0,0 3.50187,-4.06379 5.73651,-6.99885 2.23464,-2.93505 3.80223,-5.50322 3.80223,-5.50322 l 3.60211,-5.83676 c 0,0 2.79202,-5.23993 3.25497,-5.93437 0.46296,-0.69443 0.52609,-1.40991 0.52609,-1.40991 l -1.30469,-0.16834 c 0,0 -1.52836,2.22243 -11.23097,10.0024 -9.70261,7.77997 -16.00707,12.02766 -16.00707,12.02766 0,0 -8.80836,6.25975 -19.18165,9.74732 -10.3733,3.48757 -15.32841,3.29654 -15.32841,3.29654 l -2.85505,0.1143 c 0,0 -25.56819,7.48413 -54.23887,-6.78391 -28.67067,-14.26804 -40.38123,-36.88153 -40.38123,-36.88153 0,0 -8.34546,-17.90235 -12.38358,-44.55396 -4.03813,-26.65162 -9.28769,-61.64869 -9.28769,-61.64869 l -2.53098,-13.63508 -0.21384,-1.71069 -0.52558,-10.88166 -0.0495,-7.97243 c 0,0 -0.0741,-0.30427 0.64032,-1.65916 0.71439,-1.35489 5.51809,-7.19323 5.51809,-7.19323 0,0 3.64589,-3.91687 4.40955,-4.63126 0.76367,-0.7144 1.46955,-1.37394 1.46955,-1.37394 0,0 0.82018,-0.44576 0.82018,-0.24962 0,0.19613 -0.33877,0.7132 -0.33877,0.7132 l -2.19309,3.19157 c 0,0 -1.49772,2.17526 -2.74582,4.52883 -1.24811,2.35356 -2.26442,5.27768 -2.26442,5.27768 0,0 -0.80235,1.81866 -0.85584,4.511 -0.0535,2.69233 0.12481,3.45902 0.12481,3.45902 0,0 -0.0178,0.76669 0.67754,1.12329 0.69537,0.3566 2.13961,0.65971 2.13961,0.65971 0,0 2.83497,0.33878 4.72495,0.19614 1.88998,-0.14264 3.90478,-0.67755 3.90478,-0.67755 l 3.53034,-1.03414 4.29704,-1.49772 6.75758,-2.62101 c 0,0 0.30311,-0.23179 1.30159,-0.78452 0.99848,-0.55273 5.99088,-3.86912 5.99088,-3.86912 l 4.511,-3.04893 5.6908,-4.02606 4.67283,-3.69958 c 0,0 2.8521,-2.57266 3.78592,-3.43573 0.93381,-0.86307 1.75444,-1.64125 1.75444,-1.64125 0,0 0.48105,-0.5235 0.48105,-0.24053 0,0.28297 -0.0283,0.62254 -0.0283,0.62254 0,0 -0.48105,1.78274 -1.24508,3.46644 -0.76403,1.68369 -3.26835,6.94701 -3.26835,6.94701 l -0.9557,1.83703 c 0,0 -1.14767,1.72151 -1.62587,3.00308 -0.4782,1.28157 -0.6886,3.06046 -0.6886,3.06046 0,0 -0.0646,0.6665 0.1968,1.84655 0.26136,1.18006 1.3147,2.51852 1.3147,2.51852 0,0 0.80056,1.23454 3.24014,1.84443 2.43958,0.6099 4.98399,0.36213 4.98399,0.36213 0,0 1.3818,-0.10483 2.07746,-0.17154 0.69566,-0.0667 1.90593,-0.24777 1.90593,-0.24777 l 2.50629,-0.43836 2.897,-0.66707 0.97202,-0.29542 2.77312,-1.01967 3.48785,-1.35321 3.75467,-1.4485 c 0,0 12.40399,-3.81379 24.47129,-9.97314 12.0673,-6.15935 22.62619,-13.57571 22.62619,-13.57571 l 12.3187,-10.05608 c 0,0 1.37559,-0.79667 0.53187,0.3772 -0.84371,1.17386 -3.81506,5.35577 -3.81506,5.35577 0,0 -3.77839,4.8422 -5.28241,6.89647 -1.50402,2.05427 -3.88843,5.0623 -3.88843,5.0623 0,0 -2.16432,2.60452 -1.68744,5.72261 0.47689,3.11808 7.96029,3.11808 7.96029,3.11808 0,0 6.5158,0.65905 12.98184,-1.38577 6.46604,-2.04481 9.33983,-5.52652 9.33983,-5.52652 l 5.58179,-6.52131 3.81331,-5.19493 c 0,0 0.27632,5.58179 0.88424,10.38987 0.60792,4.80808 5.13967,22.38244 5.13967,22.38244 0,0 3.42645,9.00824 7.73714,18.18227 4.31069,9.17404 16.19272,22.21664 16.19272,22.21664 0,0 3.92384,3.31592 6.6871,5.19494 2.76327,1.87902 4.20016,1.87902 4.20016,1.87902 0,0 0.82898,-2.26588 2.8738,-6.07918 2.04481,-3.81331 5.67389,-8.95826 12.84197,-14.09764 7.16808,-5.13938 13.65992,-7.43857 13.65992,-7.43857 0,0 3.85454,-1.69059 11.63123,1.7582 7.77669,3.4488 9.5349,11.42836 9.5349,11.42836 0,0 7.38467,15.1346 1.42334,34.62358 -5.96134,19.48899 -19.03043,26.02353 -19.03043,26.02353 0,0 -11.23482,6.4199 -20.06219,5.61741 -8.82736,-0.80248 -9.17128,-2.40746 -9.17128,-2.40746 0,0 -2.40747,23.38678 -0.22929,36.22658 2.17818,12.83981 5.61742,13.41301 5.61742,13.41301 0,0 2.03424,-0.37523 2.03424,2.48895 0,2.86418 -0.67442,42.04628 -38.961,55.4162 -38.28659,13.36992 -48.41531,-2.22832 -48.41531,-2.22832 0,0 -8.41411,-8.9503 -6.73924,-17.74378 z"
       id="path25" />
    <path
       style="fill:#d83404;fill-opacity:1;stroke:#de2603;stroke-width:0.978;stroke-linecap:round;stroke-linejoin:bevel;stroke-dasharray:none"
       d="m 637.52595,544.1583 c 0,0 -2.2738,5.61534 -0.39101,15.53135 1.88278,9.91601 10.5436,17.57268 10.5436,17.57268 0,0 6.90355,6.40147 23.09551,6.90355 16.19197,0.50207 29.74803,-5.8994 29.74803,-5.8994 0,0 17.82371,-8.28426 26.35901,-19.0789 8.5353,-10.79465 12.80295,-23.97415 12.80295,-23.97415 0,0 2.51038,-8.66082 3.01246,-12.42639 0.50207,-3.76557 0.37655,-5.8994 0.37655,-5.8994 l -6.84214,-2.51518 c 0,0 1.33371,0.40451 0.74726,6.04099 -0.58645,5.63649 -2.02001,11.43587 -2.02001,11.43587 0,0 -1.75937,6.1252 -3.2255,9.38328 -1.46614,3.25808 -3.94228,7.68907 -3.94228,7.68907 0,0 -2.63905,3.68163 -3.97486,5.73423 -1.33582,2.05259 -7.46101,7.72165 -7.46101,7.72165 0,0 -9.52902,8.90647 -27.99268,13.38618 -18.46367,4.4797 -28.39168,1.21073 -28.39168,1.21073 0,0 -9.09677,-1.92188 -14.1615,-10.06296 -5.06472,-8.14107 -4.42694,-12.49299 -4.42694,-12.49299 l 0.39954,-2.86586 z"
       id="path33" />
    <path
       style="fill:#f4805a;fill-opacity:1;stroke:none;stroke-width:0.978;stroke-linecap:round;stroke-linejoin:bevel;stroke-dasharray:none"
       d="m 638.03627,411.51709 c 0,0 -8.15208,2.17389 -7.06513,14.89114 1.08694,12.71725 7.28252,17.6085 7.28252,17.6085 0,0 4.47133,4.23436 9.03836,0.96245 4.56704,-3.2719 5.794,-8.72508 5.794,-8.72508 0,0 1.63596,-7.63445 -1.84044,-15.20073 -3.4764,-7.56628 -9.10477,-10.55197 -13.20931,-9.53628 z"
       id="path29" />
    <path
       style="fill:#fecf38;fill-opacity:1;stroke:none;stroke-width:0.978;stroke-linecap:round;stroke-linejoin:bevel;stroke-dasharray:none"
       d="m 462.8974,590.39968 34.16698,-2.81172 25.59238,2.59216 5.19411,0.21642 -5.08589,8.44042 -50.64252,6.60085 -15.90695,-9.63074 z"
       id="path55"
       sodipodi:nodetypes="cccccccc" />
    <path
       style="fill:#feab00;fill-opacity:1;stroke:none;stroke-width:0.978;stroke-linecap:round;stroke-linejoin:bevel;stroke-dasharray:none"
       d="m 490.1379,599.50073 -1.87747,-1.29076 -35.31997,-2.69887 -7.39255,5.39773 0.46937,37.31479 c 0,0 -0.22671,0.92343 2.51368,1.497 2.74038,0.57357 40.85086,4.97093 40.85086,4.97093 l 4.46109,-11.47138 z"
       id="path54" />
    <path
       style="fill:#fd9d01;fill-opacity:1;stroke:none;stroke-width:0.978;stroke-linecap:round;stroke-linejoin:bevel;stroke-dasharray:none"
       d="m 488.17702,598.33659 37.60072,-7.28338 0.33717,48.88917 -36.68374,4.78777 z"
       id="path53" />
    <path
       style="fill:#f4805a;fill-opacity:1;stroke:none;stroke-width:0.978;stroke-linecap:round;stroke-linejoin:bevel;stroke-dasharray:none"
       d="m 639.4759,379.48247 c 0,0 7.34964,0.68903 10.50769,2.35418 3.15804,1.66515 6.43093,2.58386 6.43093,2.58386 0,0 8.4406,5.22513 10.96704,1.72257 2.52644,-3.50257 0.28709,-6.48836 0.28709,-6.48836 0,0 -2.69869,-4.93803 -18.89086,-8.67027 -16.19217,-3.73224 -25.95341,5.16771 -25.95341,5.16771 0,0 -3.78966,2.29676 -3.9045,5.51223 -0.11483,3.21547 2.81354,3.38772 2.81354,3.38772 0,0 3.73224,-0.34451 5.68448,-2.1245 1.95225,-1.77999 9.87608,-3.50256 12.058,-3.44514 z"
       id="path28" />
    <path
       style="fill:#f4805a;fill-opacity:1;stroke:none;stroke-width:0.978;stroke-linecap:round;stroke-linejoin:bevel;stroke-dasharray:none"
       d="m 552.00902,418.93975 c 0,0 -7.97055,4.95729 -5.3461,15.8439 2.62445,10.8866 8.55375,15.45508 8.55375,15.45508 0,0 3.76233,3.2777 8.19997,0.37406 4.43765,-2.90365 4.71158,-7.34129 4.71158,-7.34129 0,0 1.69836,-6.79344 -2.84886,-15.72351 -4.54722,-8.93008 -8.79011,-9.49168 -13.27034,-8.60824 z"
       id="path30" />
    <path
       style="fill:#f4805a;fill-opacity:1;stroke:none;stroke-width:0.978;stroke-linecap:round;stroke-linejoin:bevel;stroke-dasharray:none"
       d="m 590.53999,422.72093 c 0,0 3.22529,5.41016 1.14446,18.62344 -2.08083,13.21328 -6.03441,16.7507 -6.03441,16.7507 0,0 -7.59503,5.93037 -1.87275,11.65265 5.72229,5.72229 12.90116,3.7455 12.90116,3.7455 0,0 4.34637,-0.3023 5.77568,-1.99961 1.42931,-1.6973 4.28793,-0.71465 5.27059,0.71466 0.98265,1.42931 1.42931,3.75194 -0.98266,6.07456 -2.41196,2.32263 -4.91325,4.4666 -16.97305,3.48395 -12.0598,-0.98265 -16.5264,-14.5611 -16.5264,-14.5611 0,0 -1.07198,-5.71724 2.5013,-10.27316 3.57327,-4.55593 7.14655,-9.46918 7.8612,-16.88373 0.71466,-7.41454 -0.268,-13.57844 -0.268,-13.57844 0,0 -1.16131,-7.14655 1.96531,-7.50388 3.12661,-0.35732 5.23757,3.75446 5.23757,3.75446 z"
       id="path31" />
    <path
       style="fill:#f4805a;fill-opacity:1;stroke:none;stroke-width:0.978;stroke-linecap:round;stroke-linejoin:bevel;stroke-dasharray:none"
       d="m 631.38904,504.21297 c 0,0 6.85522,-1.30013 17.25624,-15.36514 10.40102,-14.06502 3.90038,-15.12876 3.90038,-15.12876 0,0 -5.20051,-1.41832 -6.14606,2.83664 -0.94554,4.25497 -8.8645,13.35586 -16.66526,18.43817 -7.80077,5.08232 -17.8472,5.55509 -17.8472,5.55509 l -13.47405,-1.41832 c 0,0 -4.28872,-0.41652 -4.28872,2.32784 0,2.74435 3.15309,5.13837 3.15309,5.13837 0,0 5.78067,3.85378 16.93328,2.74436 11.1526,-1.10942 17.1783,-5.12825 17.1783,-5.12825 z"
       id="path32" />
    <path
       style="fill:#f4805a;fill-opacity:1;stroke:none;stroke-width:0.978;stroke-linecap:round;stroke-linejoin:bevel;stroke-dasharray:none"
       d="m 544.50118,387.38677 c 0,0 7.79493,-1.78783 13.0869,-0.0715 5.29198,1.71631 8.36704,3.43263 9.51125,2.35993 1.14422,-1.0727 1.21573,-2.64598 0.92968,-4.50533 -0.28606,-1.85934 -3.07507,-5.22046 -12.51481,-8.1525 -9.43973,-2.93204 -20.45276,2.86053 -20.45276,2.86053 0,0 -7.79493,5.79257 -7.93796,9.72579 -0.14303,3.93322 -0.28605,4.3623 1.35875,4.86289 1.6448,0.5006 3.71868,-0.85815 3.71868,-0.85815 0,0 8.22402,-5.9356 12.30027,-6.22165 z"
       id="path27" />
    <path
       style="fill:#c4340b;fill-opacity:1;stroke:none;stroke-width:0.978;stroke-linecap:round;stroke-linejoin:bevel;stroke-dasharray:none"
       d="m 740.66466,443.63822 c 0,0 1.62779,3.12311 5.96335,1.9614 4.33556,-1.16171 8.04479,-6.50582 8.04479,-6.50582 0,0 2.41116,-5.39178 1.00228,-10.64979 -1.40888,-5.25802 -4.90938,-5.40762 -4.90938,-5.40762 0,0 -1.75445,-1.01293 -5.22005,2.28853 -3.46561,3.30146 -4.35673,4.03457 -4.35673,4.03457 z"
       id="path22" />
    <path
       style="fill:#c23310;fill-opacity:1;stroke:none;stroke-width:0.978;stroke-linecap:round;stroke-linejoin:bevel;stroke-dasharray:none"
       d="m 464.31797,589.10232 c 0,0 -1.17832,1.23724 8.18934,-0.70699 9.36767,-1.94423 18.49967,-7.42343 18.49967,-7.42343 0,0 5.18462,-3.88847 6.00944,-8.89634 0.82483,-5.00787 0.11783,-7.12885 0.11783,-7.12885 l -14.78794,-12.25455 z"
       id="path21" />
    <path
       style="fill:#a11900;fill-opacity:1;stroke:none;stroke-width:0.978;stroke-linecap:round;stroke-linejoin:bevel;stroke-dasharray:none"
       d="m 482.16956,553.34024 14.90578,12.66696 0.29458,-1.23724 -15.08253,-13.49179 z"
       id="path20" />
    <path
       style="fill:#0e081e;fill-opacity:1;stroke:#0f0408;stroke-width:0.978;stroke-linecap:round;stroke-linejoin:bevel;stroke-dasharray:none"
       d="m 640.77653,377.88851 c 0,0 12.80096,2.7059 16.65165,5.09957 3.8507,2.39368 6.24437,2.49775 6.24437,2.49775 0,0 2.2896,0.72851 2.80997,-1.56109 0.52036,-2.28961 -1.56109,-4.57921 -1.56109,-4.57921 0,0 -6.24437,-6.86881 -22.06345,-7.70139 -15.81907,-0.83258 -22.58381,9.15841 -22.58381,9.15841 0,0 -1.1448,3.33033 1.14481,3.01811 2.2896,-0.31221 6.55659,-3.22625 8.95026,-3.85069 2.39368,-0.62444 7.59732,-2.08146 10.40729,-2.08146 z"
       id="path1" />
    <path
       style="fill:#13091c;fill-opacity:1;stroke:#0a0001;stroke-width:0.978;stroke-linecap:round;stroke-linejoin:bevel;stroke-dasharray:none"
       d="m 532.60593,391.11787 c 0,0 8.51837,-6.12907 15.79015,-5.71354 7.27178,0.41553 10.49214,0.51941 13.0892,1.766 2.59706,1.24659 5.40189,2.49318 5.29801,0.51941 -0.10388,-1.97376 -1.14271,-3.532 -1.14271,-3.532 0,0 -5.09024,-6.23296 -16.62121,-6.23296 -11.53096,0 -17.55615,7.1679 -17.55615,7.1679 0,0 -3.22036,4.98636 -3.0126,7.37566 0.20777,2.3893 4.15531,-1.35047 4.15531,-1.35047 z"
       id="path2" />
    <path
       style="fill:#13091c;fill-opacity:1;stroke:#0a0001;stroke-width:0.978;stroke-linecap:round;stroke-linejoin:bevel;stroke-dasharray:none"
       d="m 553.28012,420.55566 c 0,0 -5.36844,2.06479 -5.28585,9.49802 0.0826,7.43323 3.71661,13.545 3.71661,13.545 0,0 3.71662,8.34173 9.41543,6.27695 5.69881,-2.06479 5.28585,-5.61622 5.28585,-5.61622 0,0 2.39515,-4.8729 -1.56924,-13.87537 -3.96439,-9.00246 -8.34173,-10.32393 -11.5628,-9.82838 z"
       id="path3" />
    <path
       style="fill:#13091c;fill-opacity:1;stroke:#0a0001;stroke-width:0.978;stroke-linecap:round;stroke-linejoin:bevel;stroke-dasharray:none"
       d="m 638.85221,413.02901 c 0,0 -7.79434,2.55087 -5.45604,17.2184 2.3383,14.66752 10.13264,14.38409 10.13264,14.38409 0,0 3.11773,-0.63772 5.17261,-2.76345 2.05487,-2.12573 3.68459,-5.73946 2.90516,-12.75437 -0.77944,-7.0149 -6.30633,-13.39208 -6.30633,-13.39208 0,0 -2.12573,-3.61374 -6.44804,-2.69259 z"
       id="path4" />
    <path
       style="fill:#13091c;fill-opacity:1;stroke:#0a0001;stroke-width:0.978;stroke-linecap:round;stroke-linejoin:bevel;stroke-dasharray:none"
       d="m 590.3286,440.36654 c 0,0 -1.45595,14.33543 -7.95169,19.48723 -6.49574,5.15179 1.90392,12.09552 1.90392,12.09552 0,0 4.59182,4.36783 10.86357,3.47186 6.27176,-0.89596 8.28768,-2.68789 8.28768,-2.68789 0,0 5.15179,-1.23195 3.91984,2.5759 -1.23195,3.80784 -9.29563,5.37578 -9.29563,5.37578 0,0 -10.97557,1.56794 -17.35931,-4.59182 -6.38375,-6.15975 -5.71178,-11.53554 -5.71178,-11.53554 0,0 -0.89596,-4.81581 2.5759,-7.5037 3.47186,-2.68789 7.05572,-10.30359 7.39171,-14.22344 0.33598,-3.91984 0.55998,-14.67142 0.55998,-14.67142 l -1.11996,-5.82376 c 0,0 1.79193,-4.59182 4.03184,-0.55998 2.23991,4.03184 3.02388,13.77545 1.90393,18.59126 z"
       id="path5" />
    <path
       style="fill:#13091c;fill-opacity:1;stroke:#0a0001;stroke-width:0.978;stroke-linecap:round;stroke-linejoin:bevel;stroke-dasharray:none"
       d="m 740.29792,441.52249 c 0,0 1.29573,-0.32394 1.29573,-3.23935 0,-2.9154 3.02339,-13.17332 7.55847,-19.86797 4.53508,-6.69464 10.58186,-5.61486 10.58186,-5.61486 0,0 4.64305,1.29574 5.29092,0.21596 0.64787,-1.07978 1.83563,-3.13137 -0.53989,-4.85902 -2.37552,-1.72765 -12.63344,0.43191 -12.63344,0.43191 0,0 -8.8542,5.72284 -11.66163,14.46907 -2.80743,8.74623 -2.26754,17.38448 -2.26754,17.38448 0,0 1.07978,2.37552 2.37552,1.07978 z"
       id="path6" />
    <path
       style="fill:#13091c;fill-opacity:1;stroke:#0a0001;stroke-width:0.978;stroke-linecap:round;stroke-linejoin:bevel;stroke-dasharray:none"
       d="m 637.99773,543.41981 c 0,0 18.62232,1.31969 41.93688,-16.12957 23.31456,-17.44926 23.31456,-19.35548 23.31456,-19.35548 0,0 -8.50468,18.47569 -22.1415,30.35292 -13.63682,11.87722 -21.2617,14.36998 -21.2617,14.36998 0,0 -6.74509,1.31969 -13.49019,0 -6.74509,-1.3197 -8.06478,-4.25234 -8.06478,-4.25234 0,0 -2.19949,-3.07929 -0.29327,-4.98551 z"
       id="path7" />
    <path
       style="fill:#13091c;fill-opacity:1;stroke:#0a0001;stroke-width:0.978;stroke-linecap:round;stroke-linejoin:bevel;stroke-dasharray:none"
       d="m 432.7469,547.37023 c 0,0 -2.86957,5.26088 -2.31159,15.86234 0.55797,10.60146 3.58696,14.74639 3.58696,14.74639 l 3.98551,4.30436 4.54348,-16.65944 c 0,0 6.53624,-19.05075 6.85508,-21.68119 0.31884,-2.63044 0.47826,-3.50725 0.47826,-3.50725 0,0 2.15218,-3.1087 2.07247,0.0797 -0.0797,3.18841 -1.19565,10.9203 -1.19565,10.9203 l -9.08697,30.52903 c 0,0 -6.13769,12.91305 3.26812,15.22465 9.40581,2.3116 16.18118,-9.56523 16.18118,-9.56523 l 19.36959,-41.2899 c 0,0 2.94928,-5.02175 3.9058,-5.02175 0.95652,0 0.47826,4.22464 0.47826,4.22464 l -2.78986,7.97103 -15.54349,31.72468 c 0,0 -5.18117,14.42755 -14.98553,15.54349 -9.80436,1.11595 -14.58697,-4.46377 -14.58697,-4.46377 0,0 -1.43479,-3.74638 -1.11595,-5.81885 0.31884,-2.07247 0.23913,-3.66667 0.23913,-3.66667 0,0 -6.77537,-5.26088 -8.68841,-15.30437 -1.91305,-10.04349 0,-16.89857 0,-16.89857 0,0 1.43478,-4.30435 3.34783,-6.37682 1.91304,-2.07246 1.99275,-0.87681 1.99275,-0.87681 z"
       id="path8" />
    <path
       style="fill:#13091c;fill-opacity:1;stroke:#0a0001;stroke-width:0.978;stroke-linecap:round;stroke-linejoin:bevel;stroke-dasharray:none"
       d="m 587.18075,601.50936 c 0,0 -3.65526,11.40441 -0.87727,28.65723 2.778,17.25282 7.89536,35.82153 7.89536,35.82153 l 4.82494,4.53252 -8.91883,-64.18634 c 0,0 -0.73105,-5.84841 -2.9242,-4.82494 z"
       id="path9" />
    <path
       style="fill:#13091c;fill-opacity:1;stroke:#0a0001;stroke-width:0.978;stroke-linecap:round;stroke-linejoin:bevel;stroke-dasharray:none"
       d="m 757.18673,614.89082 3.06724,17.13957 6.89052,41.44298 5.79203,23.46771 26.164,-3.1956 31.55659,-2.29684 38.74668,0.69904 1.49794,4.69354 -26.66331,-0.19972 -24.46634,0.0999 -43.83968,4.29409 c 0,0 -6.39121,2.59643 -7.38983,-1.99725 -0.99863,-4.59368 -9.38709,-47.33487 -9.38709,-47.33487 l -4.19422,-35.85068 c 0,0 1.75465,-7.21639 2.22547,-0.96183 z"
       id="path10" />
    <path
       style="fill:#13091c;fill-opacity:1;stroke:#0a0001;stroke-width:0.978;stroke-linecap:round;stroke-linejoin:bevel;stroke-dasharray:none"
       d="m 713.22876,753.26514 c 0,0 -9.05445,0.43258 -21.89913,-4.27714 -12.84469,-4.70972 -24.40491,-9.99031 -24.40491,-9.99031 0,0 -12.13109,-5.99419 -28.25831,-1.71263 -16.12722,4.28157 -29.54278,12.41654 -29.54278,12.41654 0,0 -13.99393,9.12415 -19.75717,22.47059 -5.76323,13.34643 0.60666,18.4019 0.60666,18.4019 0,0 1.61775,1.71886 2.32551,1.71886 0.70777,0 0.90999,0.30333 1.81997,-2.72995 0.90999,-3.03329 0.20222,-8.08875 10.41427,-19.31189 10.21204,-11.22314 25.07512,-18.60412 25.07512,-18.60412 0,0 6.57211,-2.83107 6.87543,-1.51664 0.30333,1.31442 -2.12329,2.42662 -2.12329,2.42662 0,0 -15.46973,9.09984 -23.65959,17.59303 -8.18986,8.49318 -12.23424,17.49192 -12.23424,17.49192 0,0 -1.21331,6.16767 -1.01109,7.48209 0.20222,1.31442 3.63994,3.53883 3.63994,3.53883 0,0 5.94285,2.91105 6.90386,0.94327 0.96101,-1.96779 2.37965,-6.17792 2.37965,-6.17792 0,0 2.83726,-5.44573 13.95752,-13.95753 11.12026,-8.5118 22.01171,-13.91177 22.01171,-13.91177 0,0 6.04063,-3.24912 7.23046,-3.47794 1.18982,-0.22881 1.05253,0.96101 1.05253,0.96101 0,0 0.0915,0.91525 -4.66776,3.75252 -4.75929,2.83727 -24.80321,16.84056 -24.80321,16.84056 0,0 -8.74062,7.27621 -10.89145,11.3033 -2.15083,4.02709 -2.51693,5.49149 -2.51693,5.49149 0,0 -0.13729,0.68644 0.91525,1.14406 1.05253,0.45762 6.95588,1.00677 6.95588,1.00677 0,0 4.66776,0.18305 7.59655,-0.7322 2.9288,-0.91524 11.76094,-5.03386 11.76094,-5.03386 l 19.63206,-9.88467 5.76606,-2.83727 c 0,0 2.97455,-0.82372 3.1576,0.22881 0.18305,1.05254 -0.91525,2.24236 -0.91525,2.24236 0,0 -16.61174,11.02873 -23.56762,13.95753 -6.95588,2.92879 -23.66425,7.47429 -37.48402,5.10519 -13.81976,-2.36911 -23.16456,-18.03151 -23.16456,-18.03151 0,0 -1.31617,-3.9485 1.18455,-9.21317 2.50072,-5.26468 6.9757,-13.03007 6.9757,-13.03007 0,0 4.86982,-11.05581 27.11306,-25.13881 22.24324,-14.083 50.67247,-6.44923 50.67247,-6.44923 0,0 36.98433,12.37198 38.95858,13.03007 1.97426,0.65808 6.25252,3.98162 6.38638,4.45014 0.13387,0.46853 -0.4664,2.02117 -0.4664,2.02117 z"
       id="path11" />
    <path
       style="fill:#13091c;fill-opacity:1;stroke:#0a0001;stroke-width:0.978;stroke-linecap:round;stroke-linejoin:bevel;stroke-dasharray:none"
       d="m 220.12646,541.03029 29.41304,0.65991 c 0,0 2.35681,-0.37709 1.97972,-2.26254 -0.37709,-1.88545 -5.75062,-1.13127 -5.75062,-1.13127 l -25.73642,-0.37709 c 0,0 -1.97972,-0.65991 -1.97972,1.60263 0,2.26255 2.074,1.50836 2.074,1.50836 z"
       id="path12" />
    <path
       style="fill:#13091c;fill-opacity:1;stroke:#0a0001;stroke-width:0.978;stroke-linecap:round;stroke-linejoin:bevel;stroke-dasharray:none"
       d="m 220.88064,569.02925 17.15761,-8.67308 7.73035,-3.95945 c 0,0 4.24226,-1.13127 3.86517,0.94273 -0.37709,2.074 -11.40698,7.25899 -11.40698,7.25899 l -20.36287,11.59552 c 0,0 -3.20527,1.31982 -3.48809,-0.6599 -0.28282,-1.97973 3.86518,-4.33654 3.86518,-4.33654 z"
       id="path13" />
    <path
       style="fill:#13091c;fill-opacity:1;stroke:#0a0001;stroke-width:0.978;stroke-linecap:round;stroke-linejoin:bevel;stroke-dasharray:none"
       d="m 260.32568,508.63016 c 0,0 1.41384,-5.51383 3.3976,-7.26421 1.98375,-1.75037 5.83458,-0.58346 5.83458,-0.58346 0,0 3.5591,1.57534 5.36782,3.44241 1.80872,1.86707 3.03398,3.15068 3.03398,3.15068 0,0 2.56722,1.05022 2.74226,-0.40843 0.17504,-1.45864 -0.11669,-3.09233 -0.11669,-3.09233 0,0 -3.67579,-8.05172 -10.09384,-9.21864 -6.41804,-1.16692 -10.15217,2.45052 -10.15217,2.45052 0,0 -3.15068,2.39219 -3.61745,5.42617 -0.46676,3.03398 0.17504,8.86857 0.17504,8.86857 0,0 0.52511,2.74226 1.92541,2.1588 1.4003,-0.58346 1.34196,-3.20903 1.34196,-3.20903 z"
       id="path14" />
    <path
       style="fill:#13091c;fill-opacity:1;stroke:#0a0001;stroke-width:0.978;stroke-linecap:round;stroke-linejoin:bevel;stroke-dasharray:none"
       d="m 329.44295,492.15469 c 0,0 1.46866,-2.86002 2.08704,-6.57031 0.61838,-3.71029 3.01461,-6.10652 4.94706,-5.87463 1.93244,0.23189 3.94218,1.77785 3.94218,1.77785 0,0 2.24163,1.85514 2.86002,3.78759 0.61838,1.93244 1.62325,3.94218 3.09191,3.4011 1.46865,-0.54109 2.16433,-3.4011 2.16433,-3.4011 0,0 1.23677,-3.09191 -2.70542,-8.42546 -3.94218,-5.33354 -10.82168,-3.71029 -10.82168,-3.71029 0,0 -7.0341,3.16921 -7.88437,9.35303 -0.85028,6.18382 -0.61838,10.82168 -0.61838,10.82168 0,0 -0.46379,2.08704 1.15946,1.54596 1.62326,-0.54109 1.77785,-2.70542 1.77785,-2.70542 z"
       id="path15" />
    <path
       style="fill:#13091c;fill-opacity:1;stroke:#0a0001;stroke-width:0.978;stroke-linecap:round;stroke-linejoin:bevel;stroke-dasharray:none"
       d="m 370.77434,503.61618 29.00228,-11.14597 11.82839,-3.18457 c 0,0 2.38842,-1.25108 1.47854,-3.2983 -0.90987,-2.04722 -6.59659,-0.22747 -6.59659,-0.22747 l -36.84997,14.21681 c 0,0 -3.18456,2.16096 -2.38842,3.86697 0.79614,1.70602 3.52577,-0.22747 3.52577,-0.22747 z"
       id="path16" />
    <path
       style="fill:#13091c;fill-opacity:1;stroke:#0a0001;stroke-width:0.978;stroke-linecap:round;stroke-linejoin:bevel;stroke-dasharray:none"
       d="m 373.36558,518.31331 37.20347,-2.47178 c 0,0 2.15488,-0.44365 1.77461,-2.47178 -0.38028,-2.02812 -7.5421,-1.52109 -7.5421,-1.52109 l -34.28803,2.78867 c 0,0 -2.15489,1.01407 -1.71123,2.53516 0.44365,1.5211 4.56328,1.14082 4.56328,1.14082 z"
       id="path17" />
    <path
       style="fill:#13091c;fill-opacity:1;stroke:#0a0001;stroke-width:0.978;stroke-linecap:round;stroke-linejoin:bevel;stroke-dasharray:none"
       d="m 320.60779,531.60977 c 0,0 3.60071,6.5533 1.15223,11.59431 -2.44849,5.041 -7.70554,8.49769 -11.30625,8.78574 -3.60072,0.28806 -8.56971,-0.21604 -12.38647,-2.95258 -3.81676,-2.73655 -5.5451,-8.13762 -5.5451,-8.13762 0,0 -1.5123,-3.60072 -3.45669,-1.94439 -1.94438,1.65633 -1.08021,4.96899 -1.08021,4.96899 0,0 2.16043,8.42568 14.18682,12.24244 12.02639,3.81675 19.01178,-2.80856 19.01178,-2.80856 0,0 3.74475,-4.03281 3.81676,-5.25705 0.072,-1.22424 0.64813,-1.65633 1.87237,-0.86417 1.22425,0.79216 7.56151,3.38467 12.74654,-0.72014 5.18503,-4.10482 7.34546,-7.20144 7.34546,-7.20144 0,0 2.0164,-4.24884 1.94439,-10.15402 -0.072,-5.90517 -2.5205,-5.83316 -2.5205,-5.83316 0,0 -2.44849,-0.5041 -2.80856,1.72835 -0.36007,2.23244 1.58431,11.0902 -3.31266,14.83495 -4.89697,3.74474 -9.14582,2.37647 -9.14582,2.37647 0,0 -3.0246,-0.36007 -3.5287,-4.82496 -0.5041,-4.46489 -0.72015,-7.34546 -0.72015,-7.34546 0,0 3.31266,-5.11302 3.38468,-6.40928 0.072,-1.29625 1.29626,-11.81035 1.29626,-11.81035 0,0 0.072,-2.30445 -2.80856,-1.94438 -2.88058,0.36007 -21.6043,4.0328 -21.6043,4.0328 0,0 -2.23245,0.79216 -1.72834,3.09662 0.5041,2.30445 3.31265,7.48949 6.0492,10.15402 2.73654,2.66453 4.46489,3.38467 6.33726,3.45668 1.87237,0.072 2.44849,0.21605 2.80856,0.93619 z"
       id="path18" />
    <path
       style="fill:#13091c;fill-opacity:1;stroke:#0a0001;stroke-width:0.978;stroke-linecap:round;stroke-linejoin:bevel;stroke-dasharray:none"
       d="m 725.01577,414.33106 c 0,0 2.67065,-10.68257 15.89668,-20.0934 13.22604,-9.41083 17.93146,-7.88475 17.93146,-7.88475 0,0 5.08694,0 8.77497,3.05216 3.68803,3.05216 4.64023,4.14196 4.64023,4.14196 0,0 9.93552,-26.33115 8.69493,-54.24452 -1.2406,-27.91337 -15.30066,-50.86436 -15.30066,-50.86436 0,0 -5.37591,-10.33829 -16.95479,-16.33449 -11.57888,-5.99621 -13.31742,-5.8352 -13.31742,-5.8352 l 16.5356,-6.56893 c 0,0 1.47235,-1.01932 3.17122,-1.01932 1.69886,0 3.85075,0.11326 3.85075,0.11326 0,0 0.11326,-2.1519 -9.51363,-2.71818 -9.62689,-0.56629 -16.19583,1.13257 -16.19583,1.13257 l -3.85075,1.58561 c 0,0 -1.09546,1.23901 -1.99212,-1.70717 -0.89666,-2.94619 -4.54605,-15.23709 -10.2614,-21.40365 -5.71534,-6.16655 -9.32503,-7.67059 -9.32503,-7.67059 0,0 6.61312,10.53021 7.64011,15.29172 1.02699,4.76151 1.77389,11.67037 1.77389,11.67037 0,0 -0.0515,2.17282 -1.9659,-0.0231 -1.91438,-2.19591 -17.67578,-19.8971 -41.78388,-27.04024 -24.1081,-7.14314 -52.01099,-2.9019 -52.01099,-2.9019 0,0 -31.02802,6.91992 -52.23421,18.97397 -21.2062,12.05405 -41.51951,28.34934 -41.51951,28.34934 l -22.49423,17.92074 c 0,0 -10.44439,6.56986 -14.48738,10.61285 -4.04299,4.04299 -6.73832,6.23294 -6.73832,6.23294 0,0 4.21145,4.88528 10.44439,7.41215 6.23294,2.52687 13.70537,4.20819 13.70537,4.20819 0,0 -9.56158,9.78923 -13.77322,18.44018 -4.21165,8.65095 -3.07337,16.39127 -3.07337,16.39127 0,0 1.47977,5.2361 5.80524,6.0329 4.32548,0.79679 9.22009,0 9.22009,0 0,0 1.10365,0.002 1.02568,1.71739 -0.078,1.71528 -0.83698,15.00397 5.17188,27.89798 6.00886,12.89401 10.46107,17.14984 10.46107,17.14984 l -4.61854,-28.371 c 0,0 -0.90721,-17.31951 -0.49484,-19.71125 0.41237,-2.39174 8.8247,-11.71129 8.8247,-11.71129 l 3.4639,-3.21648 c 0,0 2.47422,-1.15463 1.64948,0.57732 -0.82474,1.73195 -5.3608,7.01027 -7.34017,13.19581 -1.97938,6.18554 -0.65979,8.57728 -0.65979,8.57728 0,0 2.06184,1.23711 7.09275,0.90722 5.0309,-0.3299 18.06177,-5.77317 18.06177,-5.77317 0,0 16.65972,-10.63913 21.60815,-15.09272 4.94843,-4.45359 5.44327,-4.86596 5.44327,-4.86596 0,0 2.14432,-2.22679 1.73195,0.41237 -0.41237,2.63917 -5.60822,12.70098 -5.60822,12.70098 0,0 -4.53606,6.02059 -0.49484,9.97933 4.04122,3.95875 17.6494,-0.0825 17.6494,-0.0825 0,0 22.76279,-8.41233 35.71118,-15.09272 12.94839,-6.68038 23.0102,-13.8556 23.0102,-13.8556 l 9.23708,-7.34018 c 0,0 4.28864,-3.29895 2.80411,-0.24742 -1.48453,3.05154 -11.95871,16.32983 -11.95871,16.32983 0,0 -4.12369,5.19585 -2.30927,7.17522 1.81442,1.97937 6.84533,1.81443 6.84533,1.81443 0,0 14.5154,1.48452 21.85557,-6.51544 7.34017,-7.99996 9.64944,-11.87623 9.64944,-11.87623 0,0 0.98969,-1.48453 0.98969,0.24742 0,1.73195 0.96632,26.70381 14.40331,51.47002 13.43698,24.7662 25.50218,28.3471 25.50218,28.3471 z"
       id="path19" />
    <path
       style="fill:#ba3410;fill-opacity:1;stroke:#ae2702;stroke-width:0.978;stroke-linecap:round;stroke-linejoin:bevel;stroke-dasharray:none"
       d="m 538.67136,609.77764 c 0,0 8.06147,25.01122 8.99164,28.11178 0.93017,3.10057 3.82403,12.71231 3.82403,12.71231 0,0 3.61733,6.40784 4.03073,7.02795 0.41341,0.62011 1.65364,-4.44414 1.65364,-4.44414 0,0 -1.24023,-12.60896 -3.61733,-22.11736 -2.3771,-9.5084 -8.47487,-15.08941 -8.47487,-15.08941 z"
       id="path23" />
    <path
       style="fill:#fb6127;fill-opacity:1;stroke:#e4784c;stroke-width:0.978;stroke-linecap:round;stroke-linejoin:bevel;stroke-dasharray:none"
       d="m 435.44861,587.21449 -0.17565,2.72265 c 0,0 -5.89002,2.07894 -12.12354,-0.39201 -6.23353,-2.47094 -8.42368,-12.01778 -8.42368,-12.01778 0,0 -1.17932,-10.05225 0.11231,-14.76951 1.29163,-4.71726 4.49263,-12.52321 4.49263,-12.52321 0,0 7.13205,-10.16457 12.63552,-15.21877 5.50347,-5.05421 16.77745,-12.19983 16.77745,-12.19983 0,0 12.77289,-7.76357 32.57614,-7.76357 19.80326,0 29.20141,14.93635 29.20141,14.93635 0,0 9.06251,13.25811 13.76159,30.37618 4.69908,17.11807 14.43288,49.17249 14.43288,49.17249 l 11.24422,24.83798 5.84018,5.3011 c 0,0 7.19482,18.74441 9.46687,27.5486 2.27205,8.80419 4.63877,17.60838 4.63877,17.60838 0,0 -6.62681,8.52018 -23.0045,8.70952 -16.37769,0.18934 -27.8326,-14.10564 -27.8326,-14.10564 0,0 -7.81898,-12.91198 -11.02055,-22.91686 -3.20156,-10.00489 -3.77097,-13.83222 -3.77097,-13.83222 l 21.83057,-2.62692 -0.27175,-49.2773 -16.30499,-1.44933 c 0,0 -9.23949,-21.55882 -10.05474,-22.64582 -0.81525,-1.087 -4.01355,-3.94471 -4.01355,-3.94471 l -12.14183,-10.89651 2.2369,-6.19323 c 0,0 0.64914,-4.27067 -0.61498,-4.91981 -1.26411,-0.64914 -2.59656,1.60577 -2.59656,1.60577 l -2.5624,3.65569 -17.35599,37.10355 c 0,0 -2.97238,7.41388 -8.19968,11.17207 -5.22729,3.75818 -9.70295,2.01575 -9.70295,2.01575 0,0 -3.07488,-0.71747 -3.89485,-4.06567 -0.81997,-3.34821 0.85413,-8.06302 0.85413,-8.06302 l 1.36662,-3.75819 4.33899,-14.17861 3.79235,-12.64117 0.64915,-2.90406 0.44414,-3.4507 0.64915,-7.14055 c 0,0 -0.0342,-1.84493 -1.29829,-1.70827 -1.26411,0.13667 -2.22074,1.81077 -2.22074,1.81077 l -0.71747,4.54399 -6.03453,18.36823 -4.7479,17.89206 c 0,0 -2.97939,-2.91923 -3.66623,-4.37371 -0.68683,-1.45447 -1.8989,-5.49468 -1.8989,-5.49468 0,0 -0.96965,-5.89871 -1.09085,-9.41369 -0.12121,-3.51498 0.60603,-8.28243 0.60603,-8.28243 l 0.56563,-2.62614 1.13126,-3.27256 c 0,0 0.16161,-1.45448 -1.01006,-1.29287 -1.17166,0.16161 -2.18171,1.45447 -2.18171,1.45447 0,0 -5.30627,4.94446 -4.40216,15.79374 0.9041,10.84928 2.57043,13.65062 2.57043,13.65062 0,0 1.65559,4.10192 4.20076,6.99303 2.54517,2.89111 2.91852,3.08636 2.91852,3.08636 z"
       id="path24" />
    <path
       style="fill:#0b0c20;fill-opacity:1;stroke:#140002;stroke-width:0.978;stroke-linecap:round;stroke-linejoin:bevel;stroke-dasharray:none"
       d="m 623.54716,506.04948 c 0,0 13.49138,-4.98772 20.35972,-13.24608 6.86834,-8.25836 7.84953,-11.2837 7.84953,-11.2837 0,0 2.20768,-4.00653 0.65413,-5.80538 -1.55355,-1.79886 -4.0883,0.0818 -4.0883,0.0818 0,0 -2.91083,9.84609 -12.01959,16.68026 -13.0444,9.78704 -18.22053,9.19846 -18.22053,9.19846 0,0 -9.41636,1.10405 -14.15879,0.28639 -4.74243,-0.81766 -8.58543,-1.79885 -8.50366,0 0.0818,1.79885 5.88715,4.17006 5.88715,4.17006 0,0 3.44435,2.04923 11.85606,1.63532 7.03686,-0.34626 10.38428,-1.71709 10.38428,-1.71709 z"
       id="path26"
       sodipodi:nodetypes="cscscscsscscc" />
    <path
       style="fill:#b02f11;fill-opacity:1;stroke:#aa2a02;stroke-width:0.978;stroke-linecap:round;stroke-linejoin:bevel;stroke-dasharray:none"
       d="m 322.00297,584.88407 c 0,0 -15.83622,10.25584 -46.00043,9.20009 -30.16421,-1.05575 -39.96758,-7.8427 -39.96758,-7.8427 0,0 -3.92135,-1.50821 -2.26232,1.05575 1.65904,2.56396 16.74114,14.02636 39.51512,18.40017 22.77398,4.37381 43.43647,-4.22299 43.43647,-4.22299 l 8.74762,-4.07217 c 0,0 -1.96067,-10.40665 -3.46888,-12.51815 z"
       id="path37" />
    <path
       style="fill:#b02f11;fill-opacity:1;stroke:#aa2a02;stroke-width:0.978;stroke-linecap:round;stroke-linejoin:bevel;stroke-dasharray:none"
       d="m 198.88913,472.73175 c 0,0 6.45919,-8.34311 11.70728,-13.9949 5.24809,-5.65179 13.18751,-12.64924 13.18751,-12.64924 0,0 -16.95537,-13.86034 -26.10588,-18.30103 -9.15052,-4.4407 -9.15052,-4.4407 -9.15052,-4.4407 0,0 -1.61479,-0.80739 -3.09503,4.037 -1.48023,4.84439 -0.94196,11.97641 3.76786,25.70218 4.70983,13.72577 9.68878,19.64669 9.68878,19.64669 z"
       id="path38" />
    <path
       style="fill:#b02f11;fill-opacity:1;stroke:#aa2a02;stroke-width:0.978;stroke-linecap:round;stroke-linejoin:bevel;stroke-dasharray:none"
       d="m 328.92912,416.37592 c 0,0 2.96726,-17.97809 4.88725,-23.73805 1.91999,-5.75997 5.58542,-12.9163 5.58542,-12.9163 0,0 -0.34909,-2.44362 -2.35635,-0.87272 -2.00726,1.5709 -11.43266,12.47993 -15.18537,25.22168 -3.75271,12.74175 -2.44362,14.31265 -2.44362,14.31265 l 3.1418,1.5709 c 0,0 7.94177,1.04727 12.74175,3.40362 4.79997,2.35635 6.8945,3.75271 6.8945,3.75271 0,0 -8.11632,-10.29813 -13.26538,-10.73449 z"
       id="path39" />
    <path
       style="fill:#b02f11;fill-opacity:1;stroke:#aa2a02;stroke-width:0.978;stroke-linecap:round;stroke-linejoin:bevel;stroke-dasharray:none"
       d="m 184.22348,527.51816 c 0,0 2.03937,11.78305 6.57132,19.03416 4.53194,7.2511 11.66975,15.4086 11.66975,15.4086 0,0 1.58618,2.49257 -0.45319,2.83247 -2.03938,0.33989 -5.66493,-2.37927 -5.66493,-2.37927 0,0 -10.08358,-9.40379 -11.66976,-15.63521 -1.58618,-6.23142 -4.64524,-16.31499 -4.64524,-16.31499 0,0 3.05906,-2.26597 4.19205,-2.94576 z"
       id="path40" />
    <path
       style="fill:#b02f11;fill-opacity:1;stroke:#aa2a02;stroke-width:0.978;stroke-linecap:round;stroke-linejoin:bevel;stroke-dasharray:none"
       d="m 201.57381,809.1699 3.65865,-3.04887 c 0,0 0.78399,-5.7493 -4.70397,-13.41503 -5.48797,-7.66572 -8.10129,-3.74575 -8.10129,-3.74575 0,0 -0.17422,0.52266 1.13244,1.91643 1.30666,1.39377 9.40794,12.02126 8.01417,18.29322 z"
       id="path41" />
    <path
       style="fill:#b02f11;fill-opacity:1;stroke:#aa2a02;stroke-width:0.978;stroke-linecap:round;stroke-linejoin:bevel;stroke-dasharray:none"
       d="m 192.60143,812.82854 c 0,0 1.82932,-4.00708 -4.18131,-13.15369 -6.01063,-9.14661 -8.71106,-7.66573 -8.71106,-7.66573 0,0 -2.35198,0 -0.43555,1.82932 1.91643,1.82932 6.88173,8.2755 7.31729,12.97947 0.43555,4.70397 0.69688,7.4044 0.69688,7.4044 0,0 3.91998,-0.87111 5.31375,-1.39377 z"
       id="path42" />
    <path
       style="fill:#b02f11;fill-opacity:1;stroke:#aa2a02;stroke-width:0.978;stroke-linecap:round;stroke-linejoin:bevel;stroke-dasharray:none"
       d="m 259.62603,807.90459 c 0,0 0.80629,-10.64305 -1.04818,-16.44835 -1.85447,-5.80531 -4.43461,-5.07964 -4.43461,-5.07964 l 0.0806,3.46705 c 0,0 1.04818,9.03047 0.40315,12.57816 -0.64504,3.54768 -0.24189,5.48278 -0.24189,5.48278 z"
       id="path43" />
    <path
       style="fill:#b02f11;fill-opacity:1;stroke:#aa2a02;stroke-width:0.978;stroke-linecap:round;stroke-linejoin:bevel;stroke-dasharray:none"
       d="m 269.69042,806.83513 5.0821,-1.69404 -0.13552,-7.65704 c 0,0 -2.16836,-7.04719 -4.13345,-9.14779 -1.96508,-2.1006 -3.3203,-3.65912 -3.3203,-3.65912 0,0 -2.03285,-1.2197 -2.30389,1.01643 -0.27105,2.23612 1.55851,4.74329 1.55851,4.74329 0,0 3.18479,5.01435 3.11702,7.45376 -0.0678,2.43941 0.13553,8.94451 0.13553,8.94451 z"
       id="path44" />
    <path
       style="fill:#b02f11;fill-opacity:1;stroke:#aa2a02;stroke-width:0.978;stroke-linecap:round;stroke-linejoin:bevel;stroke-dasharray:none"
       d="m 313.63111,799.88303 c 0,0 1.55762,-5.13098 -0.0916,-12.73582 -1.64925,-7.60485 -8.15459,-8.42947 -8.15459,-8.42947 0,0 -4.76449,0.45812 -4.48961,2.19899 0.27487,1.74087 3.66498,1.92412 3.66498,1.92412 0,0 2.29062,-0.82462 3.11524,1.83249 0.82462,2.65712 1.92412,8.33784 1.19112,11.26983 -0.733,2.93199 -2.01574,6.13885 -2.01574,6.13885 0,0 5.86398,-1.19112 6.78022,-2.19899 z"
       id="path45" />
    <path
       style="fill:#b02f11;fill-opacity:1;stroke:#aa2a02;stroke-width:0.978;stroke-linecap:round;stroke-linejoin:bevel;stroke-dasharray:none"
       d="m 280.55788,797.03426 c 0,0 0,-5.56573 -2.83966,-10.10918 -2.83965,-4.54344 -10.22276,-13.85751 -10.22276,-13.85751 l -1.93096,-35.21172 -2.95324,-50.88661 -0.90869,-17.2651 c 0,0 0.11358,-3.294 1.47662,-2.83965 1.36303,0.45434 2.27172,4.0891 2.27172,4.0891 l 1.93097,25.10255 1.70379,20.5591 c 0,0 1.47662,1.47662 4.99779,-1.7038 3.52117,-3.18041 19.30965,-16.81075 22.14931,-20.5591 2.83965,-3.74834 12.26731,-16.58358 16.24282,-23.28516 3.97552,-6.70159 4.42986,-8.85973 4.42986,-8.85973 0,0 -1.47662,13.63035 -2.83965,16.24283 -1.36303,2.61248 -8.74614,17.15151 -17.49227,26.01123 -8.74614,8.85973 -22.94441,19.53683 -22.94441,19.53683 l 2.38531,42.93558 c 0,0 1.13586,7.49668 4.20269,12.60806 3.06682,5.11138 6.588,10.90428 6.588,13.28959 0,2.38531 -0.22718,4.54344 -0.22718,4.54344 z"
       id="path46" />
    <path
       style="fill:#b02f11;fill-opacity:1;stroke:#aa2a02;stroke-width:0.978;stroke-linecap:round;stroke-linejoin:bevel;stroke-dasharray:none"
       d="m 165.96042,779.41011 c 0,0 1.59219,-1.41601 15.12059,-1.52689 13.5284,-0.11089 18.51839,5.65531 18.51839,5.65531 0,0 6.20976,4.76821 6.7642,7.20776 0.55444,2.43955 1.33066,3.43754 1.33066,3.43754 l 22.84305,-0.33266 c 0,0 -8.7602,-24.61726 -12.75219,-38.25655 -3.99199,-13.6393 -8.53842,-36.59323 -8.53842,-36.59323 0,0 -4.10287,-20.51438 -4.21376,-24.50637 -0.11089,-3.99199 -1.88511,-17.18772 -1.88511,-17.18772 0,0 -0.33266,-2.43955 -1.44155,-0.22178 -1.10888,2.21777 -0.55444,26.61325 0.77622,38.92188 1.33066,12.30863 6.87509,35.70612 6.87509,35.70612 0,0 2.8831,5.21176 -0.77622,10.09085 -3.65932,4.8791 -14.96995,7.42954 -14.96995,7.42954 l -13.41752,1.8851 c 0,0 3.21577,-4.65732 4.65732,-6.65331 1.44155,-1.99599 6.43154,-11.75419 7.87309,-29.82902 1.44155,-18.07484 -4.32465,-31.82502 -4.32465,-31.82502 0,0 -7.97025,-23.31728 -29.42797,-31.39276 -21.45772,-8.07549 -28.37956,1.61509 -28.37956,1.61509 0,0 -1.84583,3.69165 0.69218,3.46093 2.53801,-0.23073 18.91971,-5.53748 32.07122,3.69165 13.1515,9.22912 21.91917,20.07335 23.30354,42.91543 1.38437,22.84209 -10.6135,41.99252 -10.6135,41.99252 0,0 -8.30621,7.15258 -11.30568,9.69059 -2.99946,2.53801 -4.91851,3.50905 -3.89072,5.13638 1.02779,1.62734 5.11125,-0.51138 5.11125,-0.51138 z"
       id="path47" />
    <path
       style="fill:#f95d00;fill-opacity:1;stroke:#f55c00;stroke-width:0.978;stroke-linecap:round;stroke-linejoin:bevel;stroke-dasharray:none"
       d="m 133.87914,580.68925 c 0,0 7.2727,-9.01405 8.70675,-11.26757 1.43406,-2.25351 6.76054,-7.47756 6.76054,-7.47756 0,0 5.53135,2.97054 15.97946,15.15999 10.4481,12.18946 14.75026,19.87189 14.75026,19.87189 0,0 7.78486,10.24324 2.76567,13.82837 -5.01918,3.58513 -17.82323,-5.63378 -17.82323,-5.63378 0,0 -6.86297,-6.76054 -12.59919,-10.14081 -5.73621,-3.38027 -18.54026,-14.34053 -18.54026,-14.34053 z"
       id="path48" />
    <path
       style="fill:#f95d00;fill-opacity:1;stroke:#f55c00;stroke-width:0.978;stroke-linecap:round;stroke-linejoin:bevel;stroke-dasharray:none"
       d="m 101.70946,628.13741 c 0,0 5.78492,-9.99213 8.30925,-14.19935 2.52433,-4.20722 5.46938,-7.88853 5.46938,-7.88853 0,0 12.72683,10.62322 21.35162,17.35477 8.6248,6.73154 14.5149,16.51332 14.5149,16.51332 0,0 4.3124,3.99686 1.89325,8.62479 -2.41915,4.62794 -10.41286,3.68132 -10.41286,3.68132 l -18.93248,-8.20407 c 0,0 -18.82729,-9.36106 -22.19306,-15.88225 z"
       id="path49" />
    <path
       style="fill:#fdcb2f;fill-opacity:1;stroke:none;stroke-width:0.978;stroke-linecap:round;stroke-linejoin:bevel;stroke-dasharray:none"
       d="m 265.16897,832.47066 31.72066,-10.09294 60.55762,8.91325 -18.74402,13.63202 -44.43514,-0.65539 z"
       id="path74" />
    <path
       style="fill:#fdcb2f;fill-opacity:1;stroke:none;stroke-width:0.978;stroke-linecap:round;stroke-linejoin:bevel;stroke-dasharray:none"
       d="m 417.54705,861.32105 50.89071,-19.10573 46.7222,9.20549 -7.12123,7.98967 -39.60097,16.84778 z"
       id="path75" />
    <path
       style="fill:#fdcb2f;fill-opacity:1;stroke:none;stroke-width:0.978;stroke-linecap:round;stroke-linejoin:bevel;stroke-dasharray:none"
       d="m 580.98788,839.4363 36.30089,-15.28458 37.34302,6.0791 -13.20032,19.80048 -41.85892,3.30008 z"
       id="path76" />
    <path
       style="fill:#fdcb2f;fill-opacity:1;stroke:none;stroke-width:0.978;stroke-linecap:round;stroke-linejoin:bevel;stroke-dasharray:none"
       d="m 682.24825,827.62549 44.29056,-8.68442 40.45427,15.52242 -16.96554,10.39341 -43.92722,6.23292 z"
       id="path77" />
    <path
       style="fill:#f85903;fill-opacity:1;stroke:#f15c00;stroke-width:0.978;stroke-linecap:round;stroke-linejoin:bevel;stroke-dasharray:none"
       d="m 35.166475,561.98515 c 0,0 0.452302,9.27219 1.922284,17.0744 1.469981,7.80221 4.183792,15.49134 4.183792,15.49134 0,0 11.420624,-0.67845 20.014361,-1.46998 8.593737,-0.79153 18.205153,-4.63609 18.205153,-4.63609 0,0 -2.826887,-12.55138 -2.826887,-14.47367 0,-1.92228 -0.113076,-9.72449 -0.113076,-9.72449 0,0 -9.837567,0.56538 -23.5197,0.22615 -13.682134,-0.33922 -17.865927,-2.48766 -17.865927,-2.48766 z"
       id="path50" />
    <path
       style="fill:#fca900;fill-opacity:1;stroke:none;stroke-width:0.978;stroke-linecap:round;stroke-linejoin:bevel;stroke-dasharray:none"
       d="m 337.41855,753.74113 0.39931,47.83756 200.42263,20.40593 1.21865,-47.73076 -15.43633,-12.99901 z"
       id="path65" />
    <path
       style="fill:#fe9701;fill-opacity:1;stroke:none;stroke-width:0.978;stroke-linecap:round;stroke-linejoin:bevel;stroke-dasharray:none"
       d="m 537.44311,822.17844 27.89497,-9.91821 -0.82652,-47.7314 -28.72149,5.579 z"
       id="path64" />
    <path
       style="fill:#fcd61e;fill-opacity:1;stroke:none;stroke-width:0.978;stroke-linecap:round;stroke-linejoin:bevel;stroke-dasharray:none"
       d="m 370.33408,745.80922 -32.97374,8.15479 198.37426,20.74155 29.2509,-9.7503 -67.36571,-10.45941 z"
       id="path63" />
    <path
       style="fill:#f85903;fill-opacity:1;stroke:#f15c00;stroke-width:0.978;stroke-linecap:round;stroke-linejoin:bevel;stroke-dasharray:none"
       d="m 78.737632,536.35635 c 0,0 1.600766,-8.40402 4.001913,-12.60602 2.401148,-4.20201 5.50263,-8.90426 5.50263,-8.90426 0,0 -13.406407,-8.20392 -17.308272,-10.80516 -3.901865,-2.60125 -19.609373,-13.20632 -21.310185,-13.20632 -1.700813,0 -9.804687,23.51124 -9.804687,23.51124 l -1.700812,8.90426 c 0,0 10.705116,4.50215 19.909515,8.70416 9.204399,4.202 20.709898,4.4021 20.709898,4.4021 z"
       id="path51" />
    <path
       style="fill:#fdaa00;fill-opacity:1;stroke:none;stroke-width:0.978;stroke-linecap:round;stroke-linejoin:bevel;stroke-dasharray:none"
       d="m 368.95414,701.9429 0.5953,47.42391 63.19496,9.69191 58.4831,4.42822 7.78757,-38.32704 -9.92533,-20.00336 z"
       id="path62" />
    <path
       style="fill:#fc9b00;fill-opacity:1;stroke:none;stroke-width:0.978;stroke-linecap:round;stroke-linejoin:bevel;stroke-dasharray:none"
       d="m 490.62782,763.41227 0.1921,-50.90696 32.12298,-7.37044 0.33522,52.29429 z"
       id="path61" />
    <path
       style="fill:#fbcf33;fill-opacity:1;stroke:none;stroke-width:0.978;stroke-linecap:round;stroke-linejoin:bevel;stroke-dasharray:none"
       d="m 368.84415,702.04298 121.70329,11.54229 32.75974,-8.48698 -115.59266,-11.88177 z"
       id="path60" />
    <path
       style="fill:#fda801;fill-opacity:1;stroke:none;stroke-width:0.978;stroke-linecap:round;stroke-linejoin:bevel;stroke-dasharray:none"
       d="m 403.95621,695.52138 v -46.42239 l 30.94826,0.32577 20.68647,6.35254 -5.701,49.19144 z"
       id="path59" />
    <path
       style="fill:#f9cd43;fill-opacity:1;stroke:none;stroke-width:0.978;stroke-linecap:round;stroke-linejoin:bevel;stroke-dasharray:none"
       d="m 427.82423,642.80155 54.33172,7.68603 -33.64753,6.01521 -44.75119,-6.94871 z"
       id="path58"
       sodipodi:nodetypes="ccccc" />
    <path
       style="fill:#fc7800;fill-opacity:1;stroke:none;stroke-width:0.978;stroke-linecap:round;stroke-linejoin:bevel;stroke-dasharray:none"
       d="m 448.54727,656.35868 0.77469,46.86893 33.11813,-4.26082 -0.19367,-48.61198 z"
       id="path57" />
    <path
       style="fill:#b73608;fill-opacity:1;stroke:#a62e00;stroke-width:0.978;stroke-linecap:round;stroke-linejoin:bevel;stroke-dasharray:none"
       d="m 404.33079,694.62243 16.08388,2.90403 28.14678,4.24436 23.56735,-2.23388 10.4992,-1.00524 3.91886,1.9384 c 0,0 0.9519,-0.0635 -4.56911,1.52304 -5.52101,1.5865 -17.95914,4.12489 -17.95914,4.12489 0,0 -8.69401,1.39612 -14.0881,1.39612 -5.39409,0 -7.04404,0.19038 -7.04404,0.19038 v 49.30832 l 25.0144,3.39352 c 0,0 18.34905,1.8349 21.91092,1.40316 3.56188,-0.43174 33.13624,-4.8571 33.13624,-4.8571 0,0 1.94284,0.10793 1.94284,1.40316 0,1.29523 -1.29523,1.72697 -1.29523,1.72697 l -37.45366,7.12375 -0.21587,49.54244 -4.74916,-0.21587 -0.21588,-48.24721 c 0,0 -0.75555,-1.29523 -3.23806,-1.5111 -2.48252,-0.21587 -31.5172,-4.74917 -31.5172,-4.74917 l -25.58074,-2.05078 -7.01582,0.43175 v 48.89483 l -4.20948,-0.21587 -0.21588,-50.08213 c 0,0 -28.25938,-3.95719 -33.86966,-5.0174 -5.61027,-1.06021 -6.75883,-2.20877 -6.75883,-2.20877 l -0.0442,-3.09228 7.27981,1.13878 27.52488,3.28769 22.9374,2.52311 12.53911,0.84104 -0.68813,-49.69769 c 0,0 -26.83675,-3.66999 -31.50069,-5.42852 -4.66394,-1.75853 -4.81685,-2.21728 -4.81685,-2.21728 0,0 -0.41689,-3.74331 2.54404,-4.50945 z"
       id="path56" />
    <path
       style="fill:#fca900;fill-opacity:1;stroke:none;stroke-width:0.978;stroke-linecap:round;stroke-linejoin:bevel;stroke-dasharray:none"
       d="m 265.3952,832.79668 61.299,8.27606 v 31.98209 l -61.71981,-9.1177 z"
       id="path66" />
    <path
       style="fill:#fca900;fill-opacity:1;stroke:none;stroke-width:0.978;stroke-linecap:round;stroke-linejoin:bevel;stroke-dasharray:none"
       d="m 467.38732,869.12721 0.70136,33.94589 -50.49803,-11.22178 0.14028,-30.15855 z"
       id="path67" />
    <path
       style="fill:#fca900;fill-opacity:1;stroke:none;stroke-width:0.978;stroke-linecap:round;stroke-linejoin:bevel;stroke-dasharray:none"
       d="m 622.94931,845.56146 2.10408,36.4708 -43.48441,-8.97743 -0.28055,-33.24454 z"
       id="path68" />
    <path
       style="fill:#fca900;fill-opacity:1;stroke:none;stroke-width:0.978;stroke-linecap:round;stroke-linejoin:bevel;stroke-dasharray:none"
       d="m 710.05841,843.87819 0.70136,23.14493 -28.47528,-16.41186 0.28055,-22.58384 z"
       id="path69" />
    <path
       style="fill:#fd9d00;fill-opacity:1;stroke:none;stroke-width:0.978;stroke-linecap:round;stroke-linejoin:bevel;stroke-dasharray:none"
       d="m 325.75924,841.7638 31.78722,-10.75508 0.1195,27.72419 -31.07021,14.3401 z"
       id="path70" />
    <path
       style="fill:#fd9d00;fill-opacity:1;stroke:none;stroke-width:0.978;stroke-linecap:round;stroke-linejoin:bevel;stroke-dasharray:none"
       d="m 467.00922,868.89048 0.8365,34.17724 47.80033,-19.95664 -0.3585,-31.54822 z"
       id="path71" />
    <path
       style="fill:#fd9d00;fill-opacity:1;stroke:none;stroke-width:0.978;stroke-linecap:round;stroke-linejoin:bevel;stroke-dasharray:none"
       d="m 622.71879,845.70732 2.39001,36.56726 30.35321,-15.17661 -0.5975,-36.80625 z"
       id="path72" />
    <path
       style="fill:#fd9d00;fill-opacity:1;stroke:none;stroke-width:0.978;stroke-linecap:round;stroke-linejoin:bevel;stroke-dasharray:none"
       d="m 710.58883,866.78277 -0.65777,-22.97119 57.16496,-9.3495 0.12182,23.02384 z"
       id="path73" />
    <path
       style="fill:#7d2a1d;fill-opacity:1;stroke:none;stroke-width:0.978;stroke-linecap:round;stroke-linejoin:bevel;stroke-dasharray:none"
       d="m -4.857655,819.57748 -26.109896,1.82162 -3.036034,-6.67928 h 32.0301627 z"
       id="path94" />
    <path
       style="fill:#7d2a1d;fill-opacity:1;stroke:none;stroke-width:0.978;stroke-linecap:round;stroke-linejoin:bevel;stroke-dasharray:none"
       d="m 923.20297,839.81606 17.71164,0.38785 -4.78344,5.81769 -13.83317,-1.80995 -3.10277,-1.29282 z"
       id="path95" />
    <path
       style="fill:#7d2a1d;fill-opacity:1;stroke:none;stroke-width:0.978;stroke-linecap:round;stroke-linejoin:bevel;stroke-dasharray:none"
       d="m 913.37754,826.24145 36.97466,0.90497 c 0,0 4.2663,-7.23979 4.2663,-7.75692 0,-0.51713 -43.69732,0.25856 -43.69732,0.25856 l -1.55139,2.84421 z"
       id="path96" />
    <circle
       style="fill:#f5f4db;fill-opacity:1;stroke:#0f0670;stroke-width:0.978;stroke-linecap:round;stroke-linejoin:bevel;stroke-dasharray:none"
       id="path97"
       cx="62.97364"
       cy="390.98022"
       r="7.3997803" />
    <circle
       style="fill:#f5f4db;fill-opacity:1;stroke:#0f0670;stroke-width:0.978;stroke-linecap:round;stroke-linejoin:bevel;stroke-dasharray:none"
       id="path97-5"
       cx="124.44965"
       cy="382.16708"
       r="7.3997803" />
    <circle
       style="fill:#f5f4db;fill-opacity:1;stroke:#0f0670;stroke-width:0.978;stroke-linecap:round;stroke-linejoin:bevel;stroke-dasharray:none"
       id="path97-5-5"
       cx="284.97299"
       cy="332.03799"
       r="7.3997803" />
    <circle
       style="fill:#f5f4db;fill-opacity:1;stroke:#0f0670;stroke-width:0.978;stroke-linecap:round;stroke-linejoin:bevel;stroke-dasharray:none"
       id="path97-5-5-1"
       cx="372.8765"
       cy="618.02295"
       r="7.3997803" />
    <circle
       style="fill:#f5f4db;fill-opacity:1;stroke:#0f0670;stroke-width:0.978;stroke-linecap:round;stroke-linejoin:bevel;stroke-dasharray:none"
       id="path97-5-5-1-0"
       cx="448.52805"
       cy="275.44659"
       r="7.3997803" />
    <circle
       style="fill:#f5f4db;fill-opacity:1;stroke:#0f0670;stroke-width:0.978;stroke-linecap:round;stroke-linejoin:bevel;stroke-dasharray:none"
       id="path97-5-5-1-0-8"
       cx="823.96069"
       cy="306.53424"
       r="7.3997803" />
    <circle
       style="fill:#f5f4db;fill-opacity:1;stroke:#0f0670;stroke-width:0.978;stroke-linecap:round;stroke-linejoin:bevel;stroke-dasharray:none"
       id="path97-5-5-1-0-8-9"
       cx="839.20294"
       cy="396.38504"
       r="7.3997803" />
    <circle
       style="fill:#f5f4db;fill-opacity:1;stroke:#0f0670;stroke-width:0.978;stroke-linecap:round;stroke-linejoin:bevel;stroke-dasharray:none"
       id="path97-5-5-1-0-8-9-6"
       cx="764.33801"
       cy="115.93199"
       r="7.3997803" />
    <circle
       style="fill:#f5f4db;fill-opacity:1;stroke:#0f0670;stroke-width:0.978;stroke-linecap:round;stroke-linejoin:bevel;stroke-dasharray:none"
       id="path97-5-5-1-0-8-9-6-0"
       cx="220.54039"
       cy="108.07718"
       r="7.3997803" />
    <path
       style="fill:#feb503;fill-opacity:1;stroke:#f1c63a;stroke-width:0.978;stroke-linecap:round;stroke-linejoin:bevel;stroke-dasharray:none"
       d="m 164.09167,335.70538 c 0,0 -3.20382,0.69648 -3.20382,3.76101 0,3.06453 3.8037,3.11845 3.8037,3.11845 0,0 7.96373,3.73754 14.0928,11.67746 6.12906,7.93992 8.5699,16.26729 8.5699,16.26729 0,0 -0.15651,3.11267 2.64069,3.23427 2.78593,0.1211 2.58013,-3.35537 2.58013,-3.35537 0,0 1.89556,-11.74329 8.9997,-18.42953 7.10414,-6.68625 14.85612,-10.53196 14.85612,-10.53196 0,0 2.1563,-0.72694 2.1563,-2.67709 0,-1.95016 -3.58533,-3.14328 -3.58533,-3.14328 0,0 -8.5335,-4.7907 -13.54819,-10.08398 -5.01468,-5.29328 -8.51531,-15.90993 -8.51531,-15.90993 0,0 -0.84802,-3.99131 -3.21607,-3.99131 -2.36804,0 -2.81638,3.9731 -2.81638,3.9731 0,0 -1.19908,7.75793 -8.16392,14.86207 -6.96484,7.10414 -14.65032,11.2288 -14.65032,11.2288 z"
       id="path98"
       sodipodi:nodetypes="cscscscscscscscsc" />
    <path
       style="fill:#feb503;fill-opacity:1;stroke:#f1c63a;stroke-width:0.740791;stroke-linecap:round;stroke-linejoin:bevel;stroke-dasharray:none"
       d="m 383.04806,352.1257 c 0,0 -2.54018,0.50399 -2.54018,2.72157 0,2.2176 3.01581,2.25661 3.01581,2.25661 0,0 6.31411,2.70461 11.1736,8.45018 4.85949,5.74557 6.79473,11.77151 6.79473,11.77151 0,0 -0.12409,2.25243 2.0937,2.34042 2.20885,0.0876 2.04568,-2.42805 2.04568,-2.42805 0,0 1.50291,-8.49781 7.13549,-13.33617 5.6326,-4.83839 11.77883,-7.62126 11.77883,-7.62126 0,0 1.70964,-0.52603 1.70964,-1.93722 0,-1.4112 -2.84267,-2.27458 -2.84267,-2.27458 0,0 -6.76586,-3.4667 -10.74181,-7.29708 -3.97593,-3.83039 -6.75144,-11.51291 -6.75144,-11.51291 0,0 -0.67236,-2.88824 -2.5499,-2.88824 -1.87752,0 -2.23299,2.87506 -2.23299,2.87506 0,0 -0.9507,5.61388 -6.47284,10.75465 -5.52215,5.14077 -11.61565,8.12551 -11.61565,8.12551 z"
       id="path98-4"
       sodipodi:nodetypes="cscscscscscscscsc" />
    <path
       style="fill:#feb503;fill-opacity:1;stroke:#f1c63a;stroke-width:0.826108;stroke-linecap:round;stroke-linejoin:bevel;stroke-dasharray:none"
       d="m 665.63352,152.63224 c 0,0 -2.80651,0.56729 -2.80651,3.06337 0,2.4961 3.33202,2.54001 3.33202,2.54001 0,0 6.97612,3.04429 12.34509,9.51144 5.369,6.46715 7.50715,13.24987 7.50715,13.24987 0,0 -0.1371,2.53531 2.31321,2.63435 2.44045,0.0987 2.26016,-2.73299 2.26016,-2.73299 0,0 1.66049,-9.56504 7.88363,-15.01104 6.22315,-5.44604 13.0138,-8.5784 13.0138,-8.5784 0,0 1.88888,-0.5921 1.88888,-2.18052 0,-1.58843 -3.14071,-2.56024 -3.14071,-2.56024 0,0 -7.47525,-3.90208 -11.86805,-8.21352 -4.39279,-4.31143 -7.4593,-12.95879 -7.4593,-12.95879 0,0 -0.74287,-3.25097 -2.81725,-3.25097 -2.07437,0 -2.46711,3.23613 -2.46711,3.23613 0,0 -1.05038,6.31891 -7.15149,12.10531 -6.10113,5.78639 -12.83352,9.14599 -12.83352,9.14599 z"
       id="path98-4-7"
       sodipodi:nodetypes="cscscscscscscscsc" />
    <path
       style="fill:#6ba5f0;fill-opacity:1;stroke:#8ac6fc;stroke-width:0.837334;stroke-linecap:round;stroke-linejoin:bevel;stroke-dasharray:none"
       d="m 221.72202,245.38116 c 0,0 -2.67052,0.61249 -2.67052,3.30746 0,2.69498 3.17056,2.7424 3.17056,2.7424 0,0 6.63809,3.28686 11.74691,10.2693 5.10884,6.98246 7.14339,14.30563 7.14339,14.30563 0,0 -0.13047,2.73731 2.20112,2.84425 2.32219,0.10652 2.15064,-2.95076 2.15064,-2.95076 0,0 1.58003,-10.32718 7.50162,-16.20711 5.9216,-5.87999 12.38321,-9.26193 12.38321,-9.26193 0,0 1.79736,-0.63928 1.79736,-2.35426 0,-1.715 -2.98853,-2.76424 -2.98853,-2.76424 0,0 -7.11303,-4.213 -11.29297,-8.86797 -4.17994,-4.65497 -7.09786,-13.99135 -7.09786,-13.99135 0,0 -0.70688,-3.51 -2.68074,-3.51 -1.97385,0 -2.34757,3.49399 -2.34757,3.49399 0,0 -0.99948,6.82239 -6.80496,13.06985 -5.80549,6.24744 -12.21166,9.87474 -12.21166,9.87474 z"
       id="path98-4-7-7"
       sodipodi:nodetypes="cscscscscscscscsc" />
    <path
       style="fill:#6ba5f0;fill-opacity:1;stroke:#8ac6fc;stroke-width:1.10733;stroke-linecap:round;stroke-linejoin:bevel;stroke-dasharray:none"
       d="m 143.72247,159.86561 c 0,0 -3.46232,0.82619 -3.46232,4.46143 0,3.63525 4.11063,3.69922 4.11063,3.69922 0,0 8.60631,4.43364 15.22991,13.85226 6.62361,9.41865 9.26142,19.29685 9.26142,19.29685 0,0 -0.16915,3.69236 2.85376,3.83661 3.01072,0.14369 2.78831,-3.98028 2.78831,-3.98028 0,0 2.04851,-13.93033 9.72586,-21.86177 7.67738,-7.93151 16.05487,-12.49341 16.05487,-12.49341 0,0 2.33028,-0.86231 2.33028,-3.17565 0,-2.31337 -3.87464,-3.72869 -3.87464,-3.72869 0,0 -9.22206,-5.68291 -14.64135,-11.962 -5.41931,-6.27908 -9.20241,-18.87291 -9.20241,-18.87291 0,0 -0.91646,-4.73466 -3.47558,-4.73466 -2.5591,0 -3.04363,4.71305 -3.04363,4.71305 0,0 -1.29583,9.20272 -8.82265,17.62992 -7.52684,8.42716 -15.83246,13.32003 -15.83246,13.32003 z"
       id="path98-4-7-7-8"
       sodipodi:nodetypes="cscscscscscscscsc" />
    <path
       style="fill:#6ba5f0;fill-opacity:1;stroke:#8ac6fc;stroke-width:0.851673;stroke-linecap:round;stroke-linejoin:bevel;stroke-dasharray:none"
       d="m 775.18183,216.07913 c 0,0 -2.75884,0.61334 -2.75884,3.31212 0,2.69879 3.27542,2.74627 3.27542,2.74627 0,0 6.85765,3.29152 12.13545,10.28383 5.27781,6.99234 7.37966,14.32585 7.37966,14.32585 0,0 -0.13478,2.74118 2.27392,2.84827 2.39899,0.10667 2.22178,-2.95494 2.22178,-2.95494 0,0 1.63228,-10.34177 7.74973,-16.23002 6.11746,-5.8883 12.79279,-9.27501 12.79279,-9.27501 0,0 1.8568,-0.64018 1.8568,-2.35759 0,-1.71743 -3.08737,-2.76815 -3.08737,-2.76815 0,0 -7.3483,-4.21895 -11.66647,-8.88051 -4.31821,-4.66154 -7.33265,-14.01111 -7.33265,-14.01111 0,0 -0.73025,-3.51498 -2.76939,-3.51498 -2.03914,0 -2.42522,3.49894 -2.42522,3.49894 0,0 -1.03254,6.83203 -7.03004,13.08832 -5.99752,6.25627 -12.61557,9.88871 -12.61557,9.88871 z"
       id="path98-4-7-7-8-2"
       sodipodi:nodetypes="cscscscscscscscsc" />
    <path
       style="fill:#fdad00;fill-opacity:1;stroke:none;stroke-width:0.978;stroke-linecap:round;stroke-linejoin:bevel;stroke-dasharray:none"
       d="m 492.47166,216.94939 c 0,0 15.84914,6.89092 28.13796,9.1879 12.28882,2.29698 23.7737,0.2297 23.7737,0.2297 0,0 5.1682,0.80394 5.1682,2.98607 0,2.18212 -2.06728,11.02548 -2.06728,11.02548 l -57.4244,-13.66701 z"
       id="path107" />
    <path
       style="fill:#fdad00;fill-opacity:1;stroke:none;stroke-width:0.978;stroke-linecap:round;stroke-linejoin:bevel;stroke-dasharray:none"
       d="m 508.89504,215.3415 c 0,0 3.56031,-1.49303 4.4791,-3.79001 0.91879,-2.29697 3.33062,-8.15426 3.33062,-8.15426 0,0 0.45939,4.2494 4.2494,4.59395 3.79001,0.34455 16.88278,-5.97214 16.88278,-5.97214 l 0.11485,18.03126 c 0,0 -11.48488,-2.64152 -16.88278,-3.56031 -5.39789,-0.91879 -12.17397,-1.14849 -12.17397,-1.14849 z"
       id="path108" />
    <path
       style="fill:#fe7008;fill-opacity:1;stroke:none;stroke-width:0.978;stroke-linecap:round;stroke-linejoin:bevel;stroke-dasharray:none"
       d="m 497.04853,112.0514 7.59323,3.89923 -2.7363,9.64545 -6.84075,-3.42037 -2.46266,-6.15668 z"
       id="path116" />
    <path
       style="fill:#fdad00;fill-opacity:1;stroke:none;stroke-width:0.978;stroke-linecap:round;stroke-linejoin:bevel;stroke-dasharray:none"
       d="m 572.33896,181.03597 4.91278,10.56248 c 0,0 20.87932,-4.91278 27.75721,-18.42293 6.8779,-13.51014 7.61481,-19.65112 7.61481,-19.65112 0,0 0.98256,-6.63225 -5.6497,-11.54504 -6.63225,-4.91278 -11.29939,-5.15842 -11.29939,-5.15842 l -2.21075,10.56248 c 0,0 8.35172,3.19331 5.6497,13.26451 -2.70203,10.0712 -14.49271,18.17729 -14.49271,18.17729 0,0 -5.40406,3.43895 -12.28195,2.21075 z"
       id="path109" />
    <path
       style="fill:#fdad00;fill-opacity:1;stroke:none;stroke-width:0.978;stroke-linecap:round;stroke-linejoin:bevel;stroke-dasharray:none"
       d="m 494.47138,160.64793 0.24564,11.05376 c 0,0 -12.77323,-5.40406 -19.65112,-17.93165 -6.87789,-12.52759 -5.6497,-21.86188 -5.6497,-21.86188 0,0 2.45639,-11.79067 6.63226,-18.42292 4.17586,-6.63226 13.75578,-4.91278 13.75578,-4.91278 l 7.36917,3.68458 -1.71947,10.0712 c 0,0 -11.05376,-3.68458 -13.26451,4.66714 -2.21075,8.35173 2.45639,23.58135 2.45639,23.58135 0,0 4.42151,7.86045 9.82556,10.0712 z"
       id="path110" />
    <path
       style="fill:#fe7008;fill-opacity:1;stroke:none;stroke-width:0.978;stroke-linecap:round;stroke-linejoin:bevel;stroke-dasharray:none"
       d="m 494.21154,160.39947 0.43137,11.21574 c 0,0 10.2092,4.60133 10.49679,4.60133 0.28758,0 -5.39219,-13.5883 -5.39219,-13.5883 z"
       id="path111" />
    <path
       style="fill:#fe7008;fill-opacity:1;stroke:none;stroke-width:0.978;stroke-linecap:round;stroke-linejoin:bevel;stroke-dasharray:none"
       d="m 516.38406,203.73137 2.64586,-15.10346 19.73372,6.50441 -1.32293,8.92978 -12.89858,7.60686 -7.93759,-1.87416 z"
       id="path112" />
    <path
       style="fill:#fe7008;fill-opacity:1;stroke:none;stroke-width:0.978;stroke-linecap:round;stroke-linejoin:bevel;stroke-dasharray:none"
       d="m 508.88745,214.97628 -15.54444,0.88196 c 0,0 -0.9922,0.66146 -0.77171,1.21268 0.22049,0.55122 12.78833,8.04783 12.78833,8.04783 l 40.01866,6.17368 -1.43317,-5.07123 c 0,0 -4.96099,-4.52002 -6.83515,-7.05564 -1.87415,-2.53561 -28.22252,-4.18928 -28.22252,-4.18928 z"
       id="path113" />
    <path
       style="fill:#fe7008;fill-opacity:1;stroke:none;stroke-width:0.978;stroke-linecap:round;stroke-linejoin:bevel;stroke-dasharray:none"
       d="m 572.25374,180.98803 -6.21714,-0.96712 -11.05271,12.01982 c 0,0 21.1383,0.13816 22.38173,-0.69079 1.24343,-0.82896 -5.11188,-10.36191 -5.11188,-10.36191 z"
       id="path114" />
    <path
       style="fill:#fe7008;fill-opacity:1;stroke:none;stroke-width:0.978;stroke-linecap:round;stroke-linejoin:bevel;stroke-dasharray:none"
       d="m 593.39204,147.13912 -10.08559,-2.62502 4.0066,-9.80927 8.70401,2.21054 v 3.45397 z"
       id="path115" />
    <path
       style="fill:#fdad00;fill-opacity:1;stroke:none;stroke-width:0.978;stroke-linecap:round;stroke-linejoin:bevel;stroke-dasharray:none"
       d="m 321.75825,235.06547 c 0,0 0.2167,-17.52857 -7.22988,-25.92967 -9.69497,-10.9377 -21.44136,-15.00895 -29.02831,-37.76979 -7.58694,-22.76084 -0.32987,-54.26315 -0.32987,-54.26315 0,0 16.06282,-48.174176 65.04619,-47.880863 48.98336,0.293314 66.58217,41.650523 66.58217,41.650523 0,0 11.14592,13.78574 8.5061,38.42408 -2.63983,24.63833 -12.61249,37.54413 -12.61249,37.54413 0,0 -8.38436,11.33898 -13.02092,14.51833 -4.63655,3.17936 -11.92257,9.00817 -14.43956,15.49935 -2.51699,6.49118 -2.51699,18.01634 -2.51699,18.01634 l -31.13117,5.03397 z"
       id="path105"
       sodipodi:nodetypes="csscscscssccc" />
    <path
       style="fill:#fbf0ce;fill-opacity:1;stroke:none;stroke-width:0.978;stroke-linecap:round;stroke-linejoin:bevel;stroke-dasharray:none"
       d="m 361.57491,234.80108 0.11717,-46.04632 c 0,0 18.62942,-10.19346 17.69209,-28.35422 -0.93733,-18.16077 -13.47411,-24.37058 -13.47411,-24.37058 0,0 -4.56948,-3.74931 -15.11444,-4.21798 -10.54496,-0.46866 -19.33242,9.25613 -19.33242,9.25613 0,0 -10.54496,9.49046 -7.61581,24.48774 2.92916,14.99727 15.70027,22.61308 15.70027,22.61308 v 47.68664 z"
       id="path104" />
    <path
       style="fill:#fdab00;fill-opacity:1;stroke:none;stroke-width:0.978;stroke-linecap:round;stroke-linejoin:bevel;stroke-dasharray:none"
       d="m 344.21713,235.04325 0.58072,-49.79607 c 0,0 -16.25994,-9.00104 -15.38888,-23.95438 0.87107,-14.95333 11.9046,-22.06706 11.9046,-22.06706 0,0 5.22641,-2.6132 10.598,-2.6132 5.37159,0 11.9046,4.21016 11.9046,4.21016 0,0 9.29139,5.80712 9.72693,19.74421 0.43553,13.9371 -9.58175,21.05082 -9.58175,21.05082 0,0 -7.2589,1.16142 -6.96855,6.38783 0.29036,5.22641 0.14518,48.34429 0.14518,48.34429 z"
       id="path103" />
    <path
       style="fill:#feb400;fill-opacity:1;stroke:#eac732;stroke-width:0.978;stroke-linecap:round;stroke-linejoin:bevel;stroke-dasharray:none"
       d="m 56.266028,269.80808 c 0,0 -2.664757,2.4401 -0.09395,5.26799 2.570805,2.82788 33.806077,36.89104 33.806077,36.89104 0,0 1.542483,2.31372 3.599127,0 2.056643,-2.31373 32.906288,-36.63396 32.906288,-36.63396 0,0 2.69935,-1.67103 -0.38562,-4.62745 -3.08496,-2.95643 -33.806071,-37.27666 -33.806071,-37.27666 0,0 -0.642701,-2.44227 -2.956425,0 -2.313724,2.44226 -33.069423,36.37904 -33.069423,36.37904 z"
       id="path99" />
    <path
       style="fill:#302eb3;fill-opacity:1;stroke:none;stroke-width:0.978;stroke-linecap:round;stroke-linejoin:bevel;stroke-dasharray:none"
       d="m 330.09061,271.63276 43.37861,1.03282 c 0,0 -7.84946,13.22015 -19.00396,14.04641 -11.1545,0.82626 -24.37465,-15.07923 -24.37465,-15.07923 z"
       id="path100" />
    <path
       style="fill:#302eb3;fill-opacity:1;stroke:none;stroke-width:0.978;stroke-linecap:round;stroke-linejoin:bevel;stroke-dasharray:none"
       d="m 323.6871,267.08833 57.21846,0.20657 c 0,0 2.47877,-4.95756 2.68534,-11.56763 0.20656,-6.61008 0.24155,-7.08968 0.24155,-7.08968 l -64.0371,0.39017 c 0,0 -0.48772,6.63294 0.3414,10.43712 0.82911,3.80419 3.55035,7.62345 3.55035,7.62345 z"
       id="path101" />
    <path
       style="fill:#302eb3;fill-opacity:1;stroke:none;stroke-width:0.978;stroke-linecap:round;stroke-linejoin:bevel;stroke-dasharray:none"
       d="m 320.56962,242.65092 0.12915,-8.47023 h 62.57537 l -0.19078,10.01588 c 0,0 -0.38155,0.66772 -2.76629,0.57233 -2.38473,-0.0954 -59.42752,0 -59.42752,0 0,0 -0.25831,-1.37428 -0.31993,-2.11798 z"
       id="path102" />
    <path
       style="fill:#fdad00;fill-opacity:1;stroke:none;stroke-width:0.978;stroke-linecap:round;stroke-linejoin:bevel;stroke-dasharray:none"
       d="m 527.36743,194.1955 c 0,0 18.74409,5.74143 30.22695,-3.54618 11.48287,-9.28761 16.37997,-16.2111 16.37997,-16.2111 0,0 6.92349,-12.32719 11.65173,-26.17418 4.72824,-13.84698 6.07917,-21.1082 6.07917,-21.1082 l -59.60958,-14.18472 -27.69397,-7.59895 c 0,0 -5.4037,22.96573 -6.92349,33.94199 -1.51979,10.97627 1.51979,30.22696 9.11875,40.69663 7.59895,10.46967 20.77047,14.18471 20.77047,14.18471 z"
       id="path106" />
  </g>
</svg>
