<?xml version="1.0" encoding="UTF-8" standalone="no"?>
<!-- Created with Inkscape (http://www.inkscape.org/) -->

<svg
   version="1.1"
   id="svg1"
   width="59.280334"
   height="68.400208"
   viewBox="0 0 59.280334 68.400208"
   xmlns="http://www.w3.org/2000/svg"
   xmlns:svg="http://www.w3.org/2000/svg">
  <defs
     id="defs1" />
  <g
     id="g1"
     transform="translate(-368.0643,-804.5971)">
    <path
       style="fill:#e7ecf4;fill-opacity:1;stroke:none;stroke-width:0.677;stroke-linecap:round;stroke-linejoin:bevel"
       d="m 374.00448,805.01676 c 0,0 8.6552,-1.66446 16.47817,1.66446 7.82296,3.32892 13.98147,6.24173 13.98147,6.24173 0,0 8.32231,1.99735 12.89958,2.08058 4.57727,0.0832 7.40685,0.58256 8.73842,-1.0819 1.33157,-1.66446 0.91545,14.31436 0.91545,14.31436 v 29.96031 c 0,0 -0.66578,4.24438 -6.40817,5.82561 -5.74239,1.58124 -16.47817,-2.24702 -16.47817,-2.24702 l -10.98545,-5.49272 -3.32892,-0.41612 c 0,0 -11.48478,-0.99867 -13.14924,-0.99867 -1.66447,0 -3.16248,0.16644 -3.16248,0.16644 z"
       id="path5" />
    <path
       style="fill:#161d37;fill-opacity:1;stroke:#010304;stroke-width:0.677;stroke-linecap:round;stroke-linejoin:bevel"
       d="m 374.37941,804.95964 v 16.87976 c 0,0 0.56679,1.25342 2.59098,0.78268 2.02419,-0.47075 5.64891,-0.98856 8.09677,-0.56489 2.44786,0.42366 4.42498,1.83589 4.42498,1.83589 l -0.0471,15.1579 c 0,0 -4.7545,-1.60052 -8.66166,-1.41223 -3.90716,0.1883 -5.55476,1.17686 -5.55476,1.17686 0,0 -1.17685,0.75319 -1.17685,1.83589 0,1.08271 0.47074,27.82087 0.47074,27.82087 0,0 -2.54201,3.1069 -4.47205,4.04838 -1.93004,0.94149 -1.55345,-2.82445 -1.55345,-2.82445 l -0.0942,-59.87841 c 0,0 2.77738,-4.23668 3.81301,-4.61328 1.03564,-0.37659 2.16352,-0.24497 2.16352,-0.24497 z"
       id="path1" />
    <path
       style="fill:#161d37;fill-opacity:1;stroke:#010304;stroke-width:0.677;stroke-linecap:round;stroke-linejoin:bevel"
       d="m 390.41964,822.32269 0.20987,-15.39013 14.06098,6.15605 -0.13991,14.69058 z"
       id="path2" />
    <path
       style="fill:#161d37;fill-opacity:1;stroke:#010304;stroke-width:0.677;stroke-linecap:round;stroke-linejoin:bevel"
       d="m 405.46,828.33883 v 17.34888 c 0,0 10.1435,3.28789 15.11031,1.3991 4.96682,-1.88879 6.36592,-3.77758 6.36592,-3.77758 l 0.0699,-15.66995 c 0,0 -3.98744,3.77758 -11.54259,3.07803 -7.55516,-0.69956 -10.00359,-2.37848 -10.00359,-2.37848 z"
       id="path3" />
    <path
       style="fill:#161d37;fill-opacity:1;stroke:#010304;stroke-width:0.677;stroke-linecap:round;stroke-linejoin:bevel"
       d="m 390.27973,839.67156 14.55067,6.15606 0.07,16.22959 c 0,0 -10.35336,-5.03677 -11.96233,-5.52646 -1.60897,-0.48968 -2.72825,-0.48968 -2.72825,-0.48968 z"
       id="path4" />
  </g>
</svg>
