<?xml version="1.0" encoding="UTF-8" standalone="no"?>
<!-- Created with Inkscape (http://www.inkscape.org/) -->

<svg
   version="1.1"
   id="svg1"
   width="721.73376"
   height="584.19238"
   viewBox="0 0 721.73376 584.19238"
   xmlns="http://www.w3.org/2000/svg"
   xmlns:svg="http://www.w3.org/2000/svg">
  <defs
     id="defs1" />
  <g
     id="g1"
     transform="translate(-141.69798,-154.41237)">
    <path
       style="fill:#2c2088;fill-opacity:1;stroke:none;stroke-width:0.854892;stroke-linecap:round;stroke-linejoin:bevel;stroke-dasharray:none"
       d="m 173.78839,530.84035 c 0,0 -34.55802,-36.58731 -31.94987,-82.48776 2.60815,-45.90046 22.82134,-65.85718 22.82134,-65.85718 0,0 36.51413,-33.92641 48.25082,-45.90044 11.7367,-11.97403 20.3071,-36.37495 20.3071,-36.37495 0,0 17.39538,-58.5279 53.29652,-91.75664 35.90114,-33.22874 88.82754,-48.33272 88.82754,-48.33272 0,0 65.14021,-16.61437 124.35857,6.79679 59.21837,23.41115 61.80917,37.75993 86.97698,43.04633 25.1678,5.28638 75.1333,12.08317 102.15168,29.45274 27.01838,17.36957 96.97001,74.38708 105.11261,86.09266 8.14247,11.70558 73.45153,51.20514 69.30053,131.66922 -4.151,80.46408 -39.43455,196.92524 -95.47321,224.45243 -56.03856,27.52718 -388.11923,-8.4699 -388.11923,-8.4699 z"
       id="path58" />
    <path
       style="fill:#131936;fill-opacity:1;stroke:none;stroke-width:1.4143;stroke-linecap:round;stroke-linejoin:bevel;stroke-dasharray:none"
       d="m 734.83153,623.062 1.78036,1.74068 -3.48655,5.14639 -10.08874,2.57318 -73.13807,14.32263 -11.64074,-5.08977 -5.5936,-49.81808 5.74477,-26.22006 6.19832,-0.4627 11.18719,42.72325 z"
       id="path32" />
    <path
       style="fill:#131936;fill-opacity:1;stroke:none;stroke-width:1.4143;stroke-linecap:round;stroke-linejoin:bevel;stroke-dasharray:none"
       d="m 419.22812,696.19737 -1.50922,9.23836 16.26593,5.30352 36.05333,-2.05297 3.18611,-4.44811 15.42747,-38.32214 -0.67077,-15.39729 -3.68917,-99.7402 -15.42747,8.38297 -22.97352,84.85615 z"
       id="path30" />
    <path
       style="fill:#1c1558;fill-opacity:1;stroke:none;stroke-width:1.4143;stroke-linecap:round;stroke-linejoin:bevel;stroke-dasharray:none"
       d="m 372.99202,530.38904 c 0,0 7.02803,-1.71227 9.02105,5.5649 1.99302,7.27716 15.62948,68.06289 15.62948,68.06289 l 10.3847,45.69631 11.53856,48.37174 2.467,8.36046 65.32545,-0.43137 43.7617,0.97058 22.19797,6.47053 -7.71643,10.4607 -134.68513,0.008 z"
       id="path29" />
    <path
       style="fill:#feb42e;fill-opacity:1;stroke:#fed811;stroke-width:1.4143;stroke-linecap:round;stroke-linejoin:bevel;stroke-dasharray:none"
       d="m 550.44622,715.18223 c 0,0 -1.41555,5.77672 -2.6821,7.14489 -1.26654,1.36817 -1.93706,1.97625 -1.93706,1.97625 l 33.7498,-0.76009 4.47017,-0.45606 -1.11754,-1.06414 -31.96174,-7.75296 z"
       id="path28" />
    <path
       style="fill:#fb6d52;fill-opacity:1;stroke:#fd865e;stroke-width:0.782914;stroke-linecap:round;stroke-linejoin:bevel;stroke-dasharray:none"
       d="m 421.53154,705.68977 49.72504,0.65884 c 0,0 10.65536,-5.106 11.94692,-5.106 1.29155,0 2.42167,4.77659 2.42167,4.77659 0,0 20.34205,-0.49413 27.2842,2.47064 6.94213,2.96477 24.21673,2.80007 24.21673,2.80007 0,0 24.86252,5.43541 30.19021,7.57664 5.32767,2.14122 42.94434,8.72962 42.94434,8.72962 l 32.77332,5.92954 c 0,0 28.89864,4.28245 41.00702,4.61188 12.10836,0.32942 17.2746,-0.32943 23.89385,-3.4589 6.61924,-3.1295 16.30593,-11.6944 18.40471,-20.2593 2.09879,-8.56491 3.06746,-24.54176 3.06746,-24.54176 l -5.00479,-58.14252 c 0,0 -29.54442,4.44717 -44.8817,5.76484 -15.33726,1.31768 -21.0543,3.08156 -21.0543,3.08156 l -0.87474,2.15669 7.09343,32.39413 -1.46545,2.02905 -125.19146,-1.81546 -26.69216,-9.82485 -24.40999,-4.87311 -2.73602,0.46523 -24.1682,-0.15509 c 0,0 -5.92805,-0.93044 -10.18409,2.79137 -4.25604,3.72179 -8.66408,9.76972 -15.50413,21.24529 -6.84006,11.47555 -12.80187,20.69501 -12.80187,20.69501 z"
       id="path23" />
    <path
       style="fill:#110a47;fill-opacity:1;stroke:none;stroke-width:0.656638;stroke-linecap:round;stroke-linejoin:bevel;stroke-dasharray:none"
       d="m 165.70782,520.20366 c 0,0 -5.61052,0.018 -8.95499,5.02959 -3.34448,5.01155 -2.29934,10.98274 -2.29934,10.98274 l 41.19904,179.52043 c 0,0 2.5821,10.44518 14.3816,10.61594 11.79951,0.17075 199.91902,-0.25979 199.91902,-0.25979 0,0 6.0657,-2.02311 6.76558,-6.78339 0.69989,-4.76028 -0.34994,-9.52056 -0.34994,-9.52056 L 373.37885,529.57243 c 0,0 -3.18033,-8.77961 -12.90839,-8.97048 -9.72806,-0.19086 -194.76264,-0.39829 -194.76264,-0.39829 z"
       id="path27" />
    <path
       style="fill:#f96656;fill-opacity:1;stroke:none;stroke-width:0.782914;stroke-linecap:round;stroke-linejoin:bevel;stroke-dasharray:none"
       d="m 483.94799,659.11324 0.75508,3.20981 c 0,0 13.7174,-0.51357 23.15596,3.59498 9.43857,4.10857 29.07079,10.5282 29.07079,10.5282 0,0 11.57798,0.77034 14.47247,0.77034 2.8945,0 56.63143,0.77036 56.63143,0.77036 l 56.25387,0.77036 1.8877,-1.15554 -5.53729,-25.55011 -1.88771,-11.55532 -3.14618,1.15553 7.04745,32.99689 -0.50338,1.28391 -121.82047,-1.66909 -26.6797,-9.11587 -14.34661,-5.00732 z"
       id="path22" />
    <path
       style="fill:#180e2f;fill-opacity:1;stroke:#fd865e;stroke-width:0.782914;stroke-linecap:round;stroke-linejoin:bevel;stroke-dasharray:none"
       d="m 663.49884,674.54845 c 0,0 12.25318,-1.72115 15.71604,-1.17763 3.46284,0.54351 8.37129,0.17522 8.83271,1.30501 0.46141,1.12978 0.46141,3.62473 -0.64599,3.67179 -1.10739,0.0471 -11.99673,-0.23536 -11.99673,-0.23536 l -10.61251,-0.14123 c 0,0 -1.15665,-2.32603 -1.29352,-3.42258 z"
       id="path21" />
    <path
       style="fill:#fc6c52;fill-opacity:1;stroke:#fb8355;stroke-width:1.26277;stroke-linecap:round;stroke-linejoin:bevel;stroke-dasharray:none"
       d="m 419.50535,699.27656 c 0,0 11.81181,-18.99752 15.5638,-26.36969 3.75197,-7.37218 16.2586,-14.60258 16.2586,-14.60258 0,0 10.14425,-1.41773 14.45208,-0.99241 4.30783,0.42532 7.36502,1.13419 7.36502,1.13419 0,0 -8.8936,-20.27349 -10.0053,-25.80261 -1.1117,-5.52913 -41.68872,-17.29625 -41.68872,-17.29625 l -14.03521,30.90642 z"
       id="path15" />
    <path
       style="fill:#f86454;fill-opacity:1;stroke:none;stroke-width:1.26277;stroke-linecap:round;stroke-linejoin:bevel;stroke-dasharray:none"
       d="m 422.00355,615.53684 -0.92265,3.03311 c 0,0 22.04112,10.14523 27.16696,12.55079 5.12585,2.40558 15.1725,3.97443 15.1725,3.97443 l -0.6151,-3.24229 z"
       id="path16" />
    <path
       style="fill:#ffae27;fill-opacity:1;stroke:#f8cb19;stroke-width:1.26277;stroke-linecap:round;stroke-linejoin:bevel;stroke-dasharray:none"
       d="m 527.02296,485.52537 c 0,0 -33.83792,5.87612 -49.96492,15.86553 -16.12701,9.9894 -31.82204,32.02484 -41.18147,55.38242 -9.35943,23.35757 -11.51929,29.08678 -14.68709,36.13813 -3.16782,7.05134 -8.92746,17.33456 -8.92746,17.33456 0,0 22.7506,11.89914 25.77442,13.36816 3.02381,1.46904 19.29481,8.81418 21.59867,8.81418 2.30386,0 3.45578,0 3.45578,0 0,0 -3.31179,-24.97351 2.15987,-40.83903 5.47166,-15.86551 12.38324,-32.75936 12.38324,-32.75936 l 2.59184,-2.93805 c 0,0 1.43991,2.35044 -1.15193,9.40179 -2.59184,7.05134 -14.83109,36.87264 -9.21543,63.46208 5.61565,26.58944 8.92745,29.67441 10.07937,29.96821 1.15194,0.29381 13.39119,-1.61593 29.66218,4.9947 16.27101,6.61063 28.36626,10.57701 31.53407,10.72392 3.1678,0.14691 64.22005,1.02832 64.22005,1.02832 l 57.74044,0.58761 -7.05556,-34.3753 c 0,0 -8.63947,5.1416 -10.65534,-5.28851 -2.01588,-10.43011 -5.18368,-27.03014 -5.61566,-43.33638 -0.43196,-16.30622 -0.28798,-24.8266 -0.28798,-24.8266 0,0 2.87982,-2.05664 3.45579,1.46904 0.57596,3.52566 3.1678,46.42133 5.90364,55.52931 2.73582,9.10799 2.73582,9.40179 2.73582,9.40179 l 27.93429,-3.81947 c 0,0 46.65313,-6.61064 49.10099,-6.61064 2.44784,0 8.06349,0.14691 8.06349,0.14691 l -12.09525,-45.98063 c 0,0 -9.21543,-35.40362 -12.81521,-43.04257 -3.59978,-7.63895 -11.51929,-22.32926 -26.49438,-30.99653 -14.97507,-8.66728 -41.18146,-18.06907 -41.18146,-18.06907 l -26.92635,-6.46373 z"
       id="path14" />
    <path
       style="fill:#fb6c53;fill-opacity:1;stroke:#fe8d63;stroke-width:0.883936;stroke-linecap:round;stroke-linejoin:bevel;stroke-dasharray:none"
       d="m 480.18519,338.86642 -0.77426,22.1388 1.06134,3.66976 c 0,0 1.71441,1.8697 1.71441,7.11693 0,5.24721 0.4057,43.3181 7.83364,58.88626 7.42795,15.56816 19.50781,20.49854 19.50781,20.49854 0,0 14.15382,8.26002 33.88316,2.29607 19.72936,-5.96395 29.77672,-18.07822 29.77672,-18.07822 l 8.22056,-9.50504 c 0,0 1.53754,1.6857 -0.22087,5.96363 -1.75841,4.27794 -10.00944,20.56172 -23.26518,29.94558 -13.25575,9.38387 -15.96101,10.48785 -15.96101,10.48785 v 10.34986 l -15.14942,3.31194 c 0,0 -4.84543,26.76906 18.28449,33.39296 23.12993,6.62391 54.48686,-12.55526 54.48686,-12.55526 0,0 13.25574,-13.5238 15.14942,-17.52574 1.89367,-4.00195 2.43473,-9.38387 2.43473,-9.38387 0,0 -20.42468,-4.13994 -20.6952,-18.35373 -0.27052,-14.21381 1.35263,-53.95724 1.35263,-53.95724 0,0 15.01416,-9.24586 17.98994,-20.28571 2.97577,-11.03984 4.19314,-20.8377 2.1642,-24.14965 -2.02894,-3.31196 -5.41051,-6.20991 -9.73891,-5.93391 -4.32841,0.27599 -8.65681,4.00193 -11.22681,6.8999 -2.56999,2.89796 -3.51683,4.13993 -9.19787,2.20797 -5.68103,-1.93198 -49.23561,-19.18174 -58.0277,-29.66959 -8.79207,-10.48784 -17.44889,-24.70164 -17.44889,-24.70164 0,0 -11.99,19.69492 -32.15379,26.93355 z"
       id="path12" />
    <path
       style="fill:#fe835c;fill-opacity:1;stroke:none;stroke-width:0.883936;stroke-linecap:round;stroke-linejoin:bevel;stroke-dasharray:none"
       d="m 603.18601,382.79928 c 0,0 4.87717,-7.85243 5.86785,-8.6299 0.99067,-0.77746 2.74341,-4.19832 -0.76205,-3.96509 -3.50548,0.23325 -8.07783,2.72114 -9.83055,6.21975 -1.75274,3.49861 -1.82895,8.6299 -0.68586,10.72907 1.14309,2.09917 3.20065,0 3.20065,0 z"
       id="path11" />
    <path
       style="fill:#fb8259;fill-opacity:1;stroke:none;stroke-width:0.883936;stroke-linecap:round;stroke-linejoin:bevel;stroke-dasharray:none"
       d="m 514.15432,423.27566 c 0,0 7.24398,1.18612 10.64239,-0.36496 3.39841,-1.55109 9.12205,-4.10583 9.12205,-4.10583 0,0 4.29273,-0.72991 3.21954,3.92335 -1.07318,4.65325 -11.00011,8.75907 -11.00011,8.75907 0,0 -11.00013,2.55474 -15.11399,-2.18977 -4.11386,-4.7445 -0.98375,-5.83938 -0.98375,-5.83938 z"
       id="path9" />
    <path
       style="fill:#fb8259;fill-opacity:1;stroke:none;stroke-width:0.883936;stroke-linecap:round;stroke-linejoin:bevel;stroke-dasharray:none"
       d="m 509.47774,402.54753 c 0,0 3.33191,-6.35995 3.9768,-11.18475 0.64488,-4.82478 -0.64489,-9.1013 -0.64489,-9.1013 l -2.68703,-2.96067 c 0,0 -0.64488,6.4696 -2.04213,9.43027 -1.39725,2.96067 -5.80396,10.96544 -6.23388,15.02264 -0.42993,4.05722 1.18229,7.78547 1.18229,7.78547 0,0 1.82717,2.52205 4.62166,2.851 2.79451,0.32897 6.01893,0.21932 7.3087,-0.65792 1.28977,-0.87723 3.96836,-4.72709 1.61222,-4.49583 -4.92067,0.48299 -9.78076,-0.87723 -7.09374,-6.68891 z"
       id="path8" />
    <path
       style="fill:#fa7c58;fill-opacity:1;stroke:none;stroke-width:0.883936;stroke-linecap:round;stroke-linejoin:bevel;stroke-dasharray:none"
       d="m 483.67154,361.06216 c 0,0 5.3043,-1.40701 8.3808,-0.54116 3.07649,0.86586 8.80514,3.03048 8.80514,3.03048 0,0 4.87996,0.64939 2.65215,-4.22102 -2.22781,-4.87041 -10.18427,-7.03505 -10.18427,-7.03505 0,0 -7.5321,-1.29877 -10.6086,0.75763 -3.0765,2.05639 -3.92519,5.30334 -3.92519,5.30334 0,0 -0.63651,2.92224 0.21218,3.78809 0.84869,0.86585 1.27303,2.3811 1.27303,2.3811 0,0 1.80346,-3.24695 3.39476,-3.46341 z"
       id="path5" />
    <path
       style="fill:#fa7c58;fill-opacity:1;stroke:none;stroke-width:0.883936;stroke-linecap:round;stroke-linejoin:bevel;stroke-dasharray:none"
       d="m 528.25279,362.86659 c 0,0 6.5572,-4.06165 13.34858,-2.74759 6.7914,1.31407 11.4751,4.18113 11.4751,4.18113 0,0 3.86407,0.35838 3.04442,-2.98652 -0.81965,-3.3449 -6.67429,-7.52603 -6.67429,-7.52603 0,0 -5.50336,-3.3449 -11.94347,-2.26976 -6.44011,1.07516 -11.4751,5.13682 -11.4751,5.13682 0,0 -2.45895,3.58382 -2.45895,5.61465 0,2.03084 2.45895,1.79192 4.68371,0.5973 z"
       id="path4" />
    <path
       style="fill:#1b1c37;fill-opacity:1;stroke:#0b0a2d;stroke-width:1.26277;stroke-linecap:round;stroke-linejoin:bevel;stroke-dasharray:none"
       d="m 531.67249,383.51721 c 0,0 0.49252,-6.87545 4.57353,-6.70402 5.12991,0.21547 4.4876,8.7118 4.4876,8.7118 0,0 -0.33957,4.76584 -4.2417,4.86282 -3.42255,0.0851 -4.72436,-4.16152 -4.81943,-6.8706 z"
       id="path1" />
    <path
       style="fill:#1b1c37;fill-opacity:1;stroke:#0b0a2d;stroke-width:1.26277;stroke-linecap:round;stroke-linejoin:bevel;stroke-dasharray:none"
       d="m 489.16705,383.06679 c 0,0 0.49251,-6.87545 4.57353,-6.70402 5.1299,0.21547 4.48759,8.7118 4.48759,8.7118 0,0 -0.33956,4.76584 -4.24169,4.86282 -3.42256,0.0851 -4.72436,-4.16152 -4.81943,-6.8706 z"
       id="path1-9" />
    <path
       style="fill:#27213b;fill-opacity:1;stroke:#000c2a;stroke-width:0.883936;stroke-linecap:round;stroke-linejoin:bevel;stroke-dasharray:none"
       d="m 527.70642,361.37683 c 0,0 7.15662,-3.65067 13.26955,-3.19434 6.11294,0.45634 11.1822,3.49855 11.1822,3.49855 0,0 1.48565,1.64846 2.41075,0.35071 0.9251,-1.29774 -2.60185,-4.30614 -2.60185,-4.30614 0,0 -5.08808,-4.83704 -12.83583,-4.07019 -7.74774,0.76685 -10.00268,2.77245 -10.00268,2.77245 0,0 -3.3535,3.42132 -3.75824,4.60108 -0.40473,1.17977 -0.80947,3.42132 0.23128,2.5365 1.04074,-0.88482 2.10482,-2.18862 2.10482,-2.18862 z"
       id="path2" />
    <path
       style="fill:#27213b;fill-opacity:1;stroke:#000c2a;stroke-width:0.883936;stroke-linecap:round;stroke-linejoin:bevel;stroke-dasharray:none"
       d="m 485.78948,358.63106 c 0,0 5.61428,-1.5557 9.63439,0.35358 4.0201,1.90926 6.79259,3.53567 6.79259,3.53567 0,0 1.31692,-0.42427 0.0693,-2.19212 -1.24762,-1.76784 -6.30741,-6.92994 -12.40687,-6.78852 -6.09947,0.14143 -8.5254,3.18212 -8.5254,3.18212 0,0 -1.8021,2.19212 -0.97035,2.96998 0.83173,0.77785 5.40633,-1.06071 5.40633,-1.06071 z"
       id="path3" />
    <path
       style="fill:#080b2b;fill-opacity:1;stroke:none;stroke-width:0.883936;stroke-linecap:round;stroke-linejoin:bevel;stroke-dasharray:none"
       d="m 514.67912,410.88847 c 0,0 2.16057,-0.57147 1.76046,0.65312 -0.40009,1.22459 -4.08107,1.71442 -6.88182,1.79606 -2.80073,0.0816 -4.72124,-1.79606 -4.72124,-1.79606 0,0 -2.40064,-1.46951 -2.24059,-4.73509 0.16004,-3.26557 0.16004,-4.24525 1.36035,-6.44952 1.20032,-2.20425 4.00107,-7.67409 4.72125,-9.47015 0.7202,-1.79608 1.60043,-10.04164 1.60043,-10.04164 l 0.08,-0.73476 c 0,0 3.20084,2.61245 2.56067,7.18426 -0.64017,4.5718 -4.40116,13.30722 -5.12135,15.18492 -0.72019,1.8777 -0.32009,6.53115 1.12029,7.26591 1.44039,0.73475 3.761,1.79607 5.76153,1.14295 z"
       id="path6" />
    <path
       style="fill:#121431;fill-opacity:1;stroke:#080b2b;stroke-width:0.883936;stroke-linecap:round;stroke-linejoin:bevel;stroke-dasharray:none"
       d="m 510.43586,425.57596 c 0,0 10.17082,0.98823 13.07678,0.0988 2.90595,-0.88943 9.58964,-4.15061 9.58964,-4.15061 0,0 3.29341,-1.58119 3.00282,0 -0.2906,1.58119 -3.19655,4.34825 -6.19937,6.02825 -3.00281,1.68001 -6.87742,2.37177 -11.13947,2.37177 -4.26207,0 -6.68369,-2.76706 -8.3304,-4.34824 z"
       id="path7" />
    <path
       style="fill:#110f31;fill-opacity:1;stroke:none;stroke-width:0.883936;stroke-linecap:round;stroke-linejoin:bevel;stroke-dasharray:none"
       d="m 599.83295,387.69734 c 0,0 2.20997,-7.69694 5.10579,-10.49583 2.89582,-2.79889 4.19133,-3.88735 4.19133,-3.88735 0,0 1.75272,-2.02141 -1.1431,-1.71042 -2.89582,0.31098 -6.47748,3.03213 -6.47748,3.03213 0,0 -4.11512,4.58706 -3.8865,8.39666 0.22861,3.80959 2.20996,4.66481 2.20996,4.66481 z"
       id="path10" />
    <path
       style="fill:#f85f58;fill-opacity:1;stroke:none;stroke-width:0.883936;stroke-linecap:round;stroke-linejoin:bevel;stroke-dasharray:none"
       d="m 525.95051,486.27521 3.17609,0.10459 c 0,0 -4.40554,20.90523 10.14297,29.47639 14.54851,8.57114 39.54737,0.10459 39.54737,0.10459 0,0 18.74914,-7.944 26.94549,-17.24682 8.19634,-9.30283 10.45034,-19.44187 10.45034,-19.44187 l 1.74172,0.31358 c 0,0 0.20491,14.94723 -18.33932,27.5949 -18.54424,12.64767 -32.99029,13.79747 -32.99029,13.79747 0,0 -20.49087,2.8222 -30.32648,-5.12179 -9.83561,-7.94399 -10.45034,-20.27807 -10.45034,-20.27807 z"
       id="path13" />
    <path
       style="fill:#1b1a37;fill-opacity:1;stroke:#1c1a32;stroke-width:1.26277;stroke-linecap:round;stroke-linejoin:bevel;stroke-dasharray:none"
       d="m 541.62931,472.43754 0.40925,9.91623 -1.73931,0.93943 -16.77923,2.81829 c 0,0 -21.17867,3.86212 -29.77291,0.20877 -8.59423,-3.65335 -8.90117,-10.6469 -9.41273,-14.40463 -0.51157,-3.75773 -0.30695,-13.25643 -0.30695,-13.25643 0,0 -4.64221,8.14935 -5.60829,14.26021 -0.9661,6.11087 -0.36184,9.21553 -0.36184,9.21553 0,0 0.38179,1.46069 -5.44059,0.77903 -5.82239,-0.68165 -16.00224,-7.64328 -16.00224,-7.64328 0,0 -10.54997,-6.5424 -8.68822,-23.21499 1.86177,-16.67258 12.41173,-41.57593 12.41173,-41.57593 0,0 8.48134,-16.46154 9.92939,-22.58185 1.44803,-6.12031 6.41272,-18.36094 6.41272,-18.36094 0,0 -11.99801,-6.75345 -13.23917,-16.67258 -1.24118,-9.91913 1.0343,-35.87771 1.0343,-35.87771 0,0 10.75683,-28.06903 34.54597,-40.9428 23.78915,-12.87376 46.54398,-18.78303 46.54398,-18.78303 0,0 43.85477,-9.49703 67.23017,14.35108 23.37543,23.84813 29.58129,37.98816 29.58129,37.98816 l 16.96269,47.06311 c 0,0 27.92639,20.68245 34.54597,27.43589 6.61959,6.75346 18.82445,19.83827 19.6519,31.44576 0.82745,11.60749 1.44804,24.6923 -9.92938,29.96843 -11.37742,5.27615 -12.41172,1.68836 -12.41172,1.68836 0,0 -5.17156,-17.3057 -9.3088,-23.21498 -4.13725,-5.90927 -4.9647,-6.75344 -4.9647,-6.75344 0,0 -3.39168,-5.00755 -2.4667,1.38851 0.92497,6.39606 9.14698,22.96291 2.98047,34.81136 -6.1665,11.84845 -23.79135,18.38287 -23.79135,18.38287 0,0 -10.04268,2.33675 -9.6903,-2.33675 0.35238,-4.67351 0.35238,-7.19001 -0.52857,-8.80777 -0.88093,-1.61775 -3.34755,-3.41525 -3.34755,1.0785 0,4.49376 -2.819,17.79527 -5.638,19.23327 -2.819,1.43801 -6.07385,1.53404 -6.07385,1.53404 0,0 -13.62559,-3.06156 -18.00525,-4.63371 -4.37966,-1.57215 -12.08461,-7.11606 -13.13897,-11.74977 -1.05436,-4.63372 -0.89215,-11.91526 -0.89215,-11.91526 l 0.81105,-33.92539 0.53037,-12.95735 c 0,0 14.04539,-7.31093 18.34501,-21.93279 4.29961,-14.62187 2.43644,-21.05549 2.43644,-21.05549 0,0 -1.89573,-6.15619 -7.98042,-7.24009 -6.08469,-1.08388 -14.29418,7.78431 -14.29418,7.78431 0,0 -1.06241,3.74434 -9.3685,0.88682 -8.30608,-2.85752 -26.36698,-10.8389 -26.36698,-10.8389 0,0 -24.04901,-11.62719 -28.49179,-15.96275 -4.44279,-4.33557 -16.32242,-21.57927 -16.32242,-21.57927 l -3.47696,-5.71505 c 0,0 -5.79297,11.3021 -17.29212,18.87093 -11.49915,7.56883 -14.71397,8.19957 -14.71397,8.19957 l -0.86552,20.30969 0.86552,5.04588 c 0,0 1.73106,0.63075 2.22565,13.3716 0.49458,12.74087 0.86553,43.14234 9.39714,56.51394 8.53163,13.3716 15.95043,16.27299 15.95043,16.27299 0,0 12.85927,9.20875 34.86839,3.27983 22.00913,-5.92893 33.38463,-21.31888 33.38463,-21.31888 l 5.44046,-6.30735 c 0,0 1.8547,0.88302 -0.2473,6.05506 -2.10199,5.17203 -11.18991,26.17554 -39.53599,40.46171 z"
       id="path17" />
    <path
       style="fill:#180e2f;fill-opacity:1;stroke:#fd865e;stroke-width:0.782914;stroke-linecap:round;stroke-linejoin:bevel;stroke-dasharray:none"
       d="m 437.85055,703.54083 c 0,0 12.5601,-19.38654 15.96591,-22.85509 3.4058,-3.46855 8.28439,-8.67136 13.16298,-8.28599 4.87858,0.3854 10.03331,-0.0964 10.03331,-0.0964 0,0 1.19663,-2.89046 -0.27614,-3.17948 -1.47279,-0.28906 -11.13791,-0.38541 -11.13791,-0.38541 0,0 -5.79907,-2.02333 -11.6902,4.81742 -5.89114,6.84074 -11.13791,13.87417 -11.13791,13.87417 l -9.20488,13.58514 c 0,0 -1.56482,2.89046 0.46024,3.3722 2.02508,0.48176 3.8246,-0.84661 3.8246,-0.84661 z"
       id="path18" />
    <path
       style="fill:#180e2f;fill-opacity:1;stroke:#fd865e;stroke-width:0.782914;stroke-linecap:round;stroke-linejoin:bevel;stroke-dasharray:none"
       d="m 451.20782,705.33755 c 0,0 4.92556,-4.39703 8.89338,-9.49199 3.96782,-5.09498 7.38836,-8.16592 11.83505,-9.5618 4.44671,-1.39589 11.42459,-1.67506 11.42459,-1.67506 0,0 3.35213,-1.81465 0,-2.86156 -3.35212,-1.04691 -9.71432,-1.11671 -9.71432,-1.11671 0,0 -8.07246,0.0698 -13.06643,6.35126 -4.99399,6.28149 -11.90346,14.51719 -11.90346,14.51719 0,0 -1.16299,3.62929 -0.20524,4.39703 0.95775,0.76773 2.73643,-0.55836 2.73643,-0.55836 z"
       id="path19" />
    <path
       style="fill:#180e2f;fill-opacity:1;stroke:#fd865e;stroke-width:0.782914;stroke-linecap:round;stroke-linejoin:bevel;stroke-dasharray:none"
       d="m 471.1375,705.69984 c 0,0 11.72517,-5.80777 14.01923,-5.63439 2.29405,0.17336 14.52901,3.72736 14.52901,3.72736 0,0 6.7972,0 5.01293,-1.38692 -1.78427,-1.38693 -13.3395,-6.06782 -13.3395,-6.06782 0,0 -5.0979,-2.68719 -11.13042,-0.78016 -6.03251,1.90703 -17.07796,8.66832 -17.07796,8.66832 0,0 -1.10455,1.0402 0.16993,1.38693 1.27447,0.34674 7.81678,0.0867 7.81678,0.0867 z"
       id="path20" />
    <path
       style="fill:#5d57fe;fill-opacity:1;stroke:#6f65fa;stroke-width:1.4143;stroke-linecap:round;stroke-linejoin:bevel;stroke-dasharray:none"
       d="m 254.60984,522.97263 106.44341,-0.12871 c 0,0 7.80513,-2.48842 12.19552,14.93057 4.39038,17.41899 42.11519,175.35128 42.11519,175.35128 0,0 1.9513,11.11497 -7.47991,11.28087 -9.4312,0.16589 -199.35613,-0.3318 -199.35613,-0.3318 0,0 -9.4312,-0.49767 -11.70769,-11.28087 -2.27651,-10.78319 -40.16393,-176.34664 -40.16393,-176.34664 0,0 -1.62607,-13.27162 8.78078,-13.27162 10.40685,0 89.17276,-0.20308 89.17276,-0.20308 z"
       id="path24" />
    <path
       style="fill:#3f37f9;fill-opacity:1;stroke:none;stroke-width:0.656638;stroke-linecap:round;stroke-linejoin:bevel;stroke-dasharray:none"
       d="m 269.41931,602.1234 c 0,0 -7.28797,3.65007 -6.95669,14.19473 0.33127,10.54468 10.2694,18.38559 10.2694,18.38559 0,0 5.4991,5.81307 13.97964,4.46119 8.48054,-1.35187 10.86569,-10.00391 10.86569,-10.00391 0,0 2.98145,-12.70768 -5.83038,-20.48099 -8.81181,-7.77331 -11.72698,-7.77331 -11.72698,-7.77331 0,0 -7.28797,-0.94632 -10.60068,1.2167 z"
       id="path26" />
    <path
       style="fill:#fdfdfe;fill-opacity:1;stroke:#9a97fa;stroke-width:0.656638;stroke-linecap:round;stroke-linejoin:bevel;stroke-dasharray:none"
       d="m 275.92064,602.32625 c 0,0 -11.75942,-0.0876 -10.90107,14.97462 0.85836,15.06221 15.79367,19.79103 15.79367,19.79103 0,0 7.12432,2.18928 11.33024,-2.88984 4.20592,-5.07911 4.20592,-8.40681 4.20592,-8.40681 0,0 1.37337,-8.23166 -6.43763,-16.20061 -7.81099,-7.96897 -13.99113,-7.26839 -13.99113,-7.26839 z"
       id="path25" />
    <path
       style="fill:#131936;fill-opacity:1;stroke:none;stroke-width:1.4143;stroke-linecap:round;stroke-linejoin:bevel;stroke-dasharray:none"
       d="m 656.58197,559.20945 80.74619,65.84792"
       id="path31" />
    <path
       style="fill:#2c1580;fill-opacity:1;stroke:none;stroke-width:1.4143;stroke-linecap:round;stroke-linejoin:bevel;stroke-dasharray:none"
       d="m 501.44228,208.58366 c 0,0 2.76886,1.91361 5.35908,7.74555 2.59022,5.83195 2.76885,7.47217 4.73385,8.56567 1.96499,1.09349 11.34338,6.65206 11.34338,6.65206 0,0 1.16112,2.36922 -1.42909,3.91833 -2.59022,1.54912 -11.34338,6.74319 -11.34338,6.74319 l -5.89498,13.94199 c 0,0 -1.16113,1.54911 -3.84067,-0.45563 -2.67954,-2.00471 -6.60953,-12.93962 -6.60953,-12.93962 l -0.9825,-1.09348 -11.34336,-7.1988 c 0,0 -1.69704,-1.91362 -0.53592,-2.73373 1.16114,-0.82013 12.95111,-7.74555 12.95111,-7.74555 l 6.07361,-13.94199 c 0,0 0.80386,-1.54911 1.5184,-1.45799 z"
       id="path34" />
    <path
       style="fill:#519dfe;fill-opacity:1;stroke:#5cc2fa;stroke-width:1.12;stroke-linecap:round;stroke-linejoin:bevel;stroke-dasharray:none"
       id="path33"
       d="m 793.02516,171.69243 6.43359,11.37162 11.55202,6.10376 -11.37162,6.4336 -6.10376,11.55201 -6.4336,-11.37162 -11.55201,-6.10376 11.37162,-6.43359 z"
       transform="matrix(1.0984586,0,0,1.2767027,-369.35915,-9.5392695)" />
    <path
       style="fill:#191395;fill-opacity:1;stroke:none;stroke-width:1.67752;stroke-linecap:round;stroke-linejoin:bevel;stroke-dasharray:none"
       d="m 221.9843,407.0287 c 0,0 3.23629,2.30335 6.26379,9.32312 3.0275,7.01974 3.23629,8.99407 5.53301,10.31026 2.29672,1.31621 13.25835,8.00692 13.25835,8.00692 0,0 1.35714,2.85177 -1.67035,4.71639 -3.02749,1.86464 -13.25834,8.11661 -13.25834,8.11661 l -6.89017,16.78161 c 0,0 -1.35714,1.86462 -4.48904,-0.54842 -3.13189,-2.41302 -7.72533,-15.57508 -7.72533,-15.57508 l -1.14836,-1.31622 -13.25834,-8.66501 c 0,0 -1.98354,-2.30337 -0.62638,-3.29052 1.35715,-0.98716 15.13748,-9.3231 15.13748,-9.3231 l 7.09895,-16.78162 c 0,0 0.93956,-1.86463 1.77473,-1.75494 z"
       id="path34-8" />
    <path
       style="fill:#feb919;fill-opacity:1;stroke:#fed406;stroke-width:1.12;stroke-linecap:round;stroke-linejoin:bevel;stroke-dasharray:none"
       id="path35"
       d="m 793.02516,171.69243 6.43359,11.37162 11.55202,6.10376 -11.37162,6.4336 -6.10376,11.55201 -6.4336,-11.37162 -11.55201,-6.10376 11.37162,-6.43359 z"
       transform="matrix(1.2815883,0,0,1.5107925,-794.32888,150.263)" />
    <path
       style="fill:#191395;fill-opacity:1;stroke:none;stroke-width:1.07303;stroke-linecap:round;stroke-linejoin:bevel;stroke-dasharray:none"
       d="m 400.55503,395.44825 c 0,0 2.23143,1.36683 4.31892,5.5324 2.08746,4.16557 2.23144,5.33716 3.81502,6.1182 1.5836,0.78104 9.1417,4.75135 9.1417,4.75135 0,0 0.93575,1.69227 -1.15171,2.79874 -2.08747,1.1065 -9.14168,4.81647 -9.14168,4.81647 l -4.75082,9.95832 c 0,0 -0.93575,1.10648 -3.0952,-0.32544 -2.15946,-1.4319 -5.32666,-9.24237 -5.32666,-9.24237 l -0.79179,-0.78105 -9.14169,-5.14187 c 0,0 -1.36765,-1.36684 -0.4319,-1.95261 0.93576,-0.5858 10.43737,-5.53242 10.43737,-5.53242 l 4.89475,-9.95832 c 0,0 0.64784,-1.1065 1.22369,-1.0414 z"
       id="path34-8-3" />
    <path
       style="fill:#feb919;fill-opacity:1;stroke:#fed406;stroke-width:1.12;stroke-linecap:round;stroke-linejoin:bevel;stroke-dasharray:none"
       id="path35-0"
       d="m 793.02516,171.69243 6.43359,11.37162 11.55202,6.10376 -11.37162,6.4336 -6.10376,11.55201 -6.4336,-11.37162 -11.55201,-6.10376 11.37162,-6.43359 z"
       transform="matrix(0.88366111,0,0,0.89651534,-300.19762,243.08161)" />
    <path
       style="fill:#191395;fill-opacity:1;stroke:none;stroke-width:1.58736;stroke-linecap:round;stroke-linejoin:bevel;stroke-dasharray:none"
       d="m 680.82475,253.57955 c 0,0 3.20637,2.08167 6.2059,8.42577 2.9995,6.34412 3.20637,8.12844 5.48185,9.31794 2.27548,1.18953 13.13578,7.23627 13.13578,7.23627 0,0 1.34459,2.5773 -1.65491,4.26244 -2.99951,1.6852 -13.13576,7.33544 -13.13576,7.33544 l -6.82649,15.1664 c 0,0 -1.34459,1.68515 -4.44753,-0.49564 -3.10294,-2.18078 -7.65392,-14.07603 -7.65392,-14.07603 l -1.13773,-1.18954 -13.13578,-7.83098 c 0,0 -1.96519,-2.0817 -0.6206,-2.97382 1.34461,-0.89217 14.99755,-8.4258 14.99755,-8.4258 l 7.03332,-15.16642 c 0,0 0.93088,-1.68519 1.75832,-1.58603 z"
       id="path36" />
    <path
       style="fill:#feb919;fill-opacity:1;stroke:#fed406;stroke-width:1.12;stroke-linecap:round;stroke-linejoin:bevel;stroke-dasharray:none"
       id="path37"
       d="m 793.02516,171.69243 6.43359,11.37162 11.55202,6.10376 -11.37162,6.4336 -6.10376,11.55201 -6.4336,-11.37162 -11.55201,-6.10376 11.37162,-6.43359 z"
       transform="matrix(1.2697404,0,0,1.3653825,-326.0929,21.52692)" />
    <ellipse
       style="fill:#1d137a;fill-opacity:1;stroke:none;stroke-width:1.14961;stroke-linecap:round;stroke-linejoin:bevel;stroke-dasharray:none"
       id="path38-5"
       cx="202.37579"
       cy="499.01639"
       rx="5.333086"
       ry="5.7594695" />
    <ellipse
       style="fill:#887df1;fill-opacity:1;stroke:#6056c2;stroke-width:0.854892;stroke-linecap:round;stroke-linejoin:bevel;stroke-dasharray:none"
       id="path38"
       cx="202.28369"
       cy="498.95279"
       rx="3.9790511"
       ry="4.2687488" />
    <ellipse
       style="fill:#1d137a;fill-opacity:1;stroke:none;stroke-width:1.14961;stroke-linecap:round;stroke-linejoin:bevel;stroke-dasharray:none"
       id="path38-5-8"
       cx="272.76355"
       cy="498.20328"
       rx="5.333086"
       ry="5.7594695" />
    <ellipse
       style="fill:#887df1;fill-opacity:1;stroke:#6056c2;stroke-width:0.854892;stroke-linecap:round;stroke-linejoin:bevel;stroke-dasharray:none"
       id="path38-7"
       cx="272.67145"
       cy="498.13968"
       rx="3.9790511"
       ry="4.2687488" />
    <ellipse
       style="fill:#1d137a;fill-opacity:1;stroke:none;stroke-width:1.20029;stroke-linecap:round;stroke-linejoin:bevel;stroke-dasharray:none"
       id="path38-5-8-5"
       cx="423.76773"
       cy="375.37491"
       rx="5.6532722"
       ry="5.9227996" />
    <ellipse
       style="fill:#887df1;fill-opacity:1;stroke:#6056c2;stroke-width:0.892574;stroke-linecap:round;stroke-linejoin:bevel;stroke-dasharray:none"
       id="path38-7-6"
       cx="423.67014"
       cy="375.30951"
       rx="4.2179437"
       ry="4.3898044" />
    <ellipse
       style="fill:#1d137a;fill-opacity:1;stroke:none;stroke-width:1.04579;stroke-linecap:round;stroke-linejoin:bevel;stroke-dasharray:none"
       id="path38-5-8-5-4"
       cx="695.14801"
       cy="357.58167"
       rx="4.7969995"
       ry="5.2988081" />
    <ellipse
       style="fill:#887df1;fill-opacity:1;stroke:#6056c2;stroke-width:0.777687;stroke-linecap:round;stroke-linejoin:bevel;stroke-dasharray:none"
       id="path38-7-6-3"
       cx="695.06519"
       cy="357.52316"
       rx="3.5790734"
       ry="3.9273202" />
    <ellipse
       style="fill:#1d137a;fill-opacity:1;stroke:none;stroke-width:1.04579;stroke-linecap:round;stroke-linejoin:bevel;stroke-dasharray:none"
       id="path38-5-8-5-4-3"
       cx="752.15265"
       cy="359.15292"
       rx="4.7969995"
       ry="5.2988081" />
    <ellipse
       style="fill:#887df1;fill-opacity:1;stroke:#6056c2;stroke-width:0.777687;stroke-linecap:round;stroke-linejoin:bevel;stroke-dasharray:none"
       id="path38-7-6-3-6"
       cx="752.06982"
       cy="359.09442"
       rx="3.5790734"
       ry="3.9273202" />
    <ellipse
       style="fill:#1d137a;fill-opacity:1;stroke:none;stroke-width:1.07213;stroke-linecap:round;stroke-linejoin:bevel;stroke-dasharray:none"
       id="path38-5-8-5-4-3-0"
       cx="723.13843"
       cy="329.67303"
       rx="5.0416489"
       ry="5.2988081" />
    <ellipse
       style="fill:#887df1;fill-opacity:1;stroke:#6056c2;stroke-width:0.797271;stroke-linecap:round;stroke-linejoin:bevel;stroke-dasharray:none"
       id="path38-7-6-3-6-4"
       cx="723.05139"
       cy="329.61453"
       rx="3.7616079"
       ry="3.9273202" />
    <ellipse
       style="fill:#1d137a;fill-opacity:1;stroke:none;stroke-width:1.07213;stroke-linecap:round;stroke-linejoin:bevel;stroke-dasharray:none"
       id="path38-5-8-5-4-3-0-3"
       cx="724.36816"
       cy="385.50464"
       rx="5.0416489"
       ry="5.2988081" />
    <ellipse
       style="fill:#887df1;fill-opacity:1;stroke:#6056c2;stroke-width:0.797271;stroke-linecap:round;stroke-linejoin:bevel;stroke-dasharray:none"
       id="path38-7-6-3-6-4-8"
       cx="724.28113"
       cy="385.44614"
       rx="3.7616079"
       ry="3.9273202" />
    <ellipse
       style="fill:#1d137a;fill-opacity:1;stroke:none;stroke-width:0.98254;stroke-linecap:round;stroke-linejoin:bevel;stroke-dasharray:none"
       id="path38-5-8-5-4-3-0-3-3"
       cx="723.07648"
       cy="359.53546"
       rx="4.674675"
       ry="4.7996149" />
    <ellipse
       style="fill:#887df1;fill-opacity:1;stroke:#6056c2;stroke-width:0.73065;stroke-linecap:round;stroke-linejoin:bevel;stroke-dasharray:none"
       id="path38-7-6-3-6-4-8-7"
       cx="722.99579"
       cy="359.48248"
       rx="3.4878061"
       ry="3.557333" />
    <ellipse
       style="fill:#1d137a;fill-opacity:1;stroke:none;stroke-width:1.25161;stroke-linecap:round;stroke-linejoin:bevel;stroke-dasharray:none"
       id="path38-5-8-5-4-3-0-3-3-7"
       cx="751.87665"
       cy="424.43509"
       rx="6.020246"
       ry="6.0475979" />
    <ellipse
       style="fill:#887df1;fill-opacity:1;stroke:#6056c2;stroke-width:0.930741;stroke-linecap:round;stroke-linejoin:bevel;stroke-dasharray:none"
       id="path38-7-6-3-6-4-8-7-5"
       cx="751.77277"
       cy="424.36835"
       rx="4.4917455"
       ry="4.4823012" />
    <ellipse
       style="fill:#1d137a;fill-opacity:1;stroke:none;stroke-width:1.0983;stroke-linecap:round;stroke-linejoin:bevel;stroke-dasharray:none"
       id="path38-5-8-5-4-3-0-3-3-7-4"
       cx="733.3927"
       cy="479.87137"
       rx="5.143065"
       ry="5.450985" />
    <ellipse
       style="fill:#887df1;fill-opacity:1;stroke:#6056c2;stroke-width:0.816731;stroke-linecap:round;stroke-linejoin:bevel;stroke-dasharray:none"
       id="path38-7-6-3-6-4-8-7-5-8"
       cx="733.30402"
       cy="479.81125"
       rx="3.837275"
       ry="4.0401092" />
    <ellipse
       style="fill:#1d137a;fill-opacity:1;stroke:none;stroke-width:1.0983;stroke-linecap:round;stroke-linejoin:bevel;stroke-dasharray:none"
       id="path38-5-8-5-4-3-0-3-3-7-4-2"
       cx="733.69604"
       cy="513.80304"
       rx="5.143065"
       ry="5.450985" />
    <ellipse
       style="fill:#887df1;fill-opacity:1;stroke:#6056c2;stroke-width:0.816731;stroke-linecap:round;stroke-linejoin:bevel;stroke-dasharray:none"
       id="path38-7-6-3-6-4-8-7-5-8-1"
       cx="733.60736"
       cy="513.74292"
       rx="3.837275"
       ry="4.0401092" />
    <ellipse
       style="fill:#1d137a;fill-opacity:1;stroke:none;stroke-width:0.852498;stroke-linecap:round;stroke-linejoin:bevel;stroke-dasharray:none"
       id="path38-5-8-5-4-3-0-3-3-7-4-2-8"
       cx="747.16663"
       cy="492.2623"
       rx="4.2658839"
       ry="3.9594524" />
    <ellipse
       style="fill:#887df1;fill-opacity:1;stroke:#6056c2;stroke-width:0.633947;stroke-linecap:round;stroke-linejoin:bevel;stroke-dasharray:none"
       id="path38-7-6-3-6-4-8-7-5-8-1-6"
       cx="747.09314"
       cy="492.2186"
       rx="3.1828046"
       ry="2.934629" />
    <ellipse
       style="fill:#1d137a;fill-opacity:1;stroke:none;stroke-width:0.852498;stroke-linecap:round;stroke-linejoin:bevel;stroke-dasharray:none"
       id="path38-5-8-5-4-3-0-3-3-7-4-2-8-9"
       cx="716.16199"
       cy="493.57956"
       rx="4.2658839"
       ry="3.9594524" />
    <ellipse
       style="fill:#887df1;fill-opacity:1;stroke:#6056c2;stroke-width:0.633947;stroke-linecap:round;stroke-linejoin:bevel;stroke-dasharray:none"
       id="path38-7-6-3-6-4-8-7-5-8-1-6-7"
       cx="716.0885"
       cy="493.53586"
       rx="3.1828046"
       ry="2.934629" />
    <path
       style="fill:#151093;fill-opacity:1;stroke:none;stroke-width:0.854892;stroke-linecap:round;stroke-linejoin:bevel;stroke-dasharray:none"
       d="m 381.60865,297.90688 c 0,0 0.25096,-9.30273 -2.50964,-12.37519 -2.76059,-3.07246 -10.87507,-8.44926 -13.88662,-13.05795 -3.01157,-4.60869 -10.62412,-13.65538 -10.2895,-31.4927 0.33462,-17.83734 16.64723,-34.30913 16.64723,-34.30913 0,0 12.54815,-13.74072 29.53,-12.63122 16.98184,1.10949 29.2323,9.71125 29.2323,9.71125 0,0 17.50544,14.04942 19.72279,28.09884 2.21736,14.04941 1.75055,19.05005 1.75055,19.05005 0,0 -2.21736,17.14507 -13.18743,25.12227 -10.97007,7.97722 -12.02039,12.97786 -12.02039,12.97786 l -1.51714,10.71565 z"
       id="path57" />
    <path
       style="fill:#18127f;fill-opacity:1;stroke:none;stroke-width:0.854892;stroke-linecap:round;stroke-linejoin:bevel;stroke-dasharray:none"
       d="m 269.17464,321.35475 h -12.24453 c 0,0 -8.91593,8.12596 -11.41239,14.1901 -2.49646,6.06416 -8.32152,17.22219 -8.32152,17.22219 0,0 0.23776,1.21283 2.49645,1.21283 2.2587,0 20.20943,-3.63849 20.20943,-3.63849 0,0 -1.06991,10.43034 -2.13982,12.856 -1.06991,2.42565 -5.11179,4.00234 -5.58731,5.33645 -0.47552,1.33412 -6.65723,14.67525 -4.87403,22.8012 1.78318,8.12596 3.32859,8.36853 3.32859,8.36853 0,0 11.88791,-5.33645 14.97877,-7.76211 3.09085,-2.42566 9.03479,-6.91313 9.03479,-11.4006 0,-4.48747 -0.47551,-6.79185 -0.47551,-6.79185 l 10.81799,-4.60876 3.56637,-1.94052 c 0,0 6.53834,8.61109 7.25161,14.06882 0.71327,5.45773 3.20973,7.51955 3.20973,7.51955 0,0 2.73423,0.1213 3.80414,-2.06182 1.06991,-2.18309 12.60116,-20.49681 12.60116,-20.49681 0,0 0.59439,-2.30438 -0.47552,-7.8834 -1.06991,-5.57902 -4.99291,-13.09856 -4.99291,-13.09856 0,0 9.74808,-9.9452 13.55221,-20.7394 3.80412,-10.79418 5.11179,-25.46942 5.11179,-25.46942 l -2.97197,-21.58837 c 0,0 -0.23776,-2.42566 -3.56637,-1.94053 -3.32861,0.48513 -23.06253,10.30905 -23.06253,10.30905 0,0 -10.46134,6.06416 -17.47521,15.76679 -7.01385,9.70264 -12.36341,19.76913 -12.36341,19.76913 z"
       id="path49" />
    <path
       style="fill:#fc702c;fill-opacity:1;stroke:#f08722;stroke-width:0.854892;stroke-linecap:round;stroke-linejoin:bevel;stroke-dasharray:none"
       d="m 287.86118,364.40969 c 0,0 6.498,4.93955 8.53658,12.47886 2.03858,7.53931 3.3127,9.48914 3.3127,9.48914 l 9.9381,-15.33859 c 0,0 6.37058,-4.80957 3.69494,-11.69894 -2.67565,-6.88937 -5.86094,-13.77874 -5.86094,-13.77874 z"
       id="path48" />
    <path
       style="fill:#fffdfe;fill-opacity:1;stroke:#1d137a;stroke-width:0.854892;stroke-linecap:round;stroke-linejoin:bevel;stroke-dasharray:none"
       d="m 289.94989,446.08017 c 0,0 3.4601,-3.20915 7.39201,1.28366 3.93193,4.4928 9.43662,14.60162 23.43427,23.26633 13.99765,8.6647 21.23238,11.71339 21.23238,11.71339 0,0 7.70657,2.08595 3.61737,8.02288 -4.0892,5.93693 -14.78403,-1.76503 -14.78403,-1.76503 0,0 -20.13145,-9.78791 -29.56806,-20.05719 -9.43662,-10.26927 -15.25587,-16.52711 -11.32394,-22.46404 z"
       id="path39" />
    <path
       style="fill:#5e5ffe;fill-opacity:1;stroke:#231275;stroke-width:0.854892;stroke-linecap:round;stroke-linejoin:bevel;stroke-dasharray:none"
       d="m 385.51837,485.57842 c 0,0 13.15276,9.6987 16.66884,18.60023 3.51609,8.90154 4.81834,9.96442 4.81834,9.96442 0,0 5.07878,1.86001 6.25081,-2.2586 1.17204,-4.11862 -1.17203,-9.16726 -1.17203,-9.16726 0,0 -5.46945,-11.42586 -12.3714,-17.53736 -6.90194,-6.1115 -10.2878,-8.10438 -10.2878,-8.10438 0,0 -4.29743,-2.65719 -6.77171,1.72716 -2.47429,4.38434 2.86495,6.77579 2.86495,6.77579 z"
       id="path40" />
    <path
       style="fill:#ffc12c;fill-opacity:1;stroke:#fcdc1f;stroke-width:0.854892;stroke-linecap:round;stroke-linejoin:bevel;stroke-dasharray:none"
       d="m 396.40376,295.19633 -11.28144,2.18962 c 0,0 -0.22012,-10.72355 -3.79715,-13.86763 -3.57705,-3.14407 -14.51794,-10.20965 -18.4702,-20.38611 -3.95227,-10.17647 -4.32866,-19.58489 -4.32866,-19.58489 0,0 -0.94102,-11.52054 5.92839,-22.94506 6.8694,-11.42453 15.43263,-16.60876 15.43263,-16.60876 0,0 8.28093,-7.58435 24.56048,-6.72031 16.27956,0.86404 28.88915,12.38457 28.88915,12.38457 0,0 16.75005,13.92063 16.09135,34.84959 -0.65871,20.92897 -17.12647,34.27358 -17.12647,34.27358 0,0 -6.9635,2.40011 -8.09272,7.96837 -1.12922,5.56825 -1.12922,12.00055 -1.12922,12.00055 l -12.7037,-2.78414 z"
       id="path56" />
    <path
       style="fill:#fc702c;fill-opacity:1;stroke:#f08722;stroke-width:0.854892;stroke-linecap:round;stroke-linejoin:bevel;stroke-dasharray:none"
       d="m 271.75327,323.34477 -14.12037,-0.22162 c 0,0 -4.7792,3.43526 -9.44978,12.41124 -4.67059,8.976 -9.01531,16.40059 -9.01531,16.40059 l 8.3636,-2.10548 15.20655,-1.99466 z"
       id="path47" />
    <path
       style="fill:#4897fd;fill-opacity:1;stroke:#231275;stroke-width:0.854892;stroke-linecap:round;stroke-linejoin:bevel;stroke-dasharray:none"
       d="m 353.94942,428.53576 c 0,0 -4.95868,-22.52053 2.2394,-37.04464 7.19809,-14.52411 7.35805,-17.46157 7.35805,-17.46157 0,0 0.47988,-4.07981 -3.19915,-5.54853 -3.67903,-1.46873 -6.55826,3.26385 -6.55826,3.26385 0,0 -11.99681,23.66286 -11.6769,37.04462 0.31992,13.38177 3.35911,28.39546 3.35911,28.39546 l 12.47669,25.1316 c 0,0 4.31885,4.243 7.19809,1.95831 2.87923,-2.28469 2.39936,-6.52769 2.39936,-6.52769 0,0 -13.43644,-19.09349 -13.59639,-29.21141 z"
       id="path41" />
    <path
       style="fill:#5c5eff;fill-opacity:1;stroke:#4a56f3;stroke-width:0.854892;stroke-linecap:round;stroke-linejoin:bevel;stroke-dasharray:none"
       d="m 262.48644,348.28441 -1.97567,12.53192 -1.46028,4.11887 c 0,0 6.27062,4.73233 7.645,5.17052 1.37437,0.43818 5.06802,2.4538 5.06802,2.4538 0,0 3.17825,-1.05162 5.06802,-1.84035 1.88978,-0.78872 11.25274,-5.34578 11.68223,-6.04687 0.42949,-0.70109 -26.02732,-16.38789 -26.02732,-16.38789 z"
       id="path45" />
    <path
       style="fill:#fbfafe;fill-opacity:1;stroke:#837dc0;stroke-width:0.854892;stroke-linecap:round;stroke-linejoin:bevel;stroke-dasharray:none"
       d="m 301.17864,286.68902 c 0,0 -12.65865,7.99477 -20.94705,19.98692 -8.28839,11.99216 -16.87818,36.89895 -16.87818,36.89895 l -0.7535,4.45862 c 0,0 10.69957,10.4547 18.38517,13.52962 7.68562,3.0749 7.68562,3.0749 7.68562,3.0749 0,0 18.68657,-17.06576 25.01588,-25.82925 6.32932,-8.76351 10.54887,-21.98562 10.54887,-21.98562 l 1.95908,-15.06707 -5.27444,-8.91724 z"
       id="path44" />
    <path
       style="fill:#fbf9fe;fill-opacity:1;stroke:#ffb601;stroke-width:0.854892;stroke-linecap:round;stroke-linejoin:bevel;stroke-dasharray:none"
       d="m 396.296,295.74294 -0.26311,-28.72197 c 0,0 -13.41855,-7.78446 -14.07633,-16.10578 -0.65777,-8.32131 -3.02575,-14.89785 5.39374,-22.01123 8.41949,-7.11338 16.57586,-6.17388 16.57586,-6.17388 0,0 13.55011,0 18.68074,13.15306 5.13062,13.15305 -2.23644,23.08495 -2.23644,23.08495 0,0 -2.23642,4.69751 -6.0515,5.23437 -3.81508,0.53686 -3.81508,0.53686 -3.81508,0.53686 l 0.13156,31.54048 z"
       id="path55" />
    <path
       style="fill:#fec037;fill-opacity:1;stroke:#ffb601;stroke-width:0.854892;stroke-linecap:round;stroke-linejoin:bevel;stroke-dasharray:none"
       d="m 399.37395,294.14649 0.10414,-35.28624 c 0,0 1.45848,-2.97595 3.75038,-2.97595 2.29189,0 3.64619,2.33824 3.64619,2.33824 l 0.31254,36.66793 -4.47962,0.21257 -3.33367,0.21257 z"
       id="path53" />
    <path
       style="fill:#fec037;fill-opacity:1;stroke:#ffb601;stroke-width:0.854892;stroke-linecap:round;stroke-linejoin:bevel;stroke-dasharray:none"
       d="m 410.93761,260.45451 c 0,0 6.45898,-2.0194 8.75089,-8.92786 2.29189,-6.90845 -1.45848,-16.04886 -1.45848,-16.04886 0,0 -5.20886,-9.35297 -15.31405,-9.35297 -10.10518,0 -16.25164,11.37236 -16.25164,11.37236 0,0 -3.33366,8.39643 0.52089,15.30488 3.85456,6.90845 8.6467,9.8844 8.6467,9.8844 v -6.48331 c 0,0 2.18773,-4.78278 7.60494,-4.46393 5.41721,0.31886 6.97987,4.78277 6.97987,4.78277 z"
       id="path54" />
    <path
       style="fill:#418af8;fill-opacity:1;stroke:#4294f3;stroke-width:0.854892;stroke-linecap:round;stroke-linejoin:bevel;stroke-dasharray:none"
       d="m 301.13504,286.83524 c 0,0 9.11796,2.75273 15.25862,6.92928 6.14066,4.17656 9.67619,8.25821 9.67619,8.25821 0,0 -0.55825,-18.79452 -1.39561,-22.2117 -0.83736,-3.41719 -3.90769,-2.08829 -3.90769,-2.08829 z"
       id="path42" />
    <ellipse
       style="fill:#655eff;fill-opacity:1;stroke:#5b4ffd;stroke-width:0.854949;stroke-linecap:round;stroke-linejoin:bevel;stroke-dasharray:none"
       id="path43"
       cx="410.40363"
       cy="135.5089"
       rx="8.2537222"
       ry="12.097034"
       transform="matrix(0.88411423,0.46727083,-0.45275044,0.89163728,0,0)" />
    <path
       style="fill:#fdb302;fill-opacity:1;stroke:#f3dc05;stroke-width:0.854892;stroke-linecap:round;stroke-linejoin:bevel;stroke-dasharray:none"
       d="m 261.32498,367.98289 -5.35034,-0.52486 c 0,0 -4.83589,5.14362 -5.65901,13.22646 -0.82314,8.08284 0.61734,15.53584 0.61734,15.53584 0,0 5.76191,-1.46961 10.4949,-4.30385 4.733,-2.83424 9.3631,-6.92815 9.87756,-9.86735 0.51445,-2.93922 0.61734,-8.29279 0.61734,-8.29279 l -1.25735,-1.2209 -6.69005,-3.30259 z"
       id="path46" />
    <path
       style="fill:#5b58ff;fill-opacity:1;stroke:#261c7d;stroke-width:0.854892;stroke-linecap:round;stroke-linejoin:bevel;stroke-dasharray:none"
       d="m 384.49759,316.14623 36.85886,0.31959 c 0,0 -1.87949,7.35039 -9.0842,10.97233 -7.20469,3.62194 -15.97565,2.34361 -15.97565,2.34361 0,0 -11.90342,-6.92429 -11.79901,-13.63553 z"
       id="path50" />
    <path
       style="fill:#5d59ff;fill-opacity:1;stroke:#201270;stroke-width:0.854892;stroke-linecap:round;stroke-linejoin:bevel;stroke-dasharray:none"
       d="m 381.88324,298.14596 0.27622,13.80892 11.69369,0.094 30.75345,-0.37575 0.13626,-13.13699 -1.12658,-0.62693 -5.58168,-0.78365 -8.09088,-1.35833 -9.52469,-0.57468 -9.57591,0.99262 z"
       id="path52" />
    <path
       style="fill:#634cfc;fill-opacity:1;stroke:none;stroke-width:0.854892;stroke-linecap:round;stroke-linejoin:bevel;stroke-dasharray:none"
       d="m 382.55889,298.6122 c 0,0 12.98562,-3.31205 22.57728,-2.55932 9.59165,0.75274 15.05152,2.86042 15.05152,2.86042 l 3.98422,0.0753 -0.14757,-1.35493 -3.68909,-0.67747 c 0,0 -6.19768,-2.48404 -16.3796,-2.48404 -10.18191,0 -14.83017,1.20439 -14.83017,1.20439 l -7.00928,2.18294 z"
       id="path51" />
  </g>
</svg>
