<?xml version="1.0" encoding="UTF-8" standalone="no"?>
<!-- Created with Inkscape (http://www.inkscape.org/) -->

<svg
   version="1.1"
   id="svg1"
   width="56.25116"
   height="62.570129"
   viewBox="0 0 56.25116 62.570129"
   xmlns="http://www.w3.org/2000/svg"
   xmlns:svg="http://www.w3.org/2000/svg">
  <defs
     id="defs1" />
  <g
     id="g1"
     transform="translate(-595.6687,-806.17103)">
    <path
       style="fill:#5e59ff;fill-opacity:1;stroke:#4d44fe;stroke-width:0.677;stroke-linecap:round;stroke-linejoin:bevel;stroke-opacity:1"
       d="m 603.29638,806.55463 c 0,0 -7.38937,1.92326 -7.28814,7.79426 0.10122,5.87101 0.10122,47.17049 0.10122,47.17049 0,0 0,6.78203 6.88325,6.78203 6.88325,0 41.40071,0.10122 41.40071,0.10122 0,0 7.28814,-1.72081 7.18692,-7.69304 -0.10123,-5.97223 -0.10123,-46.46192 -0.10123,-46.46192 0,0 -0.50612,-7.59182 -7.38936,-7.69304 -6.88325,-0.10123 -40.79337,0 -40.79337,0 z"
       id="path9" />
    <path
       style="fill:#4136fa;fill-opacity:1;stroke:none;stroke-width:0.677;stroke-linecap:round;stroke-linejoin:bevel"
       d="m 609.58078,855.4159 c 0,0 -0.43413,2.51797 1.91019,2.80739 2.34432,0.28943 25.58491,-0.0579 25.58491,-0.0579 0,0 2.34432,-0.81038 2.11278,-2.66268 -0.23153,-1.85231 -2.11278,-2.57586 -2.11278,-2.57586 L 611.5778,852.8111 c 0,0 -2.14173,0.34731 -1.99702,2.6048 z"
       id="path8" />
    <path
       style="fill:#4136fa;fill-opacity:1;stroke:none;stroke-width:0.677;stroke-linecap:round;stroke-linejoin:bevel"
       d="m 625.51843,820.42064 c 0,0 -1.10132,-1.35305 -2.54877,0.0944 -1.44745,1.44745 -12.80678,12.42919 -12.80678,12.42919 0,0 -0.97546,1.32158 0.15733,1.88798 1.13279,0.56639 8.2127,0.50346 8.2127,0.50346 l 0.0629,15.73314 c 0,0 -0.78665,1.60478 3.80743,1.76212 4.59407,0.15733 5.47513,0.0629 5.47513,0.0629 0,0 1.69918,-0.0944 1.69918,-2.07678 0,-1.98237 0,-15.63874 0,-15.63874 l 7.48898,-0.1888 c 0,0 1.66771,-1.16425 -0.0315,-2.8005 -1.69918,-1.63625 -11.51666,-11.7684 -11.51666,-11.7684 z"
       id="path7" />
    <path
       style="fill:#fefeff;fill-opacity:1;stroke:#a5a3fa;stroke-width:0.677;stroke-linecap:round;stroke-linejoin:bevel"
       d="m 624.39717,820.85917 -13.18724,12.53716 c 0,0 -0.65007,0.51077 0.37148,0.55721 1.02154,0.0464 8.45097,0.0929 8.45097,0.0929 v 17.36629 c 0,0 0.41791,0.60364 1.71806,0.60364 1.30015,0 5.4792,-0.0929 5.4792,-0.0929 0,0 1.06798,0.1393 1.06798,-0.69651 0,-0.83581 -0.0929,-17.36629 -0.0929,-17.36629 l 8.12593,0.0464 c 0,0 1.06799,-0.0929 -0.83581,-1.71805 -1.90379,-1.62519 -11.09771,-11.32988 -11.09771,-11.32988 z"
       id="path5" />
    <path
       style="fill:#fefeff;fill-opacity:1;stroke:#a5a3fa;stroke-width:0.677;stroke-linecap:round;stroke-linejoin:bevel"
       d="m 611.80101,854.02269 c 0,0 -1.13578,0 -1.13578,1.61401 0,1.61401 1.25534,1.49446 1.25534,1.49446 l 25.13677,-0.20923 c 0,0 1.16568,0.0897 1.16568,-1.22545 0,-1.31513 -1.16568,-1.85313 -1.16568,-1.85313 z"
       id="path6" />
  </g>
</svg>
